<svg width="16" height="16" viewBox="0 0 16 16" fill="none" xmlns="http://www.w3.org/2000/svg">
<path d="M14.4 3.33333H12.3312L10.1656 1.22789C10.0914 1.15552 10.0033 1.09813 9.90621 1.05902C9.80914 1.01991 9.70508 0.999853 9.6 1H6.4C6.29493 0.999853 6.19086 1.01991 6.09379 1.05902C5.99672 1.09813 5.90856 1.15552 5.8344 1.22789L3.6688 3.33333H1.6C0.7176 3.33333 0 4.031 0 4.88889V13.4444C0 14.3023 0.7176 15 1.6 15H14.4C15.2824 15 16 14.3023 16 13.4444V4.88889C16 4.031 15.2824 3.33333 14.4 3.33333ZM8 12.6667C5.832 12.6667 4 10.8856 4 8.77778C4 6.67 5.832 4.88889 8 4.88889C10.168 4.88889 12 6.67 12 8.77778C12 10.8856 10.168 12.6667 8 12.6667Z" fill="white"/>
</svg>
