<svg width="40" height="40" viewBox="0 0 40 40" fill="none" xmlns="http://www.w3.org/2000/svg">
<path fill-rule="evenodd" clip-rule="evenodd" d="M20 0C8.95431 0 0 8.95431 0 20C0 31.0457 8.95431 40 20 40C31.0457 40 40 31.0457 40 20C40 8.95431 31.0457 0 20 0ZM15.6024 9.39745C16.7402 9.34567 17.1038 9.33301 20.0007 9.33301H19.9973C22.8951 9.33301 23.2574 9.34567 24.3952 9.39745C25.5307 9.44945 26.3063 9.62923 26.9863 9.89301C27.6885 10.1652 28.2819 10.5297 28.8752 11.123C29.4686 11.7159 29.833 12.311 30.1063 13.0126C30.3686 13.6908 30.5486 14.466 30.6019 15.6015C30.653 16.7393 30.6663 17.1029 30.6663 19.9998C30.6663 22.8967 30.653 23.2594 30.6019 24.3972C30.5486 25.5323 30.3686 26.3076 30.1063 26.9861C29.833 27.6874 29.4686 28.2825 28.8752 28.8754C28.2825 29.4688 27.6883 29.8341 26.987 30.1066C26.3083 30.3703 25.5323 30.5501 24.3967 30.6021C23.2589 30.6539 22.8965 30.6666 19.9993 30.6666C17.1026 30.6666 16.7393 30.6539 15.6015 30.6021C14.4662 30.5501 13.6908 30.3703 13.0122 30.1066C12.311 29.8341 11.7159 29.4688 11.1232 28.8754C10.5301 28.2825 10.1657 27.6874 9.89301 26.9859C9.62946 26.3076 9.44968 25.5325 9.39745 24.3969C9.3459 23.2592 9.33301 22.8967 9.33301 19.9998C9.33301 17.1029 9.34634 16.7391 9.39723 15.6013C9.44834 14.4662 9.62834 13.6908 9.89279 13.0124C10.1661 12.311 10.5306 11.7159 11.1239 11.123C11.7168 10.5299 12.3119 10.1655 13.0135 9.89301C13.6917 9.62923 14.4668 9.44945 15.6024 9.39745Z" fill="white"/>
<path fill-rule="evenodd" clip-rule="evenodd" d="M19.0454 11.2546C19.2313 11.2543 19.4311 11.2544 19.6468 11.2545L20.0023 11.2546C22.8504 11.2546 23.1879 11.2648 24.3126 11.316C25.3526 11.3635 25.9171 11.5373 26.2931 11.6833C26.7909 11.8766 27.1458 12.1077 27.5189 12.4811C27.8922 12.8544 28.1233 13.21 28.3171 13.7078C28.4631 14.0833 28.6371 14.6478 28.6844 15.6878C28.7355 16.8122 28.7467 17.15 28.7467 19.9967C28.7467 22.8434 28.7355 23.1812 28.6844 24.3056C28.6369 25.3457 28.4631 25.9101 28.3171 26.2857C28.1238 26.7834 27.8922 27.1379 27.5189 27.511C27.1455 27.8843 26.7911 28.1155 26.2931 28.3088C25.9175 28.4555 25.3526 28.6288 24.3126 28.6764C23.1882 28.7275 22.8504 28.7386 20.0023 28.7386C17.1541 28.7386 16.8165 28.7275 15.6921 28.6764C14.6521 28.6284 14.0876 28.4546 13.7114 28.3086C13.2136 28.1152 12.8581 27.8841 12.4847 27.5108C12.1114 27.1375 11.8803 26.7828 11.6865 26.2848C11.5405 25.9092 11.3665 25.3448 11.3191 24.3048C11.268 23.1803 11.2578 22.8425 11.2578 19.994C11.2578 17.1456 11.268 16.8096 11.3191 15.6851C11.3667 14.6451 11.5405 14.0806 11.6865 13.7046C11.8798 13.2069 12.1114 12.8513 12.4847 12.478C12.8581 12.1046 13.2136 11.8735 13.7114 11.6797C14.0874 11.5331 14.6521 11.3597 15.6921 11.312C16.6761 11.2675 17.0574 11.2542 19.0454 11.252V11.2546ZM25.6962 13.0258C24.9895 13.0258 24.4162 13.5985 24.4162 14.3054C24.4162 15.0121 24.9895 15.5854 25.6962 15.5854C26.4029 15.5854 26.9762 15.0121 26.9762 14.3054C26.9762 13.5987 26.4029 13.0254 25.6962 13.0254V13.0258ZM14.5246 19.9993C14.5246 16.9742 16.9771 14.5216 20.0022 14.5215C23.0273 14.5215 25.4794 16.9742 25.4794 19.9993C25.4794 23.0245 23.0276 25.476 20.0024 25.476C16.9773 25.476 14.5246 23.0245 14.5246 19.9993Z" fill="white"/>
<path fill-rule="evenodd" clip-rule="evenodd" d="M20.0009 16.4443C21.9645 16.4443 23.5565 18.0361 23.5565 19.9999C23.5565 21.9635 21.9645 23.5555 20.0009 23.5555C18.0371 23.5555 16.4453 21.9635 16.4453 19.9999C16.4453 18.0361 18.0371 16.4443 20.0009 16.4443V16.4443Z" fill="white"/>
</svg>
