<svg width="24" height="24" viewBox="0 0 24 24" fill="none" xmlns="http://www.w3.org/2000/svg">
<path fill-rule="evenodd" clip-rule="evenodd" d="M11.9077 5.87346C13.0674 5.87346 14.0107 6.78376 14.0107 7.90323C14.0107 9.02181 13.0674 9.9327 11.9077 9.9327C10.7489 9.9327 9.80461 9.02181 9.80461 7.90323C9.80461 6.78376 10.7489 5.87346 11.9077 5.87346ZM11.9074 12.805C14.7091 12.805 16.9866 10.6063 16.9866 7.90323C16.9866 5.19933 14.7091 3 11.9074 3C9.10624 3 6.82812 5.19933 6.82812 7.90323C6.82812 10.6063 9.10624 12.805 11.9074 12.805Z" fill="#1E0E47"/>
<path fill-rule="evenodd" clip-rule="evenodd" d="M14.1633 16.8217C15.2516 16.595 16.3012 16.2012 17.268 15.646C17.9996 15.2242 18.22 14.3399 17.7591 13.6709C17.2984 13.0004 16.332 12.7986 15.599 13.2204C13.409 14.4797 10.5893 14.4794 8.4005 13.2204C7.66759 12.7986 6.70084 13.0004 6.24113 13.6709C5.78014 14.3405 5.99992 15.2242 6.73155 15.646C7.6983 16.2007 8.74792 16.595 9.83624 16.8217L6.84703 19.5551C6.23601 20.1144 6.23601 21.0212 6.84767 21.5805C7.15382 21.8599 7.55435 21.9997 7.95487 21.9997C8.35603 21.9997 8.7572 21.8599 9.06335 21.5805L11.9995 18.8945L14.9381 21.5805C15.5491 22.1398 16.5405 22.1398 17.1522 21.5805C17.7645 21.0212 17.7645 20.1138 17.1522 19.5551L14.1633 16.8217Z" fill="#1E0E47"/>
</svg>
