<svg width="40" height="40" viewBox="0 0 40 40" fill="none" xmlns="http://www.w3.org/2000/svg">
<path fill-rule="evenodd" clip-rule="evenodd" d="M20 40C31.0457 40 40 31.0457 40 20C40 8.95431 31.0457 0 20 0C8.95431 0 0 8.95431 0 20C0 31.0457 8.95431 40 20 40ZM16.333 29.1662C16.8194 29.1662 17.0417 28.9498 17.3104 28.6882L17.333 28.6662L19.7351 26.3305L24.7335 30.0234C25.6533 30.5309 26.3171 30.2681 26.5462 29.1695L29.827 13.709C30.1629 12.3623 29.3137 11.7515 28.4338 12.1509L9.16879 19.5794C7.85378 20.1069 7.86144 20.8405 8.92909 21.1674L13.8729 22.7105L25.3184 15.4897C25.8587 15.162 26.3546 15.3382 25.9476 15.6994L16.6742 24.0679L16.6733 24.0674L16.333 29.1662Z" fill="white"/>
</svg>
