<svg width="40" height="40" viewBox="0 0 40 40" fill="none" xmlns="http://www.w3.org/2000/svg">
<path fill-rule="evenodd" clip-rule="evenodd" d="M20 0C8.95431 0 0 8.95431 0 20C0 31.0457 8.95431 40 20 40C31.0457 40 40 31.0457 40 20C40 8.95431 31.0457 0 20 0ZM23.5065 9.33301L24.0119 10.1445C24.684 11.2372 26.7213 13.9635 28.769 14.8865V18.5304C26.8828 18.1114 25.179 16.8013 23.8608 15.4593V23.9513C23.8608 27.6536 20.9012 30.6663 17.2644 30.6663C13.6275 30.6663 10.668 27.6536 10.668 23.9513C10.668 20.249 13.6275 17.2362 17.2592 17.2309C17.6187 17.2309 17.9678 17.2627 18.3064 17.3211V20.8855C17.9782 20.7688 17.6239 20.6998 17.2592 20.6998C15.498 20.6998 14.0704 22.1585 14.0704 23.946C14.0704 25.7388 15.498 27.1921 17.2592 27.1921C19.0203 27.1921 20.4479 25.7335 20.4479 23.946C20.4479 23.8929 20.4427 23.8346 20.4375 23.7815L20.4479 16.6421V9.33301H23.5065Z" fill="white"/>
</svg>
