<svg width="24" height="24" viewBox="0 0 24 24" fill="none" xmlns="http://www.w3.org/2000/svg">
<path fill-rule="evenodd" clip-rule="evenodd" d="M12.6499 18.6085C12.6499 18.6085 13.0657 18.5631 13.2787 18.3386C13.4737 18.1328 13.4669 17.7446 13.4669 17.7446C13.4669 17.7446 13.441 15.9316 14.2986 15.6639C15.1437 15.4007 16.2289 17.4172 17.3806 18.1926C18.2505 18.7788 18.9109 18.6505 18.9109 18.6505L21.9884 18.6085C21.9884 18.6085 23.5976 18.5111 22.8347 17.2689C22.7716 17.1672 22.3896 16.3497 20.5471 14.6706C18.6168 12.9129 18.876 13.1972 21.1996 10.1564C22.615 8.30471 23.1807 7.17422 23.0038 6.69084C22.8358 6.22847 21.7946 6.35125 21.7946 6.35125L18.3306 6.37227C18.3306 6.37227 18.0736 6.33797 17.8832 6.4497C17.6972 6.5592 17.5767 6.81472 17.5767 6.81472C17.5767 6.81472 17.029 8.24719 16.2976 9.46616C14.7549 12.0369 14.1385 12.1729 13.8861 12.0136C13.299 11.6409 13.4455 10.5181 13.4455 9.72058C13.4455 7.22842 13.8309 6.18975 12.6961 5.92096C12.3197 5.83136 12.0425 5.77273 11.079 5.76278C9.84284 5.75061 8.79709 5.7672 8.20435 6.05148C7.80994 6.24063 7.50567 6.66318 7.69161 6.68752C7.92037 6.71738 8.43874 6.82468 8.7137 7.19192C9.06867 7.66646 9.05627 8.73057 9.05627 8.73057C9.05627 8.73057 9.26024 11.6641 8.5796 12.028C8.11307 12.278 7.473 11.7681 6.09707 9.43519C5.39276 8.24055 4.86087 6.91981 4.86087 6.91981C4.86087 6.91981 4.75832 6.67314 4.57464 6.5404C4.35264 6.38001 4.04275 6.33023 4.04275 6.33023L0.751113 6.35125C0.751113 6.35125 0.25641 6.36452 0.0749812 6.5758C-0.0861637 6.76274 0.0625855 7.15099 0.0625855 7.15099C0.0625855 7.15099 2.63978 13.07 5.55841 16.0533C8.23477 18.7877 11.2729 18.6085 11.2729 18.6085H12.6499Z" fill="#1E0E47"/>
</svg>
