<svg width="40" height="40" viewBox="0 0 40 40" fill="none" xmlns="http://www.w3.org/2000/svg">
<path fill-rule="evenodd" clip-rule="evenodd" d="M20 0C8.95431 0 0 8.95431 0 20C0 31.0457 8.95431 40 20 40C31.0457 40 40 31.0457 40 20C40 8.95431 31.0457 0 20 0ZM21.6281 26.3138C21.4309 26.5217 21.0459 26.5637 21.0459 26.5637H19.7708C19.7708 26.5637 16.9578 26.7296 14.4797 24.1978C11.7772 21.4355 9.39096 15.9549 9.39096 15.9549C9.39096 15.9549 9.25323 15.5954 9.40244 15.4224C9.57042 15.2267 10.0285 15.2144 10.0285 15.2144L13.0763 15.195C13.0763 15.195 13.3632 15.2411 13.5688 15.3896C13.7389 15.5125 13.8338 15.7409 13.8338 15.7409C13.8338 15.7409 14.3263 16.9638 14.9784 18.0699C16.2524 20.23 16.8451 20.7022 17.2771 20.4707C17.9073 20.1337 17.7184 17.4175 17.7184 17.4175C17.7184 17.4175 17.7299 16.4322 17.4012 15.9928C17.1467 15.6528 16.6667 15.5534 16.4549 15.5258C16.2827 15.5033 16.5644 15.112 16.9296 14.9369C17.4785 14.6737 18.4467 14.6583 19.5914 14.6696C20.4835 14.6788 20.7402 14.7331 21.0887 14.816C21.8975 15.0076 21.8722 15.6216 21.8178 16.9467C21.8015 17.343 21.7825 17.8029 21.7825 18.3342C21.7825 18.4536 21.779 18.5808 21.7754 18.7117C21.7564 19.3906 21.7348 20.168 22.1905 20.4574C22.4242 20.6049 22.995 20.4789 24.4234 18.0986C25.1006 16.9699 25.6077 15.6436 25.6077 15.6436C25.6077 15.6436 25.7193 15.407 25.8915 15.3056C26.0678 15.2021 26.3057 15.2339 26.3057 15.2339L29.5132 15.2144C29.5132 15.2144 30.4773 15.1007 30.6328 15.5289C30.7966 15.9764 30.2728 17.0232 28.9623 18.7377C27.7191 20.3646 27.1142 20.9635 27.1697 21.4932C27.2103 21.8803 27.6035 22.2304 28.3581 22.9175C29.9335 24.3532 30.3557 25.1086 30.4572 25.29C30.4656 25.3051 30.4718 25.3162 30.4763 25.3234C31.1827 26.4736 29.6927 26.5637 29.6927 26.5637L26.8431 26.6026C26.8431 26.6026 26.2317 26.7215 25.4261 26.1786C25.0042 25.8945 24.5919 25.4305 24.1991 24.9885C23.5994 24.3135 23.0453 23.69 22.5724 23.8373C21.7784 24.0851 21.8024 25.7638 21.8024 25.7638C21.8024 25.7638 21.8086 26.1233 21.6281 26.3138Z" fill="white"/>
</svg>
