<svg width="40" height="40" viewBox="0 0 40 40" fill="none" xmlns="http://www.w3.org/2000/svg">
<path fill-rule="evenodd" clip-rule="evenodd" d="M29.3674 11.0078C28.756 10.4575 26.2853 8.70799 20.782 8.68422C20.782 8.68422 14.2921 8.30248 11.1284 11.1331C9.36729 12.8513 8.74776 15.3653 8.68241 18.4822C8.61706 21.5991 8.53251 27.4404 14.305 29.0242H14.3106L14.3069 31.4411C14.3069 31.4411 14.2699 32.4195 14.9305 32.619C15.5972 32.821 16.0341 32.3365 16.6038 31.7046C16.7167 31.5794 16.8349 31.4484 16.9611 31.3157C17.3798 30.8757 17.9579 30.2292 18.3936 29.7351C22.3415 30.0592 25.3778 29.3185 25.7227 29.209C25.7938 29.1865 25.8946 29.1615 26.0197 29.1305L26.0197 29.1305C27.2953 28.8141 31.0959 27.8717 31.7639 22.5524C32.5212 16.5321 31.3977 12.7241 29.3674 11.0078ZM30.0364 22.1206C29.479 26.5118 26.4574 27.1975 25.3687 27.4446L25.3686 27.4446C25.2482 27.472 25.1515 27.4939 25.0843 27.5149C24.7974 27.605 22.1307 28.2521 18.7772 28.0386C18.7772 28.0386 16.2784 30.979 15.4979 31.7436C15.3761 31.8631 15.2328 31.9114 15.1372 31.8876C15.0028 31.8556 14.9659 31.7003 14.9674 31.4735C14.9696 31.1494 14.9888 27.4573 14.9888 27.4573C10.2671 26.1786 10.3772 21.488 10.4397 18.8256L10.4397 18.8255C10.4418 18.7346 10.4439 18.646 10.4457 18.56C10.5011 15.9566 11.0025 13.824 12.4919 12.3896C15.1679 10.0253 20.6804 10.3786 20.6804 10.3786C25.3357 10.3984 27.5665 11.7658 28.0837 12.2239C29.8013 13.6583 30.6763 17.0907 30.0364 22.1191V22.1206ZM20.6881 16.4443C20.7022 16.1685 20.9371 15.9563 21.2129 15.9704C21.8839 16.0045 22.4682 16.2041 22.8922 16.6317C23.3155 17.0586 23.5126 17.646 23.5469 18.3202C23.5609 18.596 23.3487 18.831 23.0729 18.845C22.7972 18.859 22.5622 18.6468 22.5482 18.371C22.5219 17.8547 22.3787 17.5341 22.1821 17.3358C21.9861 17.1381 21.6706 16.995 21.1621 16.9691C20.8863 16.955 20.6741 16.7201 20.6881 16.4443ZM20.7504 14.3421C20.475 14.3224 20.2358 14.5298 20.2161 14.8052C20.1965 15.0807 20.4038 15.3199 20.6792 15.3396C21.8306 15.4217 22.6724 15.7951 23.2688 16.4301C23.8692 17.0701 24.166 17.8662 24.144 18.857C24.1379 19.1331 24.3567 19.3619 24.6328 19.368C24.9089 19.3741 25.1377 19.1553 25.1438 18.8792C25.171 17.6517 24.7941 16.5943 23.998 15.7458L23.9979 15.7456C23.1913 14.8869 22.0911 14.4378 20.7504 14.3421ZM19.6641 13.2622C19.6659 12.9861 19.8913 12.7638 20.1675 12.7656C22.0153 12.7782 23.5884 13.3797 24.8523 14.5815C26.134 15.8002 26.7607 17.4562 26.7766 19.4876C26.7787 19.7637 26.5566 19.9893 26.2805 19.9915C26.0044 19.9937 25.7788 19.7715 25.7766 19.4954C25.7624 17.6773 25.21 16.3015 24.1632 15.3062C23.0986 14.2939 21.776 13.7766 20.1607 13.7656C19.8845 13.7637 19.6622 13.5384 19.6641 13.2622ZM21.9218 22.1649C21.6863 22.4479 21.2488 22.4119 21.2488 22.4119C18.0511 21.6157 17.1953 18.4563 17.1953 18.4563C17.1953 18.4563 17.1569 18.0295 17.4485 17.7997L18.0264 17.3517C18.3129 17.1364 18.4956 16.6138 18.2039 16.1035C17.9802 15.7205 17.737 15.3486 17.4751 14.9893C17.2207 14.6504 16.6282 13.9565 16.626 13.9543C16.3402 13.6255 15.92 13.5492 15.477 13.7742C15.4757 13.7742 15.4738 13.7748 15.472 13.7754C15.4704 13.7759 15.4688 13.7764 15.4678 13.7764C15.0271 14.024 14.6298 14.3387 14.2907 14.7084C14.2896 14.7107 14.2884 14.7117 14.2873 14.7128C14.2862 14.7138 14.2852 14.7148 14.2841 14.7167C14.0104 15.0389 13.8537 15.3546 13.8141 15.6638C13.8059 15.7095 13.803 15.7559 13.8056 15.8021C13.8041 15.9388 13.8255 16.0748 13.8687 16.2047L13.8839 16.2148C14.022 16.6931 14.3675 17.4897 15.1185 18.8178C15.548 19.586 16.0434 20.3174 16.5994 21.0042C16.8779 21.3484 17.1765 21.6768 17.4936 21.9877C17.4974 21.9914 17.5012 21.9951 17.505 21.9988C17.5125 22.0063 17.5199 22.0136 17.5276 22.0208L17.5615 22.0543L17.5955 22.0874L17.6295 22.1206C17.9482 22.4299 18.2848 22.7211 18.6378 22.9928C19.3419 23.5351 20.0918 24.0184 20.8796 24.4373C22.2408 25.1698 23.0582 25.5068 23.5478 25.6415L23.5581 25.6563C23.6914 25.6986 23.8308 25.7196 23.9709 25.7182C24.0183 25.7205 24.0659 25.7176 24.1127 25.7096C24.4304 25.6729 24.754 25.5203 25.0833 25.2519C25.0853 25.2508 25.0863 25.2498 25.0873 25.2488C25.0884 25.2476 25.0895 25.2465 25.0918 25.2454C25.4709 24.9146 25.7935 24.527 26.0477 24.0973C26.0477 24.0963 26.0481 24.0947 26.0486 24.0931C26.049 24.0914 26.0495 24.0896 26.0495 24.0883C26.2803 23.6561 26.202 23.2463 25.8631 22.9672C25.8626 22.9672 25.835 22.945 25.7882 22.9074C25.5962 22.753 25.0814 22.3393 24.802 22.1389C24.434 21.8835 24.0531 21.6463 23.6608 21.428C23.1372 21.1435 22.6026 21.3218 22.3811 21.6013L21.9218 22.1649ZM0 20C0 8.95431 8.95431 0 20 0C31.0457 0 40 8.95431 40 20C40 31.0457 31.0457 40 20 40C8.95431 40 0 31.0457 0 20Z" fill="white"/>
</svg>
