<svg width="24" height="18" viewBox="0 0 24 18" fill="none" xmlns="http://www.w3.org/2000/svg">
<path fill-rule="evenodd" clip-rule="evenodd" d="M23.4985 2.69364C23.2225 1.63332 22.4092 0.798369 21.3765 0.514996C19.505 0 12 0 12 0C12 0 4.49495 0 2.62336 0.514996C1.59068 0.798369 0.777409 1.63332 0.501409 2.69364C0 4.61535 0 8.625 0 8.625C0 8.625 0 12.6345 0.501409 14.5564C0.777409 15.6167 1.59068 16.4516 2.62336 16.7351C4.49495 17.25 12 17.25 12 17.25C12 17.25 19.505 17.25 21.3765 16.7351C22.4092 16.4516 23.2225 15.6167 23.4985 14.5564C24 12.6345 24 8.625 24 8.625C24 8.625 24 4.61535 23.4985 2.69364Z" fill="#1E0E47"/>
<path fill-rule="evenodd" clip-rule="evenodd" d="M9.75 12.75V5.25L15.75 9.00014L9.75 12.75Z" fill="white"/>
</svg>
