<svg width="40" height="40" viewBox="0 0 40 40" fill="none" xmlns="http://www.w3.org/2000/svg">
<path fill-rule="evenodd" clip-rule="evenodd" d="M20 0C8.95431 0 0 8.95431 0 20C0 31.0457 8.95431 40 20 40C31.0457 40 40 31.0457 40 20C40 8.95431 31.0457 0 20 0ZM28.3343 13.1248C29.2523 13.3767 29.9752 14.1188 30.2205 15.0613C30.6663 16.7695 30.6663 20.3337 30.6663 20.3337C30.6663 20.3337 30.6663 23.8977 30.2205 25.606C29.9752 26.5485 29.2523 27.2907 28.3343 27.5427C26.6708 28.0003 19.9997 28.0003 19.9997 28.0003C19.9997 28.0003 13.3285 28.0003 11.6649 27.5427C10.7469 27.2907 10.024 26.5485 9.7787 25.606C9.33301 23.8977 9.33301 20.3337 9.33301 20.3337C9.33301 20.3337 9.33301 16.7695 9.7787 15.0613C10.024 14.1188 10.7469 13.3767 11.6649 13.1248C13.3285 12.667 19.9997 12.667 19.9997 12.667C19.9997 12.667 26.6708 12.667 28.3343 13.1248Z" fill="white"/>
<path fill-rule="evenodd" clip-rule="evenodd" d="M18 23.9997V17.333L23.3333 20.6665L18 23.9997Z" fill="white"/>
</svg>
