<svg width="232" height="97" viewBox="0 0 232 97" fill="none" xmlns="http://www.w3.org/2000/svg">
<g clip-path="url(#clip0_1_21138)">
<path d="M97.4336 70.1823L110.852 60.1201L103.616 56.5073L97.4336 70.1823Z" fill="#ED1B26"/>
<path d="M103.822 56.5743L128.539 0L70.8921 24.6548L78.5848 28.0871L69.7734 32.2657L92.2866 43.2642L85.2614 47.4893L103.822 56.5743Z" fill="#ED1B26"/>
<path d="M85.436 47.4204L71.7305 41.1943L78.1628 51.64L85.436 47.4204Z" fill="#ED1B26"/>
<path d="M97.5551 70.1228H0L85.5443 97L97.432 70.1805L97.3463 70.2066L97.5551 70.1228Z" fill="#ED1B26"/>
<path d="M195.643 38.6817V29.7474H189.129L191.353 33.135V47.6159L192.899 46.2869V46.2888V46.2869L201.912 38.1959V47.1059H206.202V29.2393L195.643 38.6817Z" fill="#1B0047"/>
<path d="M150.12 43.3572V40.1408H156.448V36.368H150.12V33.7175L150.158 33.5444H157.352V29.7473H143.574L145.83 33.1591V47.1058H157.608V43.3572H150.12Z" fill="#1B0047"/>
<path d="M136.687 29.7473H128.062L130.335 33.1833V47.1058H134.623V42.5233H136.665C140.56 42.5233 143.435 39.9547 143.435 36.1353C143.435 32.3159 140.58 29.7473 136.687 29.7473ZM136.363 38.89H134.623V33.3824H136.363C138.041 33.3824 139.029 34.5848 139.029 36.1353C139.029 37.6858 138.032 38.89 136.363 38.89Z" fill="#1B0047"/>
<path d="M171.625 29.7473H159.23L161.5 33.1758V47.1077H165.788V33.5909H171.625V29.7473Z" fill="#1B0047"/>
<path d="M181.741 36.5299H179.69V33.589H187.321V29.7473H173.129L175.396 33.174V47.1058H182.923C186.437 47.1058 188.703 44.9691 188.703 41.8681C188.695 37.7081 185.999 36.5299 181.741 36.5299ZM182.412 43.5656H179.684V39.977H182.412C183.596 39.977 184.314 40.6955 184.314 41.7825C184.314 42.8695 183.572 43.5656 182.412 43.5656Z" fill="#1B0047"/>
<path d="M154.031 70.2884C148.721 70.2884 144.941 66.5844 144.941 61.3076C144.941 56.0309 148.745 52.4199 154.031 52.4199C159.316 52.4199 163.118 56.0774 163.118 61.3076C163.118 66.5844 159.339 70.2884 154.031 70.2884ZM158.714 61.3076C158.714 58.5529 156.835 56.4925 154.031 56.4925C151.226 56.4925 149.343 58.5529 149.343 61.3076C149.343 64.0996 151.208 66.2364 154.027 66.2364C156.846 66.2364 158.714 64.107 158.714 61.3076Z" fill="#1B0047"/>
<path d="M136.687 52.6748H128.062L130.335 56.1089V70.0333H134.623V65.4508H136.665C140.56 65.4508 143.435 62.8803 143.435 59.0628C143.435 55.2453 140.58 52.6748 136.687 52.6748ZM136.363 61.8157H134.623V56.3081H136.363C138.041 56.3081 139.029 57.5105 139.029 59.0628C139.029 60.6151 138.032 61.8157 136.363 61.8157Z" fill="#1B0047"/>
<path d="M173.984 66.2811C171.135 66.1824 169.213 64.107 169.213 61.3076C169.213 58.5082 171.09 56.4403 173.965 56.4403C174.075 56.4403 178.927 58.2849 178.927 58.2849V53.7098C177.307 52.8737 175.511 52.4317 173.688 52.4199C168.402 52.4199 164.738 56.1686 164.738 61.3542C164.738 66.5398 168.355 70.2884 173.619 70.2884C175.484 70.3031 177.324 69.8554 178.973 68.9855V64.6934L173.984 66.2811Z" fill="#1B0047"/>
<path d="M189.97 66.2811C187.123 66.1824 185.201 64.107 185.201 61.3076C185.201 58.5082 187.079 56.4403 189.954 56.4403C190.062 56.4403 194.915 58.2849 194.915 58.2849V53.7098C193.295 52.8737 191.5 52.4317 189.676 52.4199C184.39 52.4199 180.727 56.1686 180.727 61.3542C180.727 66.5398 184.344 70.2884 189.607 70.2884C191.472 70.3031 193.312 69.8554 194.962 68.9855V64.6934L189.97 66.2811Z" fill="#1B0047"/>
<path d="M202.87 61.6072V52.6748H196.355L198.58 56.0605V70.5414L200.125 69.2125V69.2162V69.2125L209.138 61.1214V70.0333H213.428V52.1648L202.87 61.6072Z" fill="#1B0047"/>
<path d="M221.44 61.6072V52.6748H214.926L217.15 56.0605V70.5414L218.694 69.2125L218.696 69.2162V69.2125L227.708 61.1214V70.0333H231.998V52.1648L221.44 61.6072Z" fill="#1B0047"/>
</g>
<defs>
<clipPath id="clip0_1_21138">
<rect width="232" height="97" fill="white"/>
</clipPath>
</defs>
</svg>
