<svg width="178" height="75" viewBox="0 0 178 75" fill="none" xmlns="http://www.w3.org/2000/svg">
<g clip-path="url(#clip0_10_4972)">
<path d="M74.7539 54.2646L85.049 46.4846L79.4974 43.6912L74.7539 54.2646Z" fill="#ED1B26"/>
<path d="M79.6546 43.743L98.6185 0L54.3895 19.063L60.2917 21.7168L53.5312 24.9477L70.8043 33.4517L65.4142 36.7185L79.6546 43.743Z" fill="#ED1B26"/>
<path d="M65.5506 36.6653L55.0352 31.8513L59.9703 39.9278L65.5506 36.6653Z" fill="#ED1B26"/>
<path d="M74.8483 54.2188H0L65.6332 75.0001L74.7539 54.2634L74.6881 54.2835L74.8483 54.2188Z" fill="#ED1B26"/>
<path d="M150.107 29.9085V23.0006H145.109L146.816 25.6198V36.8164L148.002 35.7889V35.7903V35.7889L154.917 29.5329V36.4221H158.208V22.6077L150.107 29.9085Z" fill="white"/>
<path d="M115.179 33.5233V31.0365H120.034V28.1193H115.179V26.07L115.207 25.9361H120.727V23.0002H110.156L111.887 25.6382V36.4218H120.923V33.5233H115.179Z" fill="white"/>
<path d="M104.871 23.0002H98.2539L99.9977 25.6569V36.4232H103.288V32.88H104.854C107.842 32.88 110.048 30.8926 110.048 27.9409C110.048 24.9892 107.86 23.0002 104.871 23.0002ZM104.622 30.0694H103.288V25.8109H104.622C105.91 25.8109 106.668 26.7406 106.668 27.9409C106.668 29.1411 105.903 30.0694 104.622 30.0694Z" fill="white"/>
<path d="M131.678 23.0002H122.168L123.909 25.6512V36.4232H127.199V25.9721H131.678V23.0002Z" fill="white"/>
<path d="M139.438 28.2445H137.865V25.9721H143.72V23.0002H132.828L134.568 25.6512V36.4232H140.342C143.039 36.4232 144.777 34.7696 144.777 32.372C144.774 29.1555 142.707 28.2445 139.438 28.2445ZM139.955 33.6845H137.861V30.9113H139.955C140.862 30.9113 141.412 31.4653 141.412 32.3072C141.412 33.1492 140.839 33.6845 139.955 33.6845Z" fill="white"/>
<path d="M118.179 54.3471C114.107 54.3471 111.207 51.4832 111.207 47.4032C111.207 43.3232 114.124 40.5312 118.179 40.5312C122.235 40.5312 125.153 43.3592 125.153 47.4032C125.153 51.4832 122.253 54.3471 118.179 54.3471ZM121.773 47.4032C121.773 45.2733 120.332 43.6815 118.179 43.6815C116.026 43.6815 114.586 45.2733 114.586 47.4032C114.586 49.5691 116.016 51.2155 118.179 51.2155C120.342 51.2155 121.773 49.5691 121.773 47.4032Z" fill="white"/>
<path d="M104.871 40.7283H98.2539L99.9977 43.3835V54.1498H103.288V50.6066H104.854C107.842 50.6066 110.048 48.6206 110.048 45.6674C110.048 42.7143 107.86 40.7283 104.871 40.7283ZM104.622 47.7974H103.288V43.5375H104.622C105.91 43.5375 106.668 44.4686 106.668 45.6674C106.668 46.8663 105.903 47.7974 104.622 47.7974Z" fill="white"/>
<path d="M133.488 51.2486C131.302 51.1738 129.828 49.5677 129.828 47.4032C129.828 45.2387 131.27 43.6398 133.474 43.6398C133.558 43.6398 137.28 45.066 137.28 45.066V41.5286C136.037 40.8821 134.66 40.5404 133.261 40.5312C129.205 40.5312 126.395 43.4311 126.395 47.4392C126.395 51.4472 129.17 54.3471 133.208 54.3471C134.639 54.3586 136.051 54.0125 137.316 53.3397V50.021L133.488 51.2486Z" fill="white"/>
<path d="M145.754 51.2486C143.568 51.1738 142.093 49.5677 142.093 47.4032C142.093 45.2387 143.534 43.6398 145.74 43.6398C145.824 43.6398 149.546 45.066 149.546 45.066V41.5286C148.303 40.8821 146.926 40.5404 145.526 40.5312C141.471 40.5312 138.66 43.4311 138.66 47.4392C138.66 51.4472 141.435 54.3471 145.474 54.3471C146.905 54.3584 148.316 54.0123 149.582 53.3397V50.021L145.754 51.2486Z" fill="white"/>
<path d="M155.65 47.6348V40.7283H150.652L152.359 43.3461V54.5427L153.545 53.5152V53.5181V53.5152L160.46 47.2592V54.1498H163.751V40.334L155.65 47.6348Z" fill="white"/>
<path d="M169.9 47.6348V40.7283H164.902L166.609 43.3461V54.5427L167.793 53.5152L167.795 53.5181V53.5152L174.71 47.2592V54.1498H178.001V40.334L169.9 47.6348Z" fill="white"/>
</g>
<defs>
<clipPath id="clip0_10_4972">
<rect width="178" height="75" fill="white"/>
</clipPath>
</defs>
</svg>
