<svg xmlns="http://www.w3.org/2000/svg" id="svg2" viewBox="0 0 1700 1000">
                    <defs>
                        <style>
                            .cls-1 {
                                fill: #1d5eaa;
                                cursor: pointer;
                            }
                            .cls-2 {
                                fill: #ddd;
                            }
                        </style>
                    </defs>
                    <g id="g5" style="transform: translateX(60px);">
                        <g id="Central">
                            <path id="BelgorodOblast" class="cls-1" data-name="Белгородская область" d="M99.9,675.5c-.7-.8-1.8-6.4-2.4-12.4s-1.6-11.4-2.1-11.9a33,33,0,0,0-5.8-2.7c-4-1.4-5.5-2.8-8.4-7.3-3.3-5.2-3.4-5.7-2.3-9.4.6-2.1,1.7-4.1,2.4-4.3,2-.8,9.3,2.3,14.3,6,3.1,2.4,5.7,3.6,7.9,3.6,2.7,0,3.9.8,6.8,4.3,3.3,4,3.6,4.9,3.6,10.8-.1,9.6-1.3,13.4-6.1,18.8C102.6,676.8,101.4,677.4,99.9,675.5Z"></path>
                            <path id="BryanskOblast" class="cls-1" data-name="Брянская область" d="M90.1,593.2c-1.1-.7-1.1-1.6-.1-4.9,1.8-6.3,1-7.2-6.4-7.2H77.2l-.7-5.1c-.6-4.5-1-5.2-4.1-6.7-1.9-.9-3.5-2.2-3.5-3,0-1.7,7.8-13.2,9-13.2.5,0,1.2.9,1.5,1.9,1,3.1,14.4,6.2,17.1,4,.9-.8,5.4-1.6,10.5-1.9,8.2-.5,8.8-.4,9.3,1.5,1.1,4,.5,6.9-2,10.3-3.2,4-5,11.8-3.3,13.8.9,1.1.7,1.4-.9,1.4-1.2,0-3.7,2-6.2,5-3.8,4.5-4.6,5-8.3,5C93.3,594,90.8,593.7,90.1,593.2Z"></path>
                            <path id="IvanovoOblast" class="cls-1" data-name="Ивановская область" d="M288.5,586.4l-6.9-4.6-3.7,2.2c-5.5,3.1-10.8,2.7-16.9-1.2-4.2-2.7-5-3.6-4.7-5.7.3-1.8-.8-3.7-4.9-7.9-5.1-5.3-5.4-5.5-7.8-4.2-2.6,1.3-7.8.9-10.6-.8-2.1-1.4,3.9-6.4,12.9-11,4.1-2.2,8.9-4.6,10.5-5.5,2.1-1.1,5.6-1.6,11.3-1.6,10.3,0,14.9,2,19.5,8.7,6.8,9.8,9,11.6,17.6,14.2,7.6,2.2,8.2,2.3,9.9.7,2.3-2,7.2-2.2,7.2-.3a4.37,4.37,0,0,1-1.5,2.7c-1,.8-1.5,3-1.5,6.5v5.3l-5.6-.5c-4.7-.4-6.2-.1-9.3,1.9C294.4,591.7,296.1,591.6,288.5,586.4Z"></path>
                            <path id="KalugaOblast" class="cls-1" data-name="Калужская область" d="M117.6,582.3c-4.7-1.6-4.9-1.8-4.4-4.8a21.7,21.7,0,0,1,3.6-7.4c2.8-3.9,3-4.7,2.5-10-.6-4.9-.4-5.8,1.1-6.4q1.8-.75,4.5,1.8c2.5,2.5,3,2.6,12.1,2,5.2-.3,10.5-.7,11.9-.9,2-.3,2.9.3,4.2,2.5,1,1.7,2.4,3,3.2,3,2.2,0,4.6,4,4.6,7.8,0,2.5-.8,4.1-3.1,6.3-3.5,3.3-5.7,3.5-12.1,1.3l-4.6-1.6-6.5,4.1C127.6,584.5,125.2,584.8,117.6,582.3Z"></path>
                            <path id="KostromaOblast" class="cls-1" data-name="Костромская область" d="M233.1,589.7c-7.6-9.7-12.7-14.6-14.9-14.6a5.07,5.07,0,0,1-3.3-1.5c-1-1.3-.9-1.9.6-3.6s1.6-2.4.6-4c-1.8-2.9-.7-3.9,4.2-3.9a12.28,12.28,0,0,1,7.6,2.4c4.4,3.3,13.3,5.4,15.5,3.6,1.3-1.1,1.9-1,3.7.6,5,4.3,6.7,6.8,6.1,9.5-.4,2.3.1,3,3.6,4.9,4.6,2.6,5.2,4,1.9,4a7.48,7.48,0,0,0-4.4,2.1c-1.8,1.6-2.6,1.8-4.2,1-3.8-2.1-7-1.4-8.7,1.8a11.82,11.82,0,0,1-2.4,3.5C238.5,595.8,235.8,593.2,233.1,589.7Z"></path>
                            <path id="KurskOblast" class="cls-1" data-name="Курская область" d="M112.1,639.2c-2.5-3.1-4.1-4.1-7.4-4.6a24.71,24.71,0,0,1-9.3-4.5,37.75,37.75,0,0,0-9.2-4.9c-3.5-1-4.3-1.7-4.3-3.5a36.65,36.65,0,0,0-2-8.1c-2.6-7.6-2.6-7.9,1.5-9.8a12.2,12.2,0,0,0,5-4.8c1.6-3.1,1.9-3.2,6.8-2.7s5.5,1,10.5,6.4c7.4,8.2,8.1,9.3,9.3,15.7.9,4.9,1.7,6.4,6.5,11.1,3,3,5.4,5.9,5.4,6.4s-1.2,1.7-2.7,2.7C114.6,643.5,115.5,643.4,112.1,639.2Z"></path>
                            <path id="LipetskOblast" class="cls-1" data-name="Липецкая область" d="M145.7,652a9.06,9.06,0,0,1-4.8-5.4c-.6-1.9-1.7-3.9-2.3-4.3a11.65,11.65,0,0,1-2.9-3.4,8.92,8.92,0,0,0-4.8-3.3c-1.7-.4-4.3-2.3-6-4.4l-3-3.6,3.5-.3c3-.3,4.2-1.2,7.7-6,2.2-3.2,4.4-6.1,4.9-6.6s1.9.4,3.2,1.9l2.4,2.8,4.4-1.8c2.4-.9,4.9-1.9,5.5-2.2,1-.4,11.4,12.1,11.4,13.6,0,.3-2.5,2.4-5.5,4.6l-5.5,4,.2,7.4c.3,7.2.2,7.5-2.3,8.1C150.2,653.6,148,653.2,145.7,652Z"></path>
                            <path id="Moscow" class="cls-1" data-name="Москва" d="M173.5,571.7a26.72,26.72,0,0,1-.6-5.3c0-3,.3-3.2,4.4-3.9,5.7-.8,6.6-.2,6.6,4.6,0,4.4-.2,4.5-5.7,5.8C174.4,573.7,174,573.6,173.5,571.7Z"></path>
                            <path id="MoscowOblast" class="cls-1" data-name="Московская область" d="M167.5,598.4c-.2-.3.2-1.9.9-3.6,1.2-2.9,1-3.7-2.2-10.7-2.9-6.4-3.4-8.2-2.8-12.2.7-5.5-1.8-11.8-4.6-11.8-.9,0-2.7-1.6-3.9-3.5l-2.1-3.5,3.3-6c2.7-4.9,3.9-6.2,6.8-7,5.7-1.6,7.7-1.2,10.3,2.1,2.2,2.8,3.5,3.3,12.2,5,12.5,2.4,19.4,7.3,12.5,8.9-1.8.4-2.8,2-4.6,7.4-2.1,6-2.2,7.4-1.2,10.8a14.82,14.82,0,0,0,4,6.3c3.3,2.7,3.4,3.6.9,9-1.8,4-2,4.1-9.2,5.4-4.1.7-10.2,1.9-13.6,2.6S167.8,598.6,167.5,598.4Zm12.4-23.2,6.5-1.8.3-5.4c.4-7.9-.7-8.9-9.3-8.1l-7,.7.3,7c.3,7.4.7,9.5,1.9,9.5C173.1,577.1,176.3,576.2,179.9,575.2Z"></path>
                            <path id="OryolOblast" class="cls-1" data-name="Орловская область" d="M117.3,622.9c-.5-.7-1.4-4-2.1-7.2-1-4.9-2.1-6.7-7.3-12.3-3.5-3.8-5.8-6.9-5.3-7.6,2.6-4.7,6.6-8.6,8-8a2.69,2.69,0,0,0,2.9-1.2c1.2-1.6,1.9-1.6,8.3-.4l7,1.3.6,4.9a15.48,15.48,0,0,0,3.6,8.1c4.4,5,4.1,10.6-.9,17.6-3.6,5.3-3.9,5.5-8.9,5.8C119.8,624.1,117.8,623.7,117.3,622.9Z"></path>
                            <path id="RyazanOblast" class="cls-1" data-name="Рязанская область" d="M192,633.8c-3.1-3.1-3.2-3.1-7.8-1.9-3.3.9-4.9,1-5.1.2-.8-2.3-3.5-4-6.5-4-4.1-.1-4.6-.4-10.1-7.5-5-6.5-5.3-7.1-3.1-7.9.8-.3,2.6-2.8,4-5.6,1.6-3.2,3.3-5.2,4.8-5.5,5.3-1.3,23.4-4.5,25.3-4.5,2.1,0,10.2,9.3,15.8,18.2l2.9,4.8-7.4,7.8a96,96,0,0,1-8.6,8.5C195.6,636.7,193.7,635.5,192,633.8Z"></path>
                            <path id="SmolenskOblast" class="cls-1" data-name="Смоленская область" d="M98.6,553.9c-3-1.7-2.2-12.7,1.7-24.7,3.2-9.6,3.9-10.9,9.4-16.4,5.9-5.9,6-5.9,9.4-4.7,2.8,1,4.6,3,9.2,10.6l5.8,9.4h14.8l4,5.1c2.2,2.8,4,5.4,4,5.9,0,1.1-5.9,12.1-7.4,13.7-.8.8-5.1,1.6-11.3,1.9l-10.1.7-2.5-2.9-2.5-2.9-4.8,2.2C113,554.1,101.2,555.4,98.6,553.9Z"></path>
                            <path id="TambovOblast" class="cls-1" data-name="Тамбовская область" d="M162.3,671.8c-7.4-8-9.1-10.2-9.8-13-.5-2.3-.3-2.8,2-3.3,2.5-.7,2.5-.8,2.3-8.5-.2-4.3-.1-8,.2-8.2,7.2-5.9,10.6-7.7,14.1-7.7,3.1,0,4.1.4,5,2.5,1.3,2.8,1.4,2.9,7.4,1.3,4.2-1,4.8-.9,6.7,1.1l2.2,2.2-2.8,2-2.8,2.1.7,11.8.7,11.8L178.1,671c-5.6,2.8-10.5,5.1-11,5.1S164.5,674.2,162.3,671.8Z"></path>
                            <path id="TverOblast" class="cls-1" data-name="Тверская область" d="M198.8,548.7c-1.9-1.7-5.3-2.8-12.1-4-8.7-1.6-9.6-2-12.2-5.3s-3-3.5-7.3-2.8a29.46,29.46,0,0,0-5.7,1.1c-.7.2-3.3-2.3-5.9-5.6l-4.7-6h-6.7c-3.8-.1-7.3-.4-7.9-.8-1.5-1-10.4-15.4-10.4-16.8,0-.7,1.4-1.8,3-2.4,3.7-1.6,4.5-3,5.5-9.5,1.2-8.5,3.7-10.8,6.7-6.3,1.1,1.7,3.8,2.7,11.4,4.3a132,132,0,0,1,13.1,3.5c2.8,1.2,3.8,1.1,9.9-1.5l6.7-2.9,5.8,6.2c5,5.4,6.1,6.1,7.8,5.2,3-1.6,4.7-1.3,9.8,2,3.5,2.2,5.9,3,9.4,3,4.1,0,4.8.3,5.3,2.4.9,3.6-.9,7.2-6.2,12.4-5.9,5.7-9.4,14-7.3,17.3,1.1,1.8.9,2.5-1.4,5.4-1.4,1.9-2.9,3.5-3.3,3.4A10.08,10.08,0,0,1,198.8,548.7Z"></path>
                            <path id="TulaOblast" class="cls-1" data-name="Тульская область" d="M142.1,613c-.9-1.6-2-2.9-2.4-2.9s-.8-1.6-.8-3.5c0-2.5-.9-4.5-3.1-7-2.7-3.1-3.2-4.4-3.3-9.3l-.1-5.6,4.5-2.8,4.5-2.8,5.9,1.7c5.8,1.6,6,1.6,9.6-.5l3.8-2.2,2.8,6.3c3.2,7.2,3.2,7.4,1.2,12.4-5.9,14.3-5.6,13.9-15.2,17.2l-5.7,2Z"></path>
                            <path id="VladimirOblast" class="cls-1" data-name="Владимирская область" d="M204.4,603.9c-7.4-9.3-7.1-8.1-4.1-14.8l2.6-6-3.6-3.3c-5.2-4.7-5.8-7-3.8-14.4.9-3.5,2-6.3,2.3-6.3s1.9,1.6,3.5,3.6c2.7,3.4,3.1,3.5,7.1,2.9,5.1-.7,6.6.6,3.9,3.6-1.7,1.8-1.7,2.2-.3,4.7a9.66,9.66,0,0,0,4.8,3.8c4.5,1.4,19.5,18.3,17.8,20-1,1-24,11.4-25.1,11.3C208.9,609,206.6,606.7,204.4,603.9Z"></path>
                            <path id="VoronezhOblast" class="cls-1" data-name="Воронежская область" d="M114.9,693.1a29.61,29.61,0,0,0-5.5-3c-.8,0-4.7-5.7-6.3-9.1-.1-.4,2.4-3.6,5.7-7.2,6.5-7.2,8.1-11.7,8.1-22.6v-5.8l5.6-3.8c6.3-4.2,9.8-4.2,11.4,0,.5,1.4,1.4,2.5,2,2.5s1.9,2,3,4.4c1.4,3.3,2.8,4.9,5.3,5.9,3.6,1.5,6.7,5,6.7,7.6,0,.9,3.2,4.9,7,9.1,6.3,6.8,7,7.9,7,11.7,0,5.2-1.6,5.6-6.8,1.6-3.2-2.4-3.9-2.6-10.9-2a51.11,51.11,0,0,0-8,1,15,15,0,0,0-1.2,3.9c-.6,2.9-1.4,3.6-6.5,5.6C122.6,696.4,120.1,696.5,114.9,693.1Z"></path>
                            <path id="YaroslavlOblast" class="cls-1" data-name="Ярославская область" d="M203.5,561.1c-2.2-2.4-1.5-5.1,2.9-10.5,4.5-5.7,4.7-6.2,3.4-8.7-1.9-3.5.7-9.6,6.7-15.6,6.7-6.6,8.9-6.7,14.2-1l4,4.2,2.8-1.9c2.5-1.7,2.8-1.7,4-.1s3.4,14.3,3.4,20c0,2.6-.5,3.5-2.3,3.9-1.2.3-4.6,2.7-7.6,5.2-4.2,3.6-5.9,4.5-7.5,3.9-3.6-1.2-15.7-.4-17.3,1.1C208.2,563.6,205.5,563.4,203.5,561.1Z"></path>
                        </g>
                        <g id="Southern">
                            <path id="Adygeya" class="cls-1" data-name="Республика Адыгея" d="M24.8,793.3c-.7-1.5-1.5-3.1-1.7-3.5s.7-.7,2-.7a10.06,10.06,0,0,0,3.8-1c1.2-.8,1.3-1.3.3-3-2.1-3.3-1.5-4.6,2.6-6.5,3.8-1.7,6.7-5.7,5.6-7.6-.4-.5-2.1-.9-4-.9-3.8,0-8.1-3.7-9.1-7.8-.9-3.5.2-3.8,3.6-.9a10.21,10.21,0,0,0,7.1,2.7c3.6,0,4.1.3,5.5,3.5,2,4.8,3,15.7,1.6,18.1-1,1.7-1.2,1.6-2.2-1.4-.7-1.8-1.7-3.2-2.4-3.2s-3.1,3.3-5.6,7.5-4.7,7.5-5.1,7.5S25.6,794.8,24.8,793.3Z"></path>
                            <path id="AstrakhanOblast" class="cls-1" data-name="Астраханская область" d="M156.4,834.5c-6.6-.7-12.8-1.1-13.7-.8a4.72,4.72,0,0,1-3.3-.4c-1.2-.7-.7-1.6,2.9-5.2l4.5-4.3-2-3.9c-2.2-4.4-2.5-4.1,6.3-5.8,3.2-.7,6-1.5,6.2-1.9s0-2.9-.5-5.6c-.9-4.6-.7-5.1,2.6-10,1.9-2.8,3.5-5.4,3.5-5.8s-2.3-.7-5.1-.7h-5.2l.7-8c.4-5.1.2-9.5-.6-12.4-.6-2.5-.9-4.9-.5-5.3s4.3-.7,8.5-.6c6.6.1,7.9.5,9.4,2.3,2.2,2.7,2.3,4.6.3,6.6-1.6,1.6-1.8,4.7-.6,7.9.5,1.2.1,4-1,7.3-2.2,6.4-1.8,7.4,4.5,12.1,2.5,1.9,4.8,4.1,5,5a82.18,82.18,0,0,1,1.1,10.6l.7,9.1-4.2,1.7c-4.2,1.6-4.3,1.6-3.6,5.6C173,836.7,174.5,836.5,156.4,834.5Z"></path>
                            <path id="Chechnya" class="cls-1" data-name="Чеченская Республика" d="M76.7,873.7c-.9-1.8-1.3-3.8-1-4.3s5.6-4.2,11.7-8.1c10.8-7,11-7.1,12.8-5.2a6.23,6.23,0,0,0,3.7,2c3.5,0,2.4,3.8-1.5,5.7-2.7,1.3-3.8,2.6-5,6.3l-1.6,4.7-7.2.7c-3.9.4-7.9.9-8.8,1.1S77.7,875.9,76.7,873.7Z"></path>
                            <path id="Dagestan" class="cls-1" data-name="Республика Дагестан" d="M87.5,918.8a57.91,57.91,0,0,1-.6-9.2c0-6.6-.2-7.2-5.1-14.6-4.5-6.9-4.9-8.1-4.3-11.4.8-4.5,3-5.5,12.4-5.5,7.5,0,7.6-.1,10-6.5.9-2.2,2.5-4.5,3.7-5.1,4.4-2.1,5.4-3.7,5.1-7.3-.2-3.1-.7-3.7-3-3.9-2.7-.4-4.1-1.9-8.6-9.4l-2.2-3.6,8.6-4.7,8.6-4.8,5.4,5.4c5.9,5.8,6.3,6.6,3.7,7.6-4.9,1.7-5.3,2.9-4.6,14.3.7,12,.8,11.5-6.8,21.5l-3.8,5.1-.3,15.9-.3,16-5,1.1a51.46,51.46,0,0,1-8.6,1.3C88.8,921.1,88,920.7,87.5,918.8Z"></path>
                            <path id="Ingushetia" class="cls-1" data-name="Республика Ингушетия" d="M72.3,865.6c-.4-1,.2-2.6,1.6-4,2-2.1,2.2-3.1,1.6-8l-.7-5.5h7.4c9,0,13.4.8,14.1,2.5.4,1.1-3.7,4-21.1,15.3C73.2,867.1,72.9,867.1,72.3,865.6Z"></path>
                            <path id="KabardinoBalkaria" class="cls-1" data-name="Кабардино-Балкарская Республика" d="M50.5,839.8c-1-3.4-2.6-7.2-3.8-8.4l-2-2.2,5-2.5,5-2.6,5.4,3c2.9,1.6,8.3,4.5,12,6.5l6.7,3.5-2,3.4c-2,3.3-2,3.4-7.8,2.8a26.58,26.58,0,0,0-10.7,1.1,48.73,48.73,0,0,1-5.4,1.7C52.5,846.1,51.5,843.3,50.5,839.8Z"></path>
                            <path id="Kalmykia" class="cls-2" data-name="Республика Калмыкия" d="M120.6,837.8c-4.9-4.5-6.1-6.4-7.8-11.7a138.91,138.91,0,0,0-5.4-13.8c-1.9-4.1-3.8-9.3-4.1-11.6-.7-4.3-6.5-15.7-9.6-18.8-1-1.1-3.2-1.8-5.2-1.8-2.8,0-3.5-.4-3.8-2.3s-.8-2.2-3.4-1.9c-1.8.1-3.6-.4-4.2-1.2-1-1.1-.3-1.5,4-2.1,2.9-.4,6.1-1.4,7-2.2,1.5-1.4,1.9-1.1,4.3,2.7a49,49,0,0,1,3.9,7.4c2.3,6.2,3.1,6.9,8.8,7.3,5.4.5,5.5.4,6.8-2.7s1.4-3.2,6-2.5l4.8.6,3.7-6c2-3.4,3.4-6.6,3-7.1s-2.4-1-4.6-1c-3.3,0-4-.3-3.7-1.8s1.6-1.8,7.8-2c5.8-.3,8-.8,9.6-2.3,2.3-2.2,3.4-1.7,3.4,1.5s1.9,4.7,4.3,3.4c3.4-1.8,4.2.5,4.2,12.5v11.2l3.8.3c2,.2,3.7.7,3.7,1.2a16.44,16.44,0,0,1-2.5,4.5c-1.6,2.5-2.2,4.5-1.9,6.3,1.3,6.6,1.4,6.6-5.6,7.9-3.5.8-6.9,1.8-7.4,2.3s-.2,2.5.9,5l1.9,4.1-4.8,4.6c-4.8,4.7-4.8,4.7-2.7,6.4,2.8,2.3,2.7,3-1.1,5.6C128.5,843.9,127,843.6,120.6,837.8Z"></path>
                            <path id="KarachayCherkessia" class="cls-1" data-name="Карачаево-Черкесская Республика" d="M40.6,826c-2.3-1.8-14.2-20.7-13.5-21.4a40.19,40.19,0,0,1,5.3-2.5l4.9-2.1,3.1,3.7,3.2,3.7,3.3-1.7c4.5-2.2,5.3-2.1,7.2,1.2,1.6,2.6,1.6,2.8,0,3.8s-1.6,1.4,0,5.6l1.6,4.6-3,1.2a41.6,41.6,0,0,0-6.3,3.6C43.1,827.9,43,827.9,40.6,826Z"></path>
                            <path id="KrasnodarKrai" class="cls-1" data-name="Краснодарский край" d="M41.4,800.6c-1.5-1.9-3.2-3.5-3.9-3.5a37.94,37.94,0,0,0-6.8,2.8c-3.2,1.5-6.1,2.5-6.5,2.1a16.92,16.92,0,0,0-4.4-1.8c-4.3-1.4-4.9-3.4-4.9-17.3,0-7.1-.5-10.2-3.1-17.5-4-11.4-5.7-17.5-6.5-23.5-.6-4.3-.4-4.8,1.3-4.8,1,0,2.7,1.3,3.6,3,2.3,3.8,3.8,3.7,9.3-.2,4.1-3,4.7-3.1,10.8-2.5,7.6.7,8.4.1,8.8-6.9.3-5.4,0-5.2,8.5-3.9,2.9.5,3.2.8,2.7,3.3-.8,3.8,1.8,6.4,5,5.2,1.9-.7,2.8-.4,4.3,1.3,4.6,5.3,4.6,5.3,2.8,10.7l-1.7,5,3.7,5.5c2.9,4.3,3.6,6.3,3.3,9.2-.3,3.7-.4,3.8-4.5,3.8-3.8,0-4.5.4-6.8,3.7-2.9,4.3-3,5.4-.9,10.8,1.6,3.8,1.5,4-.5,5.7a15.87,15.87,0,0,0-3.4,5.8,11.08,11.08,0,0,1-4.5,5.8l-3,1.8Zm-8.5-8.3,4.3-6.7,1.4,3.2c1.8,4.4,3.7,4.1,5.7-1,1.3-3.6,1.4-5.6.7-11.8-1.6-12.3-3.5-14.9-10.9-14.9-1.4,0-3.8-1.2-5.4-2.7-2.4-2.3-3.1-2.5-5.3-1.5-3.4,1.6-3.2,5.6.6,10.7,2.1,2.7,4,4.1,6.1,4.5,4.8.7,4.4,2.5-1.3,4.8-5.2,2.2-5.4,2.6-3.5,7.3.6,1.2,0,1.7-2.3,2.2-1.9.4-3.1,1.2-3.1,2.2,0,2.8,5.1,10.5,7,10.5C28,799.1,30.3,796.6,32.9,792.3Z"></path>
                            <path id="NorthOssetia" class="cls-1" data-name="Республика Северная Осетия — Алания" d="M62.9,859.2c-6.6-1.7-7.6-2.7-9.4-8.7-.5-1.9,0-2.3,4.6-3.4a48.94,48.94,0,0,1,9.8-.9l4.5.4.3,5.8c.3,5.3-.8,8.9-2.7,8.6C69.7,860.9,66.5,860.1,62.9,859.2Z"></path>
                            <path id="StavropolKrai" class="cls-1" data-name="Ставропольский край" d="M80.2,845.2c-2.8-.3-2.8-.8-.3-4.6,2.7-4.2,2.6-4.9-1.7-6.9-2.1-1-7.4-3.8-11.9-6.3-7.5-4.3-8.1-4.9-9-9-.9-3.8-.8-4.3.7-4.3,3.2,0,3-1.9-.5-7.2-2-2.9-3.6-6.1-3.6-7.1,0-2.5,1.8-5.9,4.2-7.8,2-1.6,2-1.7.3-7.2-1.7-5.3-1.7-5.7-.1-8.2,1.2-1.8,2.4-2.5,4.4-2.4a11.09,11.09,0,0,0,5.1-1c2.1-1.2,2.7-1,6.5,2.8,3,2.9,4.8,3.9,6,3.5s1.9-.1,2.3,1.4c.4,1.8,1.3,2.2,4.7,2.2,3.9,0,4.3.2,8,6.1a35.66,35.66,0,0,1,5.2,12.2,62.68,62.68,0,0,0,4.7,13.3c4.6,9.3,6.1,14.5,4.4,16a69.16,69.16,0,0,1-8.2,4.9c-9,4.8-9.7,5.4-9.1,7.9.5,1.9.1,2.1-4.7,2.1A61,61,0,0,1,80.2,845.2Z"></path>
                            <path id="Rostov_Oblast" class="cls-1" data-name="Ростовская область" d="M104.4,785.3c-3.7-.5-5.5-1.9-5.5-4.4s-6.8-14.8-8.6-15.5c-.8-.3-2.4.6-3.5,2.1-2,2.5-2.6,2.6-8.7,2.4l-6.7-.3-.5-4c-.3-2.2-2.1-6.2-3.9-8.9l-3.3-4.9,1.7-5.2,1.8-5.3-3.7-4.6c-3.9-4.7-4.4-5-8.4-4.7-1.8.2-2.3-.2-2-1.6s1.3-1.8,5-1.8c2.6,0,5.3-.6,6-1.4,1.4-1.4.1-2.8-6.7-7.8-2.9-2.1-2.9-2.2-1.1-4.2,1.4-1.6,3.1-2.1,6.3-2.1,3.9,0,5,.6,10.5,5.6l6.1,5.7,3.1-3.5c1.7-1.9,4.7-5.7,6.6-8.3,2.6-3.6,4.5-5.2,7.5-6,6.4-1.9,8.3-3.3,9.5-7.3,1.9-5.7,2.5-5.9,8.2-2.3,4.4,2.7,5.8,3.1,8.8,2.6,7.5-1.5,7.3-1.6,8.9,5.3s1.8,6.8-5.4,11.8c-2,1.4-2,1.4.3,5.7s2.3,4.4.6,8-2,3.7-6.6,3.7c-5,0-10.8,2.2-10.8,4a13.07,13.07,0,0,0,1.6,4.1c1.3,2.6,1.4,3.9.5,7.5-1.5,5.7.2,11.7,3.9,14.4,2.1,1.5,2.6,2.5,2.2,4.9-.4,3-.3,3.1,3.8,3.1H126l-2.3,4.1c-2.3,4.1-2.3,4.1-7,3.5-4.5-.5-4.9-.4-6.3,2.4C108.6,785.5,108.2,785.7,104.4,785.3Z"></path>
                            <path id="VolgogradOblast" class="cls-1" data-name="Волгоградская область" d="M173.5,765.7c-1.5-3.5-3.3-4.2-13.1-4.9-3.3-.3-12.9,1.4-14.2,2.5s-1.6.6-2.7-4.5c-.8-3.6-2-3.4-5.7.8-3,3.3-3.4,3.5-9.9,3.5-9.1,0-11.5-1.1-13-5.6-.9-2.8-.9-4.6,0-7.9,1-3.6.9-4.8-.5-7.5-2.3-4.5-1.1-5.3,8.3-5.5,4.1,0,4.4-.3,7-4.9l2.6-4.8-2.1-3.8-2.2-3.8,4.1-3.4,4.2-3.5-1.3-5.9c-.7-3.3-1.5-6.8-1.7-7.9-.4-1.5.4-2.5,3.2-4,3.6-2,4.7-3.2,5.8-6.8.4-1.4,1.7-1.7,6.5-1.7,3.3,0,6.3.5,6.7,1.1a15,15,0,0,0,3.7,2.9,21.07,21.07,0,0,1,5.6,6.6c2.5,4.6,2.9,4.9,9.9,6.9,4,1.1,7.7,2.7,8.3,3.5,1.1,1.9,1.2,8.6,0,12.6s.1,6,4.5,6.8c2.6.5,4.1,1.6,5.6,4.2a13.9,13.9,0,0,0,5.1,4.9c2.1.8,3.4,2.4,4.3,5,.7,2.1,1.1,4.2.8,4.6s-4.2,2.8-8.8,5.3c-9.6,5.2-10.3,5.9-10.8,10.4-.2,2.6-1.1,3.7-4.5,5.7l-4.2,2.5Z"></path>
                        </g>
                        <g id="Northwestern">
                            <path id="NenetsAutDistrict" class="cls-2" data-name="Ненецкий автономный округ" d="M517.2,483.2c-18.3-8.1-24.8-11.5-37.7-20.1-11.8-7.7-16.2-10.1-17.9-9.7-2,.5-30.3.6-46,.2-3.7-.1-7.1-.6-7.6-1.1s-3.7-6.3-7.1-12.8c-5.1-9.5-6-12-4.9-12.8.8-.5,2.9-1.8,4.8-3l3.3-2.1-.6-6.9-.7-6.8,4.3-1.9c5.9-2.5,14.8-12.3,14.8-16.2,0-1.5.4-3.1.9-3.4,1.6-1,6.3,3.7,8.2,8.2,2.4,5.7,2.4,9.5,0,11.7-1.9,1.7-2.2,1.7-7.1,0s-5-1.8-9.5.4c-2.5,1.2-4.8,2.9-5.2,3.8-.6,1.7,1.4,17.3,2.5,19.1.8,1.2,10.9,5.3,13.2,5.3.9,0,4-2.5,7-5.5l5.4-5.5h28.3c15.7,0,28.4.4,28.7.9s-1.9,2.3-4.9,4-5.8,3.8-6.2,4.7c-.6,1.6,5.9,9,9.2,10.3,1.3.5,4,.1,7.4-1.1,6.8-2.3,8.8-2.3,15.1.2,4.1,1.6,6.3,1.8,12.6,1.3l7.6-.6-.7,4.6c-.7,4.4-.6,4.7,2.1,5.8,4.8,2,9.7,1.4,14.4-1.7l4.3-2.9-.6-6.7c-.5-5.3-.2-7.1,1-8.3,1.6-1.7,1.4-1.7,17,7.2a24.79,24.79,0,0,1,7.4,7.4l3.2,5-2.1,2.9c-2.7,3.6-2.7,3.2.5,10.7,1.4,3.5,2.3,6.6,1.9,7s-2.1.1-3.9-.6c-3.1-1.2-3.3-1.1-6.9,2.9a15,15,0,0,1-7.9,5.1,25.39,25.39,0,0,0-8.3,4.3,27.81,27.81,0,0,1-10.2,5c-3.4.9-6.3,1.5-6.5,1.5S529.4,488.5,517.2,483.2Z"></path>
                            <g id="ArkhangelskOblast" class="cls-1" data-name="Архангельская область">
                                <path d="M358.9,550.1a19,19,0,0,0-5.3-.9,6.8,6.8,0,0,1-4.9-2.7c-1.8-2.2-2.5-2.5-5.9-1.9l-3.9.6v-3.9c0-3.1-.4-4.1-1.9-4.5-1.1-.3-2.9-2.4-4-4.6-2.1-4.1-4.1-5-7-3.2a6.53,6.53,0,0,1-4,.1c-2.1-.5-2.7-1.4-3.1-4.6s-.9-3.9-2.5-3.7c-1.1.2-4,.6-6.5.9-4.3.6-4.7.4-7.2-2.9-1.7-2.2-5.4-4.7-10.2-7-5.8-2.8-7.7-4.2-8.2-6.2a4.12,4.12,0,0,0-3-3.1c-2.8-.7-15.4-13.8-15.4-16a34.06,34.06,0,0,1,2.5-7.4c1.4-3.3,2.5-6.6,2.5-7.5s1.8-2.4,3.9-3.5c3.5-1.7,4.1-2.6,5-7.1a20.93,20.93,0,0,1,3.6-8.1c2.3-2.8,2.4-3,1-7.6-2.5-8.2-2-10.8,3.4-18,2.1-2.7,3.1-3.2,6.7-3.2,3.3,0,4.3.4,4.7,1.9.4,1.8,6.1,6.1,7.9,6.1,1.1,0,7.8-6.1,8.9-8.1.6-1.2.5-3.3-.3-6.2-1.4-5.3-.2-12.5,2.4-14.1s3.7.1,4.7,9.2l.9,8.3,6.4,6.7c8.4,8.8,10,9,12.7,1.5,5-13.9,6.8-15.2,21.6-15.2,12.9.1,13.2.2,16.6,8.4,4.1,9.5,5.1,10.4,8.9,8.2l2.9-1.8,7.1,13.5L407,456l6.2-.6c4.5-.4,6.7-.1,8.1.9,1.7,1.3,1.6,1.7-2.1,9.3l-4,8,2.2,7.2c1.9,6,2,7.5,1,9-1.2,1.5-1.8,1.6-5.9.5a38.7,38.7,0,0,0-8.7-1.2c-3.4,0-4.7-.7-8.9-4.8a60.28,60.28,0,0,0-11.4-8.2c-6.1-3.2-6.7-3.3-10.5-2.2-2.3.7-4.1,1.9-4.1,2.6s1.4,4.3,3,7.8c2.6,5.6,2.9,6.9,2,9.4-.7,1.6-.9,4.9-.6,7.5.7,5.1.9,4.9-5.5,6.2-2.1.5-2.9,1.7-4.9,8.2l-2.4,7.6,3,2.4c4,3.3,5.6,3.1,9.3-1.5,2.7-3.4,3.8-4,7-4,3,0,4.2.5,5.4,2.3,1.5,2.3,1.3,2.6-6.9,10.8-7.3,7.1-8.4,8.8-8,11C371.4,549.8,366.3,552.4,358.9,550.1Z"></path>
                                <path d="M531.8,393.1c-4.3-3.3-7.9-7-8.2-8.2s-1.5-7.3-2.6-13.4c-1.9-9.7-1.9-11.6-.8-15,1.1-3.2,2.1-4.2,5.2-5.2,2.3-.8,7.4-4.7,13.3-10.3,8.4-7.9,9.9-8.9,12.3-8.4s3.2-.1,7.4-5.5a50.24,50.24,0,0,1,9.3-9.2c2.6-1.8,9-6.4,14.2-10.3s10.7-7.9,12.1-8.9c3.1-2,23.3-5.2,42.3-6.7a144.25,144.25,0,0,0,21.2-3.1c4-1.2,7.9-1.8,8.8-1.5,2.8,1.1,1.8,6.3-1.9,10s-3.8,3.8-26.1,6.2c-16.2,1.7-20.8,3.4-34.2,12.3a86.07,86.07,0,0,1-11.6,6.1,68.19,68.19,0,0,0-12.5,7.8c-3.6,3-10.2,8.1-14.6,11.4-8.4,6.2-18.9,17.4-23.2,24.7-2.5,4.2-2.5,4.7-2,16.5.3,6.7.7,13,.9,14.1C541.7,399.9,539.5,399.1,531.8,393.1Z"></path>
                                <path d="M665.4,185.6c-1.9-4.9,1.5-8.6,6-6.6,2.9,1.4,3,2.2.3,5.5C669.4,187.5,666.3,188,665.4,185.6Z"></path>
                                <path d="M682,185.6c-2.7-1.2-3.1-1.8-2.2-3.3,1.4-2.6,10.9-5,12.1-3,1.8,2.8.9,5-2.6,6.4-1.9.8-3.6,1.4-3.7,1.4S683.8,186.4,682,185.6Z"></path>
                                <path d="M652.8,183.7c0-4.3,6.9-4.6,7-.3,0,.8-4.3,2.8-6.1,2.8C653.2,186.2,652.8,185.1,652.8,183.7Z"></path>
                                <path d="M651.9,171.5c-2-7.1-1.2-7.6,7.3-4.7,4.4,1.5,4.7,1.8,4.4,4.7-.3,3.1-.5,3.2-5.5,3.5l-5.2.3Z"></path>
                                <path d="M613.5,168.2c-1.7-1.9-1.7-2,1.6-3.3,12-5,18-6.9,18.9-6s.2,8.3-.7,8.3c-.2,0-3.8.6-8.1,1.5C615.4,170.6,615.6,170.6,613.5,168.2Z"></path>
                                <path d="M659.3,161.8l-3-1.3,5.5-1.7c4.7-1.4,5.6-1.5,6.9-.2s1.2,1.7.1,3C667.3,163.5,663.4,163.5,659.3,161.8Z"></path>
                                <path d="M619.4,156.2c-.3-.6-2.2-1-4.1-1-4.2,0-4.4-1.9-.5-4.8l2.9-2.1,5.6,2.2c3.1,1.2,5.5,2.5,5.5,3,0,.8-6,3.7-7.8,3.7A2.34,2.34,0,0,1,619.4,156.2Z"></path>
                            </g>
                            <path id="KaliningradOblast" class="cls-1" data-name="Калининградская область" d="M24.2,430.4c-1.6-2.1-6-8.3-9.8-13.7C7,406,7,405.1,14.1,405.1c3.1,0,4,.5,5.7,3.3a33.68,33.68,0,0,0,4.1,5.2c2,1.8,2.1,1.8,5-.3,1.8-1.4,3.1-1.8,3.5-1.2,1.1,1.7,5.5,16.3,5.5,18.2,0,2.1-.5,2.4-6.1,3.3C27.4,434.2,27.1,434.1,24.2,430.4Z"></path>
                            <path id="LeningradOblast" class="cls-1" data-name="Ленинградская область" d="M208.1,485.9a4,4,0,0,1-1.2-2,87.54,87.54,0,0,0-4.2-9.8l-4.1-9h-3.9c-3.5,0-3.9-.3-3.3-2,.4-1.3-.2-3.4-1.5-5.5-2.2-3.6-3.8-4.1-9-2.6-3.9,1.1-10.8-.6-13.6-3.4-2.4-2.4-2.6-2.5-5.4-1a20.19,20.19,0,0,1-3.4,1.5c-.2,0-.7-2.6-1-5.8a84.17,84.17,0,0,0-2.8-12.5c-2.6-7.8-2.4-8.1,4.8-9.2,3.2-.5,5.5-.1,9.3,1.5,5.3,2.3,6.2,3.7,7.7,12.2.6,3.5.8,3.7,5.8,4.3a52.46,52.46,0,0,0,8.6.3c3.1-.3,3.7-.9,6.1-5.8,1.5-3.1,2.5-5.9,2.2-6.3s-3.2-2.3-6.8-4.2c-4.7-2.7-6.6-4.4-7.4-6.7-1.6-4.7-1.4-5.6,2.3-9.4,3-3.2,3.9-3.5,7.8-3.2,4.2.3,4.4.5,7.2,6,1.6,3.2,5.6,11.9,9,19.5l6.1,13.8,5.8.8c5.4.8,6,.7,8.4-1.5l2.5-2.3,2.4,3c1.3,1.6,3.8,4.8,5.4,7.1l3,4.2-3.6,1.2c-2,.7-6.9,4.1-10.9,7.6-5.8,5.1-7.4,7.1-7.7,9.6s-1.3,3.7-6.3,6.9C209.5,487.5,209.7,487.4,208.1,485.9Z"></path>
                            <path id="Karelia" class="cls-1" data-name="Республика Карелия" d="M267,463.7c-2.9-3.1-4-3.5-10.5-4.1l-7.3-.7-6.9-9.4c-3.8-5.1-7.5-9.4-8.1-9.4s-2.3,1.1-3.5,2.5c-2.1,2.4-5.1,3-9.4,1.9-1.7-.5-4-4.6-9.8-17.8-4.2-9.4-7.6-17.7-7.6-18.4,0-.9,2-1.2,6.8-1.2,8.2,0,34.2-4.6,35.8-6.3.7-.7,1.9-5.9,2.8-11.7s2-10.8,2.4-11.3a23.51,23.51,0,0,1,5.3-2c4.2-1.2,4.7-1.8,9.9-11.1,5-8.9,6-10.1,11.5-13.3,7.7-4.5,9.8-6.5,14.7-13.6,2.1-3.1,4.3-5.7,4.8-5.7s3.3,1.6,6.1,3.6c4.7,3.4,5,3.9,4.4,6.8-1.5,6.3-.1,9.6,4.1,9.6,2.7,0,2.8.5,4.5,12.4l1.2,9-2.8,2c-5.9,4.2-10.3,8.7-16,16.2l-5.9,7.6,1.9,9.1c1,5,2,9.9,2.3,10.9.4,1.5-.2,1.8-4.1,1.8-4.2,0-4.7.3-8.6,5.3s-4.1,5.7-4,11.8a53.13,53.13,0,0,0,.8,8.9c.6,1.8.2,3.2-1.4,5.1a16,16,0,0,0-2.9,7.3c-.6,3.7-1.3,4.9-3.6,6.1-1.6.8-3.1,1.5-3.2,1.5A30.29,30.29,0,0,1,267,463.7Z"></path>
                            <path id="KomiRep" class="cls-1" data-name="Республика Коми" d="M453.4,591.3c-10.2-4.1-14.9-4.5-26.7-2.3-7.2,1.3-8.2,1.3-14.5-.5-6.5-1.8-6.9-2.1-9.4-6.9l-2.5-5-7.5-.7c-10.4-.9-10.9-.7-10.9,5.3,0,7.1-2.1,7.7-15.2,4.4-10.7-2.6-11.6-2.5-15.7,1.9-1.4,1.4-3,2.6-3.6,2.6-1.2,0-4.5-9.9-4.5-13.5,0-1,1.5-3.5,3.4-5.5,2.6-2.9,3.8-5.7,5.2-11.5l1.8-7.7,3.6.6c11,2.1,11.6,2,14.3-1.6,1.7-2.2,2.4-4.2,2.1-5.8-.4-2.1.9-4,8.1-11,4.7-4.7,8.5-8.9,8.5-9.3s-1.2-2.4-2.7-4.3c-2.5-3-3.3-3.4-7.5-3.4s-4.9.3-8,4.1-3.7,4-5.6,3c-2.6-1.4-2.6-2-.3-8.6,1.6-4.7,2.1-5.1,6.2-6.1l4.4-1.1-.3-6a27.36,27.36,0,0,1,.8-8.8c.9-2.4.6-3.8-2-9.3-2.4-5.1-2.8-6.8-1.8-7.4,2.3-1.4,4.6-.9,10,2.3,8.3,4.9,10.9,6.9,11.9,9.5.7,2,1.5,2.4,5.3,2.4a45.45,45.45,0,0,1,10.8,2c3.5,1,6.4,1.9,6.5,2a35.59,35.59,0,0,0,2.7-3.6l2.4-3.6-2.4-7-2.3-7,2.6-5.2c1.4-2.8,3.6-6.7,4.9-8.7l2.3-3.7,18.4.2,18.4.1L480,466.7c10.9,7.1,19.4,11.8,28.9,15.8,7.4,3.2,15.3,6.6,17.5,7.5,14.5,6.5,12.8,6.2,20.5,4.1a26.3,26.3,0,0,0,11-5.3,16.33,16.33,0,0,1,8-4c2.8-.4,4.7-1.5,7.1-4.1,4.6-5.3,9.5-4.5,5.4.9-2.1,2.9-1.8,5.3,1.1,7.8l2.5,2.2-2.8,4a49.47,49.47,0,0,1-7.3,8.2c-4.2,3.8-5.4,4.3-14,5.8-9.4,1.6-14.3,3.8-18.6,8.6-.9,1-4.8,2.8-8.5,3.9a52.84,52.84,0,0,0-12.9,6.2c-5.5,3.8-6.2,4.1-7.1,2.5-1.6-2.8-3.1-2.1-9.8,4.6-5.4,5.5-6.3,7-6.7,10.7a24.49,24.49,0,0,1-.6,4.4c-.2.1-3,2.3-6.4,4.9-5.9,4.5-6.3,5.1-10.8,16.4-7.2,17.7-9.8,22.7-12.1,22.9C463.3,594.8,458.4,593.3,453.4,591.3Z"></path>
                            <path id="MurmanskOblast" class="cls-1" data-name="Мурманская область" d="M356.2,396.7c-6.3-2.6-8.3-4.4-13.9-12.2-5.7-8-10-19.9-12.1-33.7-1.6-10-2-11.3-3.9-11.5-1.5-.2-3.3,1.1-6.3,4.7s-5,5.1-6.7,5.1c-3.2,0-3.8-1.8-1.9-6.3,1.4-3.5,1.4-3.6-1.3-5.9a73.23,73.23,0,0,0-6.5-4.8c-4-2.7-4.3-3.6-2.5-7.5,1.2-2.7,1.5-2.9,10.3-4.6,8-1.5,10.1-3,10.9-7.6,2.5-14.4,3.7-18.1,6.4-19.3,9.8-4.5,13.1-5.1,25.1-4,17.8,1.6,18.1,1.7,18.1,4.5,0,2.1-.5,2.5-3,2.5-1.7,0-3.3.6-3.6,1.4-1,2.5,2.5,12.6,7.7,22.6,4.7,8.9,5.1,10.2,6.5,22,.8,6.8,2.4,15.1,3.5,18.4,2.3,7.1,2.3,11.9.1,25.1l-1.7,10-6,1.6C367.4,399.5,362.4,399.3,356.2,396.7Z"></path>
                            <path id="NovgorodOblast" class="cls-1" data-name="Новгородская область " d="M205.4,502.5c-3-1.9-4.9-2.4-7.5-2-3.2.5-4,0-9.2-5.2l-5.8-5.7-4.2,1.7c-2.4.9-5.7,2.2-7.4,2.9-2.6,1-3.7,1-6.5-.4a64.37,64.37,0,0,0-10.9-2.8c-6-1-8.2-1.8-10.7-4.2l-3.2-3.1,6.6-7.4,6.6-7.3-1.2-3.9a27.85,27.85,0,0,1-1.1-6.3c0-2.2.5-2.6,3.8-3a25.23,25.23,0,0,0,6.8-1.8c2.8-1.1,3.4-1.1,5.3.8,2.7,2.4,9.6,3.7,15.3,2.7,4.8-.8,6.7,1.1,6.8,6.8,0,3.7.1,3.8,4,3.8h4l4.1,8.7c5.2,11.3,5.5,12.7,3.4,16-1.7,2.5-1.7,2.7.2,4.2,1.2.9,2.8,2,3.8,2.6a3.2,3.2,0,0,1,1.4,3.2l-.4,2.1Z"></path>
                            <path id="PskovOblast" class="cls-1" data-name="Псковская область" d="M118.1,501.3c-4.4-8.6-12.1-29.2-11.5-30.9.9-2.6,13.3-23.5,15.1-25.6a7.11,7.11,0,0,1,4.6-1.7c4.2,0,6.7-1.9,10.5-7.9,3.1-4.8,6.8-7.1,11.1-7.1,2.4,0,5.8,9.1,6.6,17.7l.7,7.3h-2.5c-3.7,0-5.1,2.3-4.5,7.2a39.35,39.35,0,0,0,1.2,6.3c.4,1.4-.7,3.3-4,7-12.2,13.2-13.3,14.8-14.4,20.9-.6,3.3-1.1,6.1-1.1,6.3,0,.8-6.6,4.3-8.1,4.3C120.9,505.1,119.2,503.4,118.1,501.3Z"></path>
                            <path id="SaintPetersburg" class="cls-1" data-name="Санкт-Петербург" d="M179.6,439.3c-.7-1.1-1.8-8.2-1.4-8.2a40,40,0,0,1,4.2,1.5c4.7,2,6.9,1.3,6.3-2-.3-1.4-.1-2.5.4-2.5.7,0,4.4,2,6.7,3.7.2.1-.4,2.1-1.4,4.3l-1.8,4h-6.3C182.9,440.1,179.8,439.7,179.6,439.3Z"></path>
                            <path id="VologdaOblast" class="cls-1" data-name="Вологодская область" d="M304,564.7c-6.2-2-6.8-2.5-11.8-9.6-4.3-6.1-6.3-8-11-10.4-5.5-2.8-6.1-2.9-15.3-2.2-6.7.5-10.4,1.2-12.8,2.6-1.9,1.1-3.7,1.8-3.9,1.6s-1.1-4.8-1.8-10.2c-1.1-7.4-1.9-10.2-3.6-12.1-2.5-2.6-4-2.9-7-1.1-1.8,1.1-2.4.9-5.1-2.6a18.07,18.07,0,0,0-5.5-4.7c-1.8-.7-2.3-1.6-2.3-4.2,0-4.4-1.5-5.7-6.7-5.7-4.2,0-4.3-.1-4.3-3.3,0-2.4-.8-3.9-3.2-5.9-3.2-2.6-3.3-2.7-1.3-4.8,1-1.2,4.6-3.8,8-5.7,8.3-5,9.5-6.2,9.5-9.4,0-2.1,1.4-4,6.3-8.3,3.5-3,7.5-6,8.8-6.5,1.6-.6,6.3-.6,11.9-.2,9.1.8,9.5.9,12.7,4.4l3.3,3.6-3,8.1a87.71,87.71,0,0,0-3,9.3c0,1.7,15.2,17.7,16.8,17.7.7,0,1.7,1.1,2.2,2.4.6,1.7,3.4,3.7,8.7,6.4,5.1,2.6,8.9,5.3,11,7.9l3.2,4,5.1-1c5.7-1.1,7-.4,7,4,0,2.7,3.4,3.8,8.9,2.9,3.6-.6,4-.4,5.1,2.5a13,13,0,0,0,3.7,4.6c2.3,1.5,2.9,4.5,1.7,7.7-.3.8-3.3,2.7-6.5,4.2-6.1,2.7-7.2,4.7-4.2,6.9,1.4,1,1.6,1.8.7,4.1-.9,2.6-1.3,2.8-5.2,2.6-2.6-.2-5,.2-6.4,1.2C312,567.4,312,567.4,304,564.7Z"></path>
                        </g>
                        <g id="FarEastern">
                            <path id="AmurOblast" class="cls-1" data-name="Амурская область" d="M1313.5,788.9c-5.6-5.1-15.6-14.2-22.2-20.3-22.6-20.8-21.8-20.3-28.5-21-4.9-.6-6.5-.4-8.7,1s-4,1.6-11.9,1c-10.1-.7-12.4,0-22.2,6.7-5.2,3.6-7,3.3-13.2-2.2l-4.5-3.9,1.8-3c2.4-4,2.2-5.4-1.1-7.9-2.1-1.5-3.3-3.8-4.6-8.4-3.2-11.6-3.7-12.8-5.5-12.8-1,0-2.8,1.1-4.1,2.5s-2.6,2.5-3,2.5-2-2.1-3.8-4.5-3.7-4.5-4.4-4.5-2.4,1.2-4,2.6c-3.5,3.4-5.9,2-5.1-3,.5-3,.2-3.4-4.6-6-2.8-1.5-5.1-3.3-5.1-3.9s2.3-2.8,5.1-4.7c4.8-3.2,5.3-3.3,9.2-2.4,6.5,1.7,19.3.8,26.8-1.8l6.7-2.2,4.9,3.2c6,3.8,7.4,3.9,14.9.6,4.6-2.1,6.9-2.5,10.5-2.1,4.4.5,5.2.2,13-5,5.1-3.4,11.2-6.5,15.3-7.7,4.4-1.4,7.3-2.9,8-4.1,3.9-7.2,6-9.5,9.3-10.1,2.1-.4,6.8-3.4,11.9-7.4,11.1-8.8,12.8-9.6,16.2-8.4,3.9,1.3,4.1,6.2.4,15.5-2.7,6.9-6.2,23.2-6.2,29.2,0,3.2.6,3.2,8.8.7a53.93,53.93,0,0,1,7.6-2c.7,0,2.3,1.8,3.5,4s2.7,4,3.3,4,5.3-3.2,10.5-7c8.6-6.6,9.3-7.3,9.3-10.5s.3-3.5,2.4-3.5c1.7,0,3.9-1.6,7-5.2l4.5-5.1,3.1,6.9c1.8,3.8,3.8,8.3,4.6,10l1.3,3.2-7.9,3.2c-4.4,1.7-8,3.7-8,4.3s1.4,2.5,3.1,4.3l3.1,3.2-2.5,2.2a10.89,10.89,0,0,0-3.2,6.3,52.34,52.34,0,0,1-3.7,10.3c-2.8,5.9-3,6.8-2.6,17,.3,9.9.6,11.3,3.1,15.1,2.6,4.1,2.9,4.3,8,4.3s5.5.2,10.5,5.3c2.9,2.9,5.2,5.9,5.2,6.6a69.51,69.51,0,0,1-2.1,9.2c-1.6,5.9-2.6,8-4.1,8.4-1.1.4-6.2.1-11.2-.6-8.6-1.1-9.4-1.1-14.1.9s-18,6.2-19.8,6.2C1324.1,798.1,1319.2,793.9,1313.5,788.9Z"></path>
                            <path id="JewishAutOblast" class="cls-2" data-name="Еврейская автономная область" d="M1390.7,808.3c-.9-.4-4-3.6-7-7.1-9.6-11.3-9-10-7.5-16.5a46.7,46.7,0,0,1,1.7-6c1.6-1.3,20.9-11.6,21.8-11.6a15.61,15.61,0,0,1,4.6,1.7c3.5,1.6,4,1.6,12.6-.6,4.9-1.3,9.2-2.2,9.5-1.9s-2.3,4.6-5.6,9.7-7.3,11.7-8.9,14.8c-3.3,6.6-13.4,16.9-17.1,17.7A9.06,9.06,0,0,1,1390.7,808.3Z"></path>
                            <path id="KamchatkaKrai" class="cls-2" data-name="Камчатский край" d="M1508.14,425.9c-3.57-13.84.17.1-1.83-8.8s-1.71-9.7-6.11-13.6l-4.6-4.1,1.7-7.2c2.1-8.6,2.9-5.5-10.7-44.1l-10.1-28.5-.7-12.8c-.9-14.9-1.3-15.9-10.7-22.6-3.6-2.5-7.6-5.5-9-6.6l-2.3-2,2.5-4.8c3.6-6.7,2.8-8.7-3.5-8.7h-4.9l-4.6,8.5c-3.3,6.1-4.5,9.2-4.1,10.8.4,1.2,3.6,4.6,7.1,7.5,4,3.2,6.5,6.1,6.5,7.2s-.3,2-.7,2-3.9-3.1-7.8-6.9c-7.6-7.4-11.6-9.5-15.3-7.8-2.8,1.2-3.3.7-6.2-6.6-2-5.3-2.5-5.7-5.4-5.7-4.2-.1-4.8-.6-8.6-7.3-2.8-5.1-3.6-5.8-7.1-6.4s-3.9-.9-3.9-3.3c0-3.3,3.2-7.7,11.3-15.4a68.53,68.53,0,0,0,9.2-11c2.5-4.2,3.5-5.1,6.3-5.4a5.37,5.37,0,0,0,5-3.2c1.4-2.4,2.9-3.1,8.4-4.4,10-2.3,9.9-2.3,14.2,5.5,2.1,3.9,4.4,7.3,5.2,7.6s3.6-1.3,6.2-3.5c4.6-3.8,5.3-4.1,12.2-4.3l7.3-.3,1.8-6.5a51,51,0,0,0,1.9-9.6c0-1.7,1.1-5.9,2.5-9.4s2.5-7.9,2.5-9.7v-3.3h5.8c3.1,0,6.2.3,6.8.7s4.1,11.3,7.8,24.3c4.4,15.6,7.6,25.1,9.6,28.3a26.31,26.31,0,0,1,3,5.6c0,.4-4,2-8.9,3.4s-9.3,3.2-9.8,3.8-1.5,6.3-2.1,12.5c-.9,9.4-.9,11.7.3,14.7,2.3,5.5,1.9,5.9-3.1,3.2-8.8-4.9-9.8-3.2-4.9,8.3a81.1,81.1,0,0,1,3.5,9.2c0,.5-1.8,3.2-4,6s-4,5.4-4,5.8c0,2.3,24.4,39.7,26.7,40.9,1,.5,4.1.6,6.8.3l1.67-3.1.69-4.37c2.24-2.51,3.62-1.71,5.22-2.21,2.1-.6,3.42,1.78,5,4.68.6,1.2,3.59,2.71,5.3,5.48,6.45,4.37,14.65,2.64,20.67,5.62-2.31,9-1.57,19.15-2.32,14.74-1.49-8.76,2.57,4.87,6.17,11.37l16,5.19,1,6.54c-7.7,6.6-4.8,25.26-5.46,24.14-3.74-6.26-.27.13,15.49,10.26,4,2.7-1.18,20.31,3.8,26.89,8.35,8,9.09,9,13,16.65l5,21.51-87.73-43c-5-4.68-10-11.27-10.32-11.17S1511.24,429.3,1508.14,425.9Z"></path>
                            <path id="KhabarovskKrai" class="cls-1" data-name="Хабаровский край" d="M1443.4,797a15.88,15.88,0,0,1-1-9c.6-4.6.4-5.2-4.5-12.8a115.3,115.3,0,0,1-6.1-10.6c-.5-1.4-1.3-2.5-1.7-2.5s-5,1.3-10.2,3c-11.1,3.5-11.1,3.5-16.2.9l-4-2-9.8,5.5c-5.5,3.1-10.2,5.6-10.5,5.6s-.6-.7-.6-1.6-2.9-4.5-6.5-8c-6.2-6.1-6.8-6.4-11.4-6.4-4.4,0-4.9-.3-6.8-3.8-1.5-2.7-2.2-6.1-2.5-12.7-.4-8.5-.3-9.4,2.9-16.3,1.8-4,3.3-8.4,3.3-9.8s1.4-3.9,3.1-5.8c2.5-2.9,2.8-3.9,2-5.5a8.36,8.36,0,0,0-2.9-3c-2.3-1.4-1-2.5,6.3-5.5,3.3-1.3,6.4-3,6.8-3.8.9-1.5-9.5-24.8-11.1-24.8-.5,0-3,2.4-5.6,5.4-3.9,4.5-5.3,5.5-8.4,5.8-3.7.3-3.7.3-3.4,4.4s.3,4.2-7.2,9.8c-4.2,3.1-8,5.6-8.5,5.6s-1.9-1.7-3-3.7c-2.4-4-3.4-4-13.3-.9-4.4,1.4-4.8,1.3-4.8-.2,0-4.7,3.3-19.6,6.2-27.5,2.6-7.4,3-9.5,2.2-12.5-.8-3.2-1.5-3.9-5.1-5.2l-4.3-1.5-7.5,5.3c-4.1,2.8-7.9,5.2-8.4,5.2-1.1,0-4.1-9.8-4.1-13.5a13,13,0,0,1,1-4.6c2-3.7.1-6.8-6.7-10.7l-6.4-3.7.7-4c1.1-6.6,1.1-6.8-2.9-9.4-3.2-2.2-3.6-2.7-2.3-3.9,1.1-1.2,1.3-4.2.9-15.6l-.5-14.1,9.9-5.1,9.8-5-.2-6-.2-6.1,6.2-1.9,6.2-1.9.5-7.5.5-7.5,3.5-.4c6.9-.6,6.8-.8-5.3-16.4-6.4-8.2-7.7-10.5-8.6-15.4-1.4-7.4-1.5-6.7,2-10.8,3.5-3.9,3.4-5-1.1-12.5a70.89,70.89,0,0,1-4.1-8.4c-1.2-3.2-1.1-3.8.4-5.4,1.4-1.3,3.2-1.7,8-1.4a43.47,43.47,0,0,0,10.7-1.1c3.8-1.2,4.9-2.1,7-6.1l2.5-4.6H1330l-.7-5.3-.6-5.2,4.9-3.8c4.9-3.7,5.1-3.8,9.7-2.7,7.2,1.6,12.1,4.6,15.4,9.3l3,4.4-2.9,4-2.9,3.9,2.5,3.7c2.8,4.1,4.8,4.5,8.4,1.7,2.2-1.7,4.1-2,14.8-2,9.9,0,12.2.2,12.2,1.4,0,.8-2.2,2.1-5.2,3.1-6.9,2.3-7.9,3.2-7.6,6.8.3,2.8-.1,3.2-4,4.6-2.4.9-4.9,2.5-5.5,3.6s-5.2,6.9-10.2,13-9.6,11.7-10.4,12.7c-1.1,1.5-1,2.6,1,7.3,2.5,6,2.4,7.3-1.6,17.6l-1.8,4.6,3.7,6,3.8,6.1-3.1,12.4-3.1,12.5,1.6,14,1.6,14.1-4.6,21.6c-2.6,11.9-4.4,22.1-4.1,22.6s2.6,1,4.9,1c3.5,0,5.7-.9,10.9-4.5,3.7-2.5,7.1-4.5,7.6-4.5s2.9,2.2,5.3,5c5,5.8,8.1,6.6,8,2a24.43,24.43,0,0,0-.6-2.7c-.5-1.7-.1-2.5,1.5-3.4,2.7-1.4,4.1-.1,5.8,5.8.8,3,1.7,4.3,3,4.3,2,0,11.1-9.2,11.1-11.1,0-.7-1.4-3.7-3.2-6.7l-3.1-5.5,4.2-4c4-3.7,4.5-3.9,8.9-3.3,2.6.3,8.9.9,14,1.2,9.9.6,9.4.3,10.4,6.8.2,1.2,3.4,3.6,8.8,6.6l8.5,4.7,1.7,7.9c2.6,12.5,8.5,24.1,17.9,35a170.7,170.7,0,0,1,15.1,21.2l7.1,11.6.7,14c.4,7.8.3,14.5-.1,15-1.1,1.2-3.9-1.2-3.9-3.5,0-1.7-10.1-9.9-12.1-9.9-1.6,0-10.9,13.5-10.6,15.4.1,1.2,1.9,3,4.1,4.2,3.1,1.7,4.5,2,7,1.3,1.7-.5,3.2-.9,3.4-.9a47.6,47.6,0,0,1,.2,6v6h-3.1a12.72,12.72,0,0,0-5,1c-1.9,1.1-1.9,1.3,1.2,6.7l3.2,5.6-4.1,3.8c-4.1,3.8-4.2,3.9-12.1,3.9h-8l-3.6,5.5c-3.7,5.9-4.1,7.4-2.4,9.2,1.2,1.1.5,3.3-1,3.3C1445.4,801.1,1444.3,799.2,1443.4,797Z"></path>
                            <path id="MagadanOblast" class="cls-2" data-name="Магаданская область" d="M1360.6,461.6c-.9-2.1-.7-3,1.7-6.1l2.7-3.6-3.6-5.4a25.57,25.57,0,0,0-16.6-10.9l-5.1-1.1c-.9-.3-3.7,1.1-6.2,3.1s-5.2,3.3-5.7,3-1-2.2-1-4.2c0-3-1-4.6-6.9-10.7-8.8-9.1-12.1-15.5-12.1-23.5v-5.9l6.6-3.4c3.7-1.8,6.9-3.9,7.2-4.6s-1.4-3.3-3.7-5.7l-4.2-4.2,5.8-5.2c4.2-3.7,6.4-5,7.8-4.6,1.1.3,3.2.8,4.7,1.1l2.7.6-.6-5.1c-.5-4.8-.4-5.3,3.4-9.8,2.2-2.7,4.3-5.4,4.7-6.1s-1.7-3.7-5.4-7.8l-6.2-6.6.7-4.8c.6-4.7.6-4.8-3-7-2.9-1.8-3.5-2.7-3-4.4,1.8-5.8,1.7-6.3-1.4-8.6-1.7-1.2-3.1-2.5-3.1-3s3-2.7,6.6-5.1,7-5.3,7.5-6.6c.6-1.7,1.6-2.3,3.8-2.3,3.6,0,3.6,0,5.4-7.9,1.4-5.8,1.3-6.3-.5-8.6s-1.8-2.4.1-3.5c1.4-.7,2.2-.6,3.3.7a32.62,32.62,0,0,0,5.1,4.3l3.7,2.8,9.1-3.4c5.6-2.1,10.6-4.7,12.9-6.8,2.9-2.6,4.9-3.5,9.2-4.1a19.92,19.92,0,0,0,8.9-3.1c5.3-3.9,7.4-3.3,11.7,3.6,3.2,5.2,4.1,6,6.8,6,3.7,0,4.4.8,6.8,7.1a35.19,35.19,0,0,0,2.9,6.3c1.3,1.7,1.5,1.7,4.6.1s3.4-1.5,6.4.4a71.6,71.6,0,0,1,9.2,8c3.3,3.3,6.5,6.1,7.1,6.1.9,0,6.4,23.7,6.4,27.4,0,.9-4.7.6-7.7-.5-1.5-.6-4.7-3.3-7.1-6s-5.2-4.9-6.3-4.9c-1.3,0-4.3,3.6-9.7,11.7-4.3,6.5-8.1,12.5-8.4,13.4-.7,1.7.4,5.8,8.7,32.8,5.4,17.5,8.6,24.4,13,28,1.4,1.2,2,1.1,4.5-.8,3.2-2.3,5-2.7,5-1.1,0,.6-2.2,3.6-4.8,6.8-4.2,5.1-5.1,7.1-7.6,16.7-3.4,12.9-4.1,14.5-6.4,14.5-3.5-.1-4.1-1.3-2.9-5.8,1.3-4.7.4-6.2-3.8-6.2-2.6,0-24.5,12.8-25.2,14.8-.4.8.2,3.8,1.2,6.7s1.5,5.7,1.1,6.3-2.2,1.5-4.1,2.2-3.5,1.5-3.5,2-5.4,1-12.2,1c-10.6,0-12.7.3-15.3,2C1362.5,464.6,1362,464.6,1360.6,461.6Z"></path>
                            <g id="Chukotka" class="cls-2" data-name="Чукотский автономный округ">
                                <path id="path78" d="M1350.5,273.9c-4.4-3.7-5-4-7.4-2.9s-2.9.8-6.5-2.6l-3.8-3.8-8,.3-8.1.3-3.9-4.3c-3.8-4.1-4-4.7-4-10.7,0-5.8.3-6.7,3.5-10.6,2.6-3.1,3.5-5.2,3.5-7.9s.9-4.8,3.2-7.6c3.1-3.9,3.1-3.9,1.2-6-3.6-4-10.9-8.6-17.4-10.9-3.6-1.3-6.9-2.7-7.4-3.2-1.4-1.2,1.6-6.9,9.8-18.3,8.6-11.8,9.6-13.6,9.6-16.9a4.6,4.6,0,0,1,1.2-3.3c.7-.4,6.2-1,12.2-1.4,6.9-.5,11.3-1.2,12.1-2.1,1.7-1.8,2.6-14.4,1.1-16.2-.7-1-3.6-1.6-8.6-1.8-6-.3-8.1-.8-10.7-2.8-1.8-1.3-3.3-3.1-3.3-3.8,0-1.4,11-21.5,17.3-31.5,3.1-5,14.7-15.8,28.8-26.7,13.9-10.8,48.3-34,50.4-34a33.68,33.68,0,0,1,7.5,2c3,1.1,6.4,2,7.5,1.9,2.7,0,12.9-7.2,13.4-9.4.5-2.5-1.3-3.3-9.6-4.1-7.4-.7-8.9-1.8-5.8-4.4.8-.7,2.4-4.2,3.5-7.9,2-6.6,2-6.7,10.2-12,4.4-3,8.8-5.6,9.7-5.8s3.2,1,5.1,2.6l3.5,2.9-1.8,6.8c-3,11.7-3.5,11.2,14.8,14.4,6.5,1.1,12.5,2.5,13.2,3.1,3.3,2.8,0,9.9-4.6,9.9-3.5,0-4.8,1.1-10.1,8.3-4,5.5-4.4,5.9-7.6,5.4-2.8-.5-4.1,0-8.3,3.4-5.2,4.1-5.6,4.8-6.6,11.4-1.3,8-.7,7.5-9.8,6.8-10.1-.7-11.1,0-10.1,7.6.4,2.7,1.2,5.7,1.8,6.5.7,1,4.8,2.1,11,3,5.4.8,10.3,1.8,10.7,2.3s1.8,4.4,2.9,8.8l2,7.9-4.4,6.5c-5.5,7.9-5,9.1,3.8,9.1,5.4,0,6.8-.5,11.3-3.5,5.8-3.9,6.4-4,14.3-2.4,4.9,1,6.2.9,11.6-1,8-2.8,10.5-2.7,13.8.7l2.8,2.9-7.5,8-7.5,8,3.9,15.8c2.2,8.7,3.8,16.4,3.5,17.1-.4,1-2.6,1.4-7.6,1.4h-7v4.5a33,33,0,0,1-2.5,10.5,30.42,30.42,0,0,0-2.5,9.2,43.51,43.51,0,0,1-1.3,8.3l-1.3,5-7,.5c-6.2.4-7.5.9-10.8,3.7-2,1.8-4.2,3.3-4.9,3.3s-2.9-3.2-5-7c-4.2-8-4.4-8-15.1-5.5-8.7,2-9.2,2.2-10.4,4.9-.7,1.7-2.2,2.6-4.9,3-3.4.6-4.2,1.4-7.7,7.2a52.8,52.8,0,0,1-9.2,11.1c-8.2,7-10.4,10.7-10.4,17.5s-1.7,8.4-10.1,9.4c-4.2.5-6.1,1.3-9.3,4.3-3.5,3.1-16.6,9-20.1,9C1355.8,278.1,1353.1,276.2,1350.5,273.9Z"></path>
                                <path id="path80" d="M1314.5,66.2c-3.3-3.6-3.7-4.6-3.7-9.5,0-4.7.3-5.5,2.3-6.1A21.42,21.42,0,0,0,1318,48a9.93,9.93,0,0,1,3.7-1.8c2.6,0,.2,22.8-2.5,23.7C1318.6,70.1,1316.5,68.4,1314.5,66.2Z"></path>
                            </g>
                            <path id="PrimorskyKrai" class="cls-1" data-name="Приморский край" d="M1449.1,915.3c-.9-.6-.2-2.8,2.7-8.3,2.2-4.1,4-8,4-8.7s-2.9-5.9-6.5-11.6c-4.5-7.3-8.1-11.6-12-14.7-3-2.4-5.5-5.1-5.5-6,0-2,3-11.1,4.2-12.6.5-.6,3.9-1.6,7.6-2.3,8-1.3,12.2-2.8,12.2-4.4a25.21,25.21,0,0,0-1.4-5.1c-.8-2.2-1.7-8.8-2.1-14.5-.5-7.9-1.3-11.9-3.1-15.9-2.5-5.6-3-8.1-1.6-8.1a6,6,0,0,0,2.6-1.4c1.8-1.2,1.8-1.5.2-3.8s-1.5-2.7,1-7.2l2.6-4.6h15.4l5.5-4.9,5.4-4.9-2.7-5.6-2.7-5.5,3.7-.3c2.9-.3,3.8-.8,4.3-2.8,1.1-3.9,1-13.8-.1-14.5-.5-.4-2.6-.2-4.6.4a7.65,7.65,0,0,1-6.5-.5c-1.6-.8-2.9-1.8-2.9-2.3s1.8-3.4,4.1-6.5l4.1-5.7,4.6,3.3c3.3,2.4,4.8,4.2,5,6.1s1.2,3.1,3.6,4.1c2.7,1.1,3.4,2,3.9,5.2.4,2.1,1.6,7.7,2.7,12.4,2,7.7,2.2,12.1,2.7,50l.5,41.5-6.4,14-6.4,13.9-12.3,3.7c-6.7,2.1-12.8,4.2-13.5,4.8s-1.5,4.1-1.8,8a49.41,49.41,0,0,1-2.4,11.5c-1.5,3.7-2.4,4.6-4.4,4.6A10.75,10.75,0,0,1,1449.1,915.3Z"></path>
                            <g id="Yakutia" class="cls-2" data-name="Республика Саха">
                                <path id="path84" d="M1147.8,696.9c-7-5.3-7.7-6.3-10.9-14.9-1.9-4.8-5.5-10-19-26.9l-2.7-3.4-6.3,2.7-6.3,2.7-6.3-6.1-6.4-6.1-7.3.6a79.71,79.71,0,0,0-8.9,1.2c-.8.2-4.1,5.7-7.2,12.1-4.3,8.9-5.9,13.3-6.3,18-.5,4.3-1.3,6.8-2.6,8-1.9,1.7-2.1,1.6-4.7-1.7-1.9-2.3-3.3-3.2-4.4-2.7-3.1,1.1-17.2,10.9-20.8,14.4l-3.6,3.4-3.1-2.7c-3.8-3.1-3.9-3.9-1.6-26.6.9-8.8,1.3-16.6,1.1-17.3s-2-1.6-3.7-2c-2.2-.5-4.2-2.3-7.1-6.2-3.6-4.9-4-6-3.5-9.4a36.23,36.23,0,0,1,1.2-5.3c.4-1.1-.7-2.4-4-4.4-2.8-1.7-4.5-3.5-4.6-4.6,0-2.1-3.8-9.1-7.7-14.4a8.75,8.75,0,0,0-6.4-3.9c-3.7-.6-3.9-.7-2.3-2.4,1.3-1.5,1.4-2.4.5-5.2-2.1-6.2-3.2-6.6-18.1-7l-13.5-.2-.3-4.8a19.32,19.32,0,0,1,1.8-9.3,26,26,0,0,0,2-6.6c0-1.1-2.1-4.9-4.6-8.4-3.7-5.2-4.7-7.6-5.4-12.8-1.1-7.3-1.8-9.6-3.1-9.6-2.3,0-1.8-3.2,1.2-7.3l3.2-4.6-3.7-18.8-3.6-18.8-5.1-5.1-5.1-5.2,5.7-5.7c5.4-5.4,6-5.7,9.6-5.3,5.3.8,6.4-1,7.8-12.2.7-5.3,1.5-10.3,1.8-11.3s3.4-5.1,6.9-9,6.4-8,6.4-8.9c0-2.8-15.4-25.1-20-29.1-4.1-3.5-4.5-4.3-6.5-13.5-1.2-5.3-2-10.4-1.8-11.2.4-1.6,6.5-6,8.3-6,.5,0,1.9,1.8,3,4,2.7,5.3,5,5.2,7.8-.5s4.8-6.9,15.1-9.5c8.4-2,10.1-2,10.1.4,0,2.1,5.9,6.6,8.6,6.6,1.3,0,7.7-2.2,14.2-4.9s12.7-5.2,13.9-5.5c3.3-1.1,3.5-3.2.8-9.3-2.9-6.4-3-8.2-1.1-10.9,1.2-1.6,2.5-1.8,9-1.6,7.3.3,7.8.2,11.2-2.8,1.9-1.6,3.9-3,4.3-3s5.5,4.1,11.2,9.2c7.9,7.2,9.8,9.3,8.3,9.6-2.1.4-4.4,2-4.4,3.2,0,.4,3.5,3.3,7.7,6.5,6.8,5.1,9.5,6.4,21.2,10.2,17.9,5.7,18,5.6,12.8-10-2-6.2-3.7-12.1-3.7-13,0-1.4,1.3-1.6,9.3-1.4l9.2.2,2-5.8c1.1-3.1,2.6-5.9,3.4-6.2a45.88,45.88,0,0,1,7.5-1.2c7.9-.8,9.8-1.8,9.1-4.6-.5-1.7.5-3.2,4-6.6,2.5-2.4,4.5-4.7,4.5-5.2s-3.1-3.3-7-6.1c-7.2-5.2-7.6-5.8-8.3-14.1-.5-5.6-.1-6.2,8.1-10.8,18-10.2,29.7-17.5,35.7-22.5s7.2-5.5,10.9-5.2c4.4.3,4.3.1,2.9,6.9-.3,1.6,0,2.8.9,3.1,1.4.5,33.6-6.3,35.6-7.6.7-.4,5-8.3,9.7-17.5l8.5-16.8,8-4.2c7.9-4.1,8.1-4.1,13.7-3.1,4.3.8,6.3,1.8,8,3.8a13.58,13.58,0,0,1,2.3,3.5c0,.3.9.9,2,1.3,3,.9,13.8-6.8,15.6-11.2,1.7-3.9,1.5-3.9,11.7.2,6,2.4,13.7,7.9,13.7,9.6a9.49,9.49,0,0,1-2,3.6,10.56,10.56,0,0,0-2,5.5c0,3.5-1.3,6.1-5.1,10.6-2.6,2.9-2.9,3.9-2.9,10.4,0,6.1.4,7.7,2,9.1a9.81,9.81,0,0,1,2.5,3.6c1,3.2,7.7,5.3,14.8,4.5l6.4-.7,5.5,6.1,5.6,6.2-1.2,5.2c-1.1,4.8-1.4,5.2-4.6,5.7-2.6.4-3.5,1.1-4,2.9s-3.1,4.1-8.2,7.5c-4.3,2.8-7.7,5.7-7.7,6.6s1.5,2.5,3.5,3.8c2.9,1.9,3.5,2.7,2.9,4.5-1.9,6.1-1.8,6.5,1.9,8.8,3.5,2.3,3.7,2.5,3.1,6.9s-.5,4.7,4.9,10.5c3.1,3.3,5.6,6.5,5.6,7.1s-1.8,3.2-4.1,5.8c-3.5,3.9-4,5.1-3.7,8.2.4,3.5.4,3.5-2.9,2.9-3.1-.6-4-.1-10.3,5.5-3.9,3.4-7,6.7-7,7.4s1.6,2.7,3.5,4.6,3.4,3.8,3.2,4.3-2.9,2.3-6.2,4l-6,3.2-.3,6.5c-.4,9.2,3.5,17.4,12.2,25.7l6.3,6.1,1.4,8.3c2,11.9,2.2,11.4-3.5,11.4-4.9,0-5,0-7.3,4.6-2.9,5.8-6.3,7.2-17.2,7-7.4-.2-7.7-.1-9.4,2.7a14,14,0,0,0-1.7,4.4c0,.8,2.1,5.3,4.6,10.1l4.5,8.7-3.1,3.9-3.2,3.9,1.6,7.5c1.4,7.1,2.1,8.3,9.6,17.8,8.2,10.4,8.6,11.8,3.4,11.9-2.3,0-3.4,3.5-3.4,11.5v4l-6.2,2-6.3,2,.3,6,.3,6-9.8,5.2-9.8,5.1.4,14.5c.3,13.9.2,14.5-1.8,15.6-3.2,1.7-2.5,3.7,2.2,6.3,4.4,2.5,4.4,2.6,3.3,9.5l-.7,4.1,6.5,3.8c3.6,2.1,6.8,4.4,7.1,5.2s0,3-.7,4.9c-1.1,2.9-.9,4.6,1,12,2.5,9.8,2.3,10.5-4.3,12.2-3.8.9-4.8,1.8-8,6.9-3.4,5.5-3.9,6-9.3,7.2-3.7.9-8.6,3.4-14.4,7.3-8.3,5.6-9.1,5.9-13.2,5.2-3.4-.5-5.5-.1-10.1,1.9-7.3,3.3-8.3,3.2-14.5-.6l-5.1-3.2-8.3,2.7c-9,2.9-18.5,3.5-25.9,1.5-4.2-1.1-4.4-1.1-10.7,3.5a51,51,0,0,1-6.9,4.6A63.1,63.1,0,0,1,1147.8,696.9Z"></path>
                                <path id="path86" d="M1114.4,270.3c-1-6.5-.8-7.3,3-8.8,4-1.7,12.5-1.6,13.1.2.4,1.1-8.9,8.8-13.4,11.2C1115.3,273.9,1115,273.6,1114.4,270.3Z"></path>
                                <path id="path88" d="M1074.9,252.5c-2.5-.8-4.9-1.8-5.4-2.4-1-1-3.6-12.8-3.7-16.8,0-2.2.2-2.3,8.8-2l8.7.4-.3-3c-.1-1.7-.3-4.2-.5-5.5-.1-1.9.3-2.5,1.8-2.5s2.2,1,2.8,3.8c.9,3.6,1.5,4.2,7.8,7l6.8,3.2-5,6.5C1086.1,254.9,1084.7,255.6,1074.9,252.5Z"></path>
                                <path id="path90" d="M1097.3,227.4c-7.7-4.2-7.3-9.6.8-10.9,3.2-.5,3.5-.3,4.6,2.7,1.2,3.7,1.5,11,.4,10.9A31.58,31.58,0,0,1,1097.3,227.4Z"></path>
                                <path id="path92" d="M1114,213c-2.7-2.8-1.1-4.4,9.3-9.6,13.5-6.7,14-6.7,13.1-.2a47.06,47.06,0,0,1-1.2,6.3c-.3.8-4,2.1-8.2,3C1117.8,214.5,1115.6,214.6,1114,213Z"></path>
                            </g>
                            <path id="SakhalinOblast" class="cls-1" data-name="Сахалинская область" d="M1548.3,731.4a41.69,41.69,0,0,1-4.9-3.2c-3.8-3.3-13.5-16.9-18.1-25.4-4.1-7.6-5.2-9-8.9-10.6-3.5-1.5-7.6-5.9-22.2-23.7l-17.9-21.7-8.1-3.8c-10.1-4.6-14.9-8.9-21.3-18.9-5.4-8.4-6.1-11.3-3.4-14.2,1.3-1.5,1.5-2.7.7-6.6-.9-4.8-1.3-5.2-8.9-8.5-3.4-1.4-3.9-3.5-1.2-5.1,1.5-1,2.7-.1,8.2,5.6,3.5,3.7,10,9.9,14.5,13.8,5.1,4.5,8.6,8.5,9.6,10.8,1.3,3.4,3.2,4.7,19.7,13.8,31.1,17.3,40.2,22.5,41.1,23.4.6.5-1.7,2.1-5.7,3.9-3.7,1.7-7,3.7-7.3,4.5s1.8,6.8,4.6,13.3,6.3,14.3,7.7,17.4c2.9,6.6,3.7,7,24.5,13.9,12.9,4.2,19.3,8,13.2,7.9a67.3,67.3,0,0,1-8.4-.9c-4-.6-5.9-.5-6.8.4-1.4,1.3-1.5,1,3.4,12.3C1554.1,733.6,1553.1,734,1548.3,731.4Z"></path>
                        </g>
                        <g id="Siberian">
                            <path id="AltaiRepublic" class="cls-2" data-name="Республика Алтай" d="M754,954.3c-2.7-.3-3.9-1.3-6.2-5a37,37,0,0,1-3.5-6.3c-.8-2.5-2.9-3-6-1.4-2.8,1.5-11.1,1.8-15.5.6-2.6-.7-16.3-18.9-15.4-20.4a4.65,4.65,0,0,1,2.9-.7c2,0,2.7-.8,3.7-4.1,1-3.5,1-4.3-.3-5-5.5-3.2-5.4-3.3,3.4-6.2,8.2-2.7,8.6-3,12.6-8.7,4.4-6.3,5.1-6.6,11.3-5.1,4.4,1,5.2.3,6.3-5.4,1.3-7.5,1.4-7.6,10.4-5.6a61.3,61.3,0,0,1,8.9,2.5c1.6.9.3,3.7-3,6.6-2.8,2.3-2.9,2.8-2.6,9.4l.3,7,4.4,1.3c3.8,1,4.8,1,6.6-.2,2.1-1.3,2.3-1.1,5.3,5.3,1.7,3.7,4.1,8.4,5.3,10.4l2.3,3.8-2.8,2.9-2.9,3,3.1,3.5c3,3.4,3.3,6,.9,6.8-.7.3-5,1.3-9.6,2.4-7.4,1.7-8.7,2.3-11.4,5.6-1.7,2.1-3.5,3.7-4.1,3.6S755.8,954.6,754,954.3Z"></path>
                            <path id="AltaiKrai" class="cls-2" data-name="Алтайский край" d="M670.8,833.2l-10.3,4.3a88,88,0,0,1-21.5,6l-12.6,2.9c3,4.8,5.2,11.4,14.5,37.5,4,11.2,7.5,20.2,7.8,20.2s2.4-2.3,4.5-5.1c5.5-7.4,7.5-6.2,11.1,6.4l1.6,5.7,5.1.1c2.9.1,10.3.1,16.4-.1l11.1-.2,3.2,4.5c2.7,3.7,3.7,4.4,5.7,4a6.26,6.26,0,0,0,3.6-2.5c1.2-2.3.8-2.6-5.2-6-2.7-1.5-3-2.1-2-3.3a3.48,3.48,0,0,1,2.2-1.5c.6,0,4.8-1.2,9.5-2.6,8.1-2.5,8.3-2.6,12.9-9L733,888l5.4.5c5.2.7,5.3.8,5.9-2,.4-1.6,1.3-4.7,2.1-7,1.1-3,1.3-6.2.8-12.5l-.7-8.4-9.6-11.2c-5.3-6.2-10.1-11.3-10.7-11.3a4.31,4.31,0,0,0-2.4,1.5c-2.2,2.7-4.5,3.4-14,4.5l-9.3,1-5,5.5c-2.8,3.1-5.6,5.5-6.2,5.4s-5.2-4.9-9.8-10.5Z"></path>
                            <path id="Buryatia" class="cls-2" data-name="Республика Бурятия" d="M981.3,911.7l-9-2.2-3.1-8.8c-1.8-4.8-3.4-8.9-3.6-9.2-.8-.7-42-9.6-45.6-9.8-4.7-.3-6.5-3-5.9-8.6.4-3.1,1.2-5,2.9-6.2,2.7-2.1,2.5-1.9,7.4-7.6,4.5-5.2,7.6-5.4,8.4-.7.5,2.7,1.7,3.6,13,9.2,8.6,4.2,13.7,6.2,16.4,6.2s5.7,1.2,9.7,3.8c5.2,3.3,5.8,4.1,5.6,6.8s.1,3,3.3,3.3a8,8,0,0,1,5.7,2.9l2.2,2.7,4.6-2.3c5.8-2.9,7.5-4.7,7.5-7.8,0-1.7,2.1-4.9,6.4-9.7,3.5-3.9,6.9-8.8,7.5-10.7,1-3,8.7-12.6,21.2-26.2,1.1-1.2,2.1-5.1,2.8-11,2.3-20,2.4-22.4.8-24.9a73.57,73.57,0,0,1-4.3-11.1c-2.8-8.7-2.8-8.8-1.2-14.8,1.8-6.7,2.2-5.8-4.9-11.6-3.4-2.7-2-5.9,3.8-8.9,3.5-1.8,4.9-3.1,5.4-5.3.6-2.7.9-2.9,7.8-3.5,7.4-.6,9.7-2,9.7-5.8,0-2.1,1-2.2,6.3-.8,3.2.9,4.2.8,5.6-.5,2.4-2.1,3.6-1.9,4.9,1s1.4,2.8,9.8,1.4c5.1-.9,7.2-1.9,10.8-5.1s4.6-4.7,5.2-8.6a11.27,11.27,0,0,1,4.3-8c5.3-4.9,8.2-4.2,4.1,1-2.9,3.8-2.5,7.8,1.8,16,6.7,12.9,10.8,18.5,13.9,19.2a41.42,41.42,0,0,1,8.1,3.6c4.9,2.8,5.2,3.3,5.2,6.9,0,3.3-.4,4-3,5.1-3.5,1.4-9.3,8-17.1,19.4-3,4.3-5.9,8.6-6.6,9.5-2.1,2.8.7,10.3,4.5,12,5.6,2.5,5.1,6.3-2.2,15a34.9,34.9,0,0,1-11.3,9c-6.3,3.3-6.8,3.9-7.6,7.7-.6,3.1-1.8,4.9-4.7,7.3a26.4,26.4,0,0,0-6,7.1c-1.9,3.7-2.3,4-6.3,4-3.2,0-5.3.7-8.5,3-2.7,2.1-4.8,2.9-6.1,2.5-2.6-.8-9.1,2.4-9.1,4.6a12.48,12.48,0,0,0,1.1,4.2c1,2.1.8,3-1,5.5-3.1,4.4-2.7,6.8,1.5,9l3.6,1.8-3.5,2.4c-2.6,1.8-3.7,3.3-4.1,6.2-.7,4.4-1.3,4.5-11.9,2.1-5.4-1.2-9.6-1.4-17-1l-9.9.7-7.8,5.5c-4.6,3.2-8.8,5.4-10.1,5.4S986.3,912.9,981.3,911.7Z"></path>
                            <path id="ZabKray" class="cls-1" data-name="Забайкальский край" d="M1055.9,909.8c-3.5-2.8-4-3.7-3.8-6.7.2-2.8,1-4,4.4-6.5,2.3-1.7,4.2-3.6,4.2-4.4s-1.7-2-3.9-3c-4.6-1.9-4.8-2.8-1.9-6.6,1.9-2.4,2.1-3.1,1.1-6.4-1-3.1-.9-3.8.6-4.9a6.23,6.23,0,0,1,4.6-.8c2.2.4,3.7-.1,6.8-2.5a17,17,0,0,1,9.1-3.8c4.6-.6,5.4-1,6.7-3.9a36.43,36.43,0,0,1,6.2-7.7c3.1-3,4.8-5.5,5.2-8,.6-3.2,1.3-3.9,6.9-6.4,5.1-2.4,7.2-4.2,12-10.2,5.4-6.8,5.8-7.7,5.5-11.9-.3-4-.7-4.7-3.5-6-4.6-1.9-6.3-7.3-3.5-10.4a93.49,93.49,0,0,0,5.9-8.1c6.2-9.8,12.6-17.3,15.3-18,4-1.1,5-2.5,5-7.2,0-3.4-.6-4.9-2.4-6.7-2.9-2.6-10.7-6.6-13-6.6-2.5,0-15.1-20.7-15.8-26-.3-2.2.2-2.5,6.3-3.6,11.8-2.2,15.5-5.3,14.4-12.2-1.3-8-1.4-8.1-5-8.8-4.6-.9-6.5-4.4-6.5-12.3,0-7,.2-7.1,9.8-7.1h6.7l2,5.1c1.7,4.4,3.3,6.3,10,11.5a140.12,140.12,0,0,0,13.7,9.5c5.4,2.9,5.7,3.3,5.5,6.6-.2,3,.3,3.7,3.5,5.6l3.7,2.1,2.4-2.2a9.8,9.8,0,0,1,3-2.2c.3,0,2,2,3.8,4.5s3.8,4.5,4.4,4.5,2.4-1,3.9-2.1,2.9-2,3.1-1.8,1.2,3.6,2.4,7.5c1.2,4.1,3.2,8.2,4.6,9.6l2.5,2.5-2.1,2.6c-1.1,1.5-1.9,3.3-1.7,4s3.2,3.7,6.7,6.6l6.3,5.3-5.6,5.6a31.09,31.09,0,0,0-8,12.4c-2.9,7.5-2.7,9.3,1.2,10.2,1.5.4,4.7,2.9,7.1,5.6l4.4,5-2.7,6c-2.6,5.8-2.7,6.5-2.4,20.9.3,14.1.4,15,2.7,17.5,2.8,2.9,2,4.5-3,6.6-2.2.9-3.7,2.7-5.4,6.6-1.5,3.4-3.2,5.7-4.7,6.2a26.06,26.06,0,0,1-16.3.7c-7.6-2.3-8.9-2-12,2.5s-3.6,4.6-11.2,2.4c-6.6-1.9-14.7-1.5-17.1,1a87.87,87.87,0,0,0-6.7,10.3c-4.8,8.3-5.6,9.1-17.6,17.9l-12.5,9.3-16.7,2c-22.6,2.8-23.6,2.8-28.6-1.2"></path>
                            <path id="IrkutskOblast" class="cls-1" data-name="Иркутская область" d="M988.6,888.2c-.4-1.3-1.8-2.1-4.5-2.6-3.5-.6-3.9-1-3.6-2.9.7-3.3-12-11.6-17.6-11.6-2.9,0-7.4-1.7-15.5-5.7-10.3-5-11.6-6-12.2-8.7-1.3-6.3-6.2-6.4-12.2-.2-4.3,4.4-4.4,4.5-6.8,2.9-2-1.3-3-1.4-5-.5-2.3,1.1-3.6.6-12.7-4.5-8.7-4.8-11-5.7-15.5-5.8-5.1,0-5.5-.3-9.7-5a48.89,48.89,0,0,1-4.5-5.7c0-.3,2.3-2.1,5-3.8s5-3.3,5.1-3.4.8-4.9,1.8-10.6c1.6-9.2,1.6-11,.5-14.4-1.6-4.4-2.1-3.4,7-14.1l3.9-4.6-3.2-8.2a73,73,0,0,1-3.1-9.6,35,35,0,0,1,3-7.1l3-5.9,5.7-.6c9-1,9.8-1.3,11.3-4,.8-1.4,1.7-2.5,2.1-2.3s2.6,2.7,4.9,5.6c3.6,4.6,4.5,5.2,7.3,5,3.2-.3,3.2-.4,3.3-5.9,0-5.2.5-6.3,7.7-17.3l7.7-11.6-1.5-3.7c-2.1-4.9-2-5.2,2-5.9,2.9-.5,4.4,0,9.7,3.3,6.2,3.9,13.1,6.3,15.6,5.5.6-.2,1.2-1.6,1.2-3.1a22.33,22.33,0,0,1,2-7c2.7-6,2.6-6.7-2-9.7-4.4-2.9-4.6-3.7-2.5-7.4a19.42,19.42,0,0,0,1.5-7.7c0-5-.1-5.2-3.3-6.3a18.12,18.12,0,0,1-6.1-3.9c-2.5-2.7-2.7-3.2-1.7-6.8a32.33,32.33,0,0,0,1.1-7.2c0-2.6,1.1-4.7,4.4-8.5,4.2-5,4.4-5.6,6.2-16.5l1.8-11.3-3.8-3.2-3.8-3.1.8-10.7.7-10.7,6.8-4.6c6.1-4,6.9-4.3,7.8-2.8s.3,2.5-2.2,5c-3.8,4-3.1,4.9,4.7,5.9l5.9.9,3.8,6.2c2.1,3.4,3.9,7.5,4.1,9,.2,1.9,1.6,3.6,4.5,5.5,3.8,2.6,4.1,3.1,3.3,5.4a13.66,13.66,0,0,0-1,4.4c0,2.8,9,16,10.9,16,4.3,0,4.4.6,2.6,22l-1.8,20.3,3.9,3.3c5.9,5.1,7,5.1,11.8.6,3.9-3.7,17.8-13.2,19.4-13.2.4,0,2,1.5,3.5,3.5s3.2,3.5,3.7,3.5,2.5-2.1,4.5-4.7c2.9-3.8,3.5-5.5,3.5-9.4,0-3.7,1.2-7.4,5.4-16.2,5.3-11.3,5.4-11.4,9.2-12.1,9.2-1.5,10.5-1.1,16.9,5.4,3.3,3.3,6.4,6,7,5.9a26.75,26.75,0,0,0,5-1.9,19.36,19.36,0,0,1,5.7-2c1.7,0,16.9,18.6,17.6,21.5.2.9-1.7,1.5-7.3,2-8.8.8-9.5,1.5-9.5,9.9,0,7.5,2.8,13.2,7,14.1,3.5.7,5.3,4,4.8,8.9-.4,3.7-4.2,6.1-11.2,7.1l-4.9.7,1.7-2.3c2.2-3.2,2.1-3.6-1.3-5.4-2.8-1.4-3-1.4-8,2.6-4.3,3.6-5.1,4.8-5.7,8.6a14.86,14.86,0,0,1-3.7,7.9c-3.8,4.4-5,5-11.8,5.9-5.6.7-5.6.7-6.7-2.4-1.3-3.7-2.4-3.9-6.3-1-2.8,1.9-3.2,2-7.3.6-5-1.8-6.2-1.3-7.2,2.8-.9,3.9-1.9,4.4-8.6,4.5-7.2,0-8.8.6-8.8,3.5s-1,3.8-6.5,6.8c-3,1.7-4.1,3-4.6,5.6-.8,4.1-.3,5.8,2,6.5a13,13,0,0,1,3.8,2.5c2,1.9,2.1,2.2.6,7.9-1.5,6-1.5,6.1,1.7,15.8,1.8,5.5,3.6,10.3,4.1,10.8,1.2,1.3,1.1,10.5-.1,18.5-.6,3.6-1.3,8-1.6,9.7-.3,2.2-3.6,6.7-10.9,15-6.4,7.2-10.9,13.3-11.6,15.5-.6,2-4.2,7.1-8,11.3-5,5.6-6.9,8.4-6.9,10.4,0,2.2-.8,3.2-3.7,4.7-2.1,1.1-4.1,2.1-4.4,2.2s-.9-.5-1.1-1.6"></path>
                            <path id="Khakassia" class="cls-1" data-name="Республика Хакасия" d="M765.8,904.8c-2-1-2.5-2.1-2.8-5.9-.3-4.1,0-4.9,2.4-6.5,5-3.4,15.4-14.2,15.4-16a56.84,56.84,0,0,0-1.5-7.8c-2-8.4-1.9-10.4,1.1-14.3,2.6-3.3,2.6-3.5,1.1-7.3-1.2-3.1-1.3-4.6-.4-7.4,1.3-4.4.7-5.1-3.4-3.6-1.8.6-3.4.9-3.6.7s.5-2.4,1.4-4.9c1.7-4.6,1.7-4.7-.6-8.7-2.1-3.8-2.3-7.1-.4-7,.5,0,2.1,2.1,3.6,4.5,3.3,5.1,4.6,5.4,15.7,3,3.6-.8,6.9-1,7.3-.6s1.3,2.8,1.8,5.2,3.9,10.1,7.4,17,6.5,13.2,6.5,14-1.5,2.9-3.3,4.8a23.25,23.25,0,0,0-4.6,7.8c-.9,3.5-2.7,5.5-9.6,11.3-5.7,4.7-8.7,8-9.1,9.8-1.4,6.6-1.8,7-9.1,7.7-9,.8-10.4,1.3-10.1,3.3S769,906.4,765.8,904.8Z"></path>
                            <path id="KemerovoOblast" class="cls-1" data-name="Кемеровская область" d="M769.8,882.6c0-1.5-2.2-2.2-13.1-4.6-5.4-1.1-5.7-1.4-6.3-4.8a78.07,78.07,0,0,1-.6-9.4c0-5.6-.1-5.9-6.2-13-3.5-4-8.6-10-11.5-13.3l-5.2-6.1L725.4,819c-.8-6.9-1.8-14.5-2.2-17l-.6-4.6,7.5-1.6a53.33,53.33,0,0,0,12.8-4.8c4.5-2.7,6.6-3.2,16.7-4,6.3-.6,11.5-.9,11.7-.7,5.1,6.4,9.5,13.7,9.5,15.8,0,1.6-1.3,3.9-3.7,6.2a38.94,38.94,0,0,0-5.7,7.2c-1.9,3.5-1.9,3.5.5,8l2.3,4.4-2.2,5.4a32.11,32.11,0,0,0-2.2,6.7c0,1.3.3,1.3,6.4-.7,1.6-.4,1.8-.2,1.3,1.7a10.94,10.94,0,0,0,1,5.6c1.6,3.3,1.6,3.5-1.2,7.5s-2.8,4.3-1.6,9.8c2.7,12.4,2.7,13-.9,16.7S769.8,884.9,769.8,882.6Z"></path>
                            <g id="KrasnoyarskKrai" class="cls-1" data-name="Красноярский край">
                                <path id="path109" d="M844.9,270.3c0-.9.8-7.3,1.8-14,1.4-9.4,2.3-12.6,3.7-13.6,2.8-2.1,4.1-1.8,5.6,1.2,1.2,2.2,2,2.6,4.9,2.5,3.5-.2,3.6-.1,6.6,6.7,2.3,5,2.8,7.1,2,7.8-1.2.9-23.4,11.2-24.2,11.2C845,272.1,844.8,271.3,844.9,270.3Z"></path>
                                <path id="path111" d="M827,252c-4.5-1-8.6-2.1-9.1-2.3s-1.6-3.1-2.6-6.1a21.36,21.36,0,0,1-.9-10.8c.9-4.8,1.1-5.2,4.8-6.4,6.2-2,14.3-1.8,17.4.5,2.6,1.9,2.7,2.3,3,13.4.2,9.7,0,11.4-1.4,12.5a7.06,7.06,0,0,1-2.3,1.2C835.6,253.9,831.6,253.1,827,252Z"></path>
                                <path id="path113" d="M808,219.7c-2.7-3-2.9-3.9-2.2-6.7.5-1.8,1.4-5.2,2-7.5,1.1-4.4,5.3-10.3,7.3-10.3s8.6,11.2,9.3,15.7c1.1,7.1.1,8.9-6,10.7C811.3,223.7,811.5,223.7,808,219.7Z"></path>
                                <path id="path107" d="M922,477.1c3,.8,5.7,2.7,8.9,6l4.6,4.8,3.1,16.5c1.8,9,3.2,17,3.2,17.7s-1.6,3.1-3.5,5.4c-4.2,5.2-4.3,6.6-.6,9.3,2.4,1.8,2.9,3,3.5,8.4.5,5.2,1.4,7.5,5.1,13.1,2.5,3.7,4.5,7.4,4.5,8.3a18.42,18.42,0,0,1-2.1,5.7c-1.8,3.5-2,5.3-1.5,10.6.3,3.6.8,6.7,1.2,7.1.7.7,2.6.8,16.2.9l9.7.2-5.9,3.9c-3.3,2.2-6.3,4.6-6.7,5.3s-.9,6.4-1,12.7l-.2,11.3,3.3,2.8c3.1,2.5,3.3,3,2.7,7.1-2.7,18.1-2.4,16.9-6.8,21.5-3.8,3.9-4.4,5-5,10.6a83,83,0,0,1-1.4,8.4c-.8,2.7,4.4,8.9,9.2,10.9,4.1,1.7,4.3,4.3.8,10.9a30.06,30.06,0,0,0-2.5,5.5c0,.5,2.1,2.1,4.6,3.6,3.2,1.9,4.4,3.1,4.1,4.3-.3.9-1.1,3.2-1.8,5.2s-1.3,4-1.5,4.7c-.4,1.5-2.9,1.5-6.3.2-1.3-.6-5-2.6-8.2-4.5-4.8-2.9-6.4-3.4-9.2-2.9s-6.1,1.2-6.8,2.1-.7,1.8,0,3.2c3.4,6.2,3.4,6.3-4.5,18.2-6.6,10.1-7.4,11.9-7.4,16.2,0,6.5-1.7,6.2-7.5-1.2-2.5-3.3-5-6-5.5-6s-2.1,1.6-3.7,3.6c-2.8,3.4-3.4,3.7-9.9,4.3l-6.9.6-3.7,7a44.24,44.24,0,0,0-3.8,8.5c0,.8,1.4,5.1,3,9.4,3.4,8.8,3.8,7.7-4.3,17l-4.9,5.5,1.5,4.5c1.4,4.1,1.4,5.5,0,14l-1.6,9.4-5.3,3.7c-3,2.1-5.4,4.4-5.4,5.2s2.6,4.3,5.8,7.8,5.7,6.8,5.7,7.1-4.9,2.1-11,3.9l-11,3.2-.9,4.2c-.6,2.7-1.8,4.8-3.3,5.8-1.3.8-4.1,4.5-6.2,8.2-6.6,11.2-10.2,13.8-23.1,16.5-.8.2-5-.2-9.2-.8-6.4-.9-8.3-1.6-10.5-3.9l-2.8-2.8,5.7-5.2c4-3.6,6-6.4,6.7-9a25.84,25.84,0,0,1,4.5-7.9c2-2.3,3.6-4.8,3.6-5.6s-3.1-7.5-6.9-15-7.2-15.6-7.5-17.9c-1.3-7.2-2-7.6-10.4-5.9-10.7,2.3-12.3,2.1-14.9-1.7-3.5-5.2-3.6-6.1-.3-9.2,2.5-2.4,3-3.7,3-7.3s-.8-5.6-4.4-10.7l-4.4-6.3,1.8-2.8a7.64,7.64,0,0,0,1.3-5.8c-.4-2.6.3-4.1,3.6-8.3s4.1-5.9,4.1-9.2c0-3.8-.2-4.1-3.7-5-13.4-3.5-12.3-2.9-12.3-6.9,0-4.6.4-5.1,6.3-9.1,5.2-3.6,5.4-4.3,3.1-10.1-1.5-3.8-1.8-4-5.9-4s-4.6-.4-9.5-6.5c-5.8-7.1-5.8-7.1-19.8-8.1-11.3-.8-13.3-2.1-10.3-6.7,1.9-3,1.9-3.1-.3-9-1.5-4.3-1.8-6.1-.9-6.4,1.8-.7,16.7-11.5,17.5-12.7,1.3-1.9.9-2.4-5.6-6.2-4.8-2.8-6.9-4.7-8.2-7.6-2-4.4-1.8-4.7,7.1-14.3,6-6.5,6.3-7.8,3.9-14.9-1.6-4.7-1.6-4.7,1.2-8.7,4.9-6.8,5.4-8.2,5.4-16.1,0-9.1-1.2-11-8.2-12.8-5.3-1.4-4.8-.2-5.3-13-.1-3.1-.3-6.1-.4-6.8s-1.6-2-3.5-2.7l-3.3-1.4-.7-10.2c-.7-8.6-1.2-10.9-3.6-14.9a37.66,37.66,0,0,1-4-12.4c-1-6.8-.9-7.8.9-11.3s6-9.9,7-12.8.7-4.4-2.5-13.5l-3.7-10.2-3.6.7c-7.1,1.3-7.3,1.2-11.7-5a57.15,57.15,0,0,1-4.4-6.7c0-.4,2.7-2.6,6-5,6.3-4.6,8.6-8.4,9.6-16.2.6-3.8.2-4.6-3.5-9.1-2.2-2.8-4.1-5.5-4.1-6s2.3-3.4,5.1-6.3L724,426l1.6,2.2c3.4,4.8,5.2,6,9,5.7l3.7-.3.3-6.2c.3-5.9.2-6.3-4.6-12.5a72,72,0,0,1-5.5-8.1c-.7-1.9,1.1-16.7,2.2-17.9.3-.4,8.3-1.4,17.6-2.3,24.4-2.3,25.5-2.5,26.2-4.2.3-.9-.6-3.9-2-6.9l-2.6-5.3,4.2-6.2a107.86,107.86,0,0,1,9.4-12c4.5-4.8,6.9-6.3,17.4-11,8.7-3.9,12.5-6.1,13.2-7.8,1-2,9.2-7.1,11.6-7.1.5,0,1.4,1.3,2.1,2.9,2.2,5.4,2.9,5.4,13.9.1l10.2-5-.3-3.7c-.3-3.4-.1-3.7,3.2-4.6,5.8-1.5,6.3-2.5,4.9-9.4l-1.2-6,4.9-7.8c2.7-4.3,5.8-8.4,6.9-9.1a8.24,8.24,0,0,1,8.8-.2c1.5,1.2,1.3,1.7-2.4,6-5.7,6.7-4.9,8.2,4,7.3,6.6-.7,6.9-.6,7.5,1.6a24.22,24.22,0,0,1,.6,4.5,3.62,3.62,0,0,0,3.6,3.4c.2,0,2.6-2.1,5.4-4.5l5.1-4.5h18l6.5,5.2c3.7,2.9,6.8,6.3,7.1,7.7s.7,7.1.8,12.6v10l-6.6,10c-3.6,5.5-8.9,14.2-11.8,19.3s-7.2,12.6-9.7,16.5c-4.3,7-5.3,10-3.5,11.1.6.3,3.5.3,6.7-.1,5.4-.6,6.2-1.1,14.3-8.5,4.7-4.3,8.9-7.8,9.3-7.8.8,0,1.1.8,3.4,11.3,1.6,6.9,2.2,8.2,5.6,10.9,2.2,1.6,6.9,7.6,10.7,13.2,10.5,15.7,10.2,13.6,3.1,21.6-6.8,7.7-7.5,9.4-8.5,20.2-.9,9.5-1.4,10.3-6.3,9.9-3.6-.2-4.2.2-11,7.3"></path>
                            </g>
                            <path id="NovosibirskOblast" class="cls-1" data-name="Новосибирская область" d="M623.1,759.6h-.2c-.5.3-1,2.1-1,3.8a8.43,8.43,0,0,1-2.5,5.7l-2.6,2.8,2.1,3.5c2.5,4.3,2,4.7-7.1,7.1l-6.6,1.7-2.2,7.7-2.2,7.6,3.4,5c3.8,5.3,3.8,5.8.2,14l-1.6,3.9,2.2-.5c1.3-.3,4.5-1.2,7.2-1.9,3.8-1.1,4.8-1,5.8,0s1,1.9-.8,5.1a16.69,16.69,0,0,0-2.3,5.3c0,.7,2.9,4.5,6.3,8.7,1.6,2,2.9,3.4,4,5a66.14,66.14,0,0,1,14.1-3.5,86.31,86.31,0,0,0,21.5-6.1l10.5-4.5,5.5,6.2c3,3.4,7.1,8.1,9.2,10.3l3.7,4.1,5.1-5.1,5.1-5.3,9-.7c10.4-.8,14.9-3.3,14.9-8.3,0-4.8-3.3-30.6-4-31.5-.4-.4-3.6.6-7,2.4s-6.6,2.8-7.1,2.4-1.5-4.5-2.4-8.9-1.9-8.2-2.3-8.6-4.5-.1-9.1.5c-7.5.9-8.5.7-9.7-.8-.8-1.2-3.8-2-8.2-2.7l-7-1-3.5-5.8c-1.8-3.1-4.7-6.5-6.5-7.7C653.6,767.1,626.1,759.2,623.1,759.6Z"></path>
                            <path id="OmskOblast" class="cls-1" data-name="Омская область" d="M569.7,827.9c-.3-.5-.3-2.5.1-4.5.8-4.3-.1-5.6-8.1-10.7-4.7-3.1-6.8-3.8-9.8-3.6-2.6.2-4.1-.2-4.6-1.2-.5-.8-1.4-7.6-2.1-15.2L544,779l4.9-9.8,4.8-9.8,6-1.5,6-1.5-.2-6c-.5-9.8-1.3-11.7-5.8-12.9-3.8-1.1-4-1.3-4.3-5.6-.2-3.6.4-5.6,3.1-10,1.8-3,3.7-5.4,4.2-5.2s1.6,2,2.4,4.2c1.4,4.3.8,4,14.6,7.4a122.24,122.24,0,0,0,14.8,2.1c8.3.6,9.1.5,13.2-1.9a36,36,0,0,1,4.9-2.6c.3,0,0,1.6-.5,3.6-.9,3.1-.5,5.1,3.1,15.1,5,14.2,5.2,18,.8,22.9-3.1,3.6-3.2,3.7-1.5,6.6,1,1.7,1.5,3.3,1.3,3.7s-3,1.3-6,2-6.1,1.8-6.8,2.5-2.4,4.9-3.6,9.4l-2.4,8.2,3.6,5,3.6,5-2,5.1c-1.1,2.8-1.9,5.8-1.7,6.6C601.1,825.3,571.8,831.3,569.7,827.9Z"></path>
                            <path id="TomskOblast" class="cls-1" data-name="Томская область" d="M705.7,792.8l-1.5-8.2h-9.5c-5.8,0-10.1-.5-11-1.2s-4.3-1.5-7.7-1.9c-6.9-.8-6.9-.8-11.2-7.6-4.1-6.6-8.4-8.9-25-13.3-8-2.1-15-4.1-15.8-4.5s-3.2-5.7-5.3-11.7c-3.8-10.3-3.9-11.1-2.8-16.2,1-4.2,2.5-6.8,7.8-13.1,6.2-7.5,6.8-7.9,10.7-8,2.3,0,4.7-.6,5.3-1.4s3.1-6.6,5.6-13.1,4.7-12,4.9-12.3,4.5-.1,9.6.3c8.7.7,9.2.9,10.6,3.6l1.5,2.9,8.2-.7c8-.6,8.4-.5,15.4,3,4,2,7.9,3.7,8.6,3.7s4.5-2,8.3-4.5c5.3-3.4,7.2-4.2,8.6-3.4,1,.5,1.8,1.4,1.8,1.9s1.1,1.4,2.4,1.9c1.5.6,3.3,2.7,4.5,5.6l2.1,4.7-2,2.8c-1.9,2.7-2,3.1-.6,5.8,1.7,3.2,2.6,3.4,18,4.8,7.9.6,8,.7,12,5.2,7.9,8.8,8.4,9.2,12.1,9.2,2.9,0,3.7.4,4.5,2.5,1.5,3.9,1.4,4-3.9,7.4-5.1,3.3-6.1,5.4-6.1,12.7,0,3,.3,3.4,4.3,4.4,9.8,2.7,12.2,3.7,12.5,5.1.2.9-1.8,4.4-4.3,7.8-3.9,5.3-4.6,6.8-4.1,9.4,1,5.8-.8,6.8-14.6,7.9-11.1.9-12.8,1.3-17.9,4.3a50.89,50.89,0,0,1-13.3,4.8,73.77,73.77,0,0,0-13.5,4.6,42.48,42.48,0,0,1-6.9,3.1C707.5,801.1,706.5,797.4,705.7,792.8Z"></path>
                            <path id="Tuva" class="cls-1" data-name="Тыва" d="M784.8,934.5c-1.1-1.2-.9-1.9.9-3.8,2.8-3,2.7-4-.9-9.7a118.59,118.59,0,0,1-5.4-10.7c-2.8-6.6-2.4-7.2,4.6-7.2,5.6,0,7.6-1.7,8.4-7.1a12.66,12.66,0,0,1,2.5-5.6c1.9-1.6,2.1-1.5,5.4,1.6,3.1,3,4.2,3.4,12.5,4.3,16.8,1.9,25.8-2.3,33.7-15.7a48.85,48.85,0,0,1,6.9-9.2c2.1-1.9,3.4-4,3.4-5.6,0-3.2,1.3-4.1,8-6,17.6-5,17.2-4.8,16.7-6.8-.9-3.6,4.5-2.2,15.8,4,9.6,5.2,11.1,5.8,13.7,4.9,2.1-.8,3.3-.7,4.3.2,1.3,1.1,1.2,1.5-.8,3.4-3.5,3.3-4.5,11.7-1.7,15.5a12.53,12.53,0,0,1,2,3.8c0,.5-3.1,5.3-7,10.8s-7,10.1-7,10.5,1.8,5.1,4,10.7,4,10.6,4,11.2-2.2,2.2-5,3.6c-4.8,2.4-5.6,2.5-24.4,2.5H860l-1.2-5.1c-.8-3.2-2-5.5-3.4-6.3-1.1-.7-8.4-2.3-16.1-3.6l-14-2.2L806,926.5c-10.6,5.3-19.4,9.6-19.6,9.6S785.5,935.4,784.8,934.5Z"></path>
                        </g>
                        <g id="Urals">
                            <path id="KurganOblast" class="cls-2" data-name="Курганскя область" d="M488.9,776.4c-10.7-1.2-15.5-1.3-18.5-.5s-6.7.6-15.2-.7c-6.1-.9-11.5-2-11.9-2.4s.6-2.3,2.1-4.3,2.5-4.1,2.2-4.8-3.5-2.1-7.1-3.1-6.6-2.1-6.6-2.4c0-1.6,6-9.8,9.4-13.1s3.6-3.6,3.6-11v-7.7l3.5-1.6a16.31,16.31,0,0,1,5.9-1.7c4.1,0,11.7,3.2,13.3,5.6,1.9,3,3,3,6.8,0,4.2-3.4,6.8-2,5.9,3.2-.9,5.5,5.3,17.9,9.4,18.7,5.2,1.1,11.1,4.4,12.8,7.2a53,53,0,0,0,6,6.8c5.8,5.4,6.3,7.7,2.5,10.4C508.8,778,505.8,778.1,488.9,776.4Z"></path>
                            <path id="SverdlovskOblast" class="cls-1" data-name="Свердловская область" d="M470.8,726c-1.4-2.1-11.2-5.9-15.4-5.9a18.21,18.21,0,0,0-6.1,2.1l-4,2.2-3.9-2.7c-2.2-1.4-4.5-2.6-5.1-2.6-1,0-4-1.3-16.1-6.7-2.1-.9-3.3-2.1-3.3-3.3,0-2.9-1.8-3.4-5.9-1.6l-3.8,1.7-6.6-3.6c-7.2-4-7.2-4-5.3-12l1.1-5,5.5-.5c5.4-.5,5.5-.6,7.9-5.3,2.4-5,3.1-5.3,9.1-3.9,4.9,1.2,5.9.6,6.6-4,.7-4.2.2-3.8,11.2-8.4,2.8-1.2,3.2-1.9,3-4.7a11.14,11.14,0,0,1,1.5-5.8c2.2-3.1,2.1-5.1-.3-9.7-2.8-5.2-2.6-8,.8-9.4,2.6-1.2,9.9-8.3,16.6-16.3a21,21,0,0,0,4.1-8c.8-4.7,3.2-9.7,5.1-10.8a3.26,3.26,0,0,0,1.4-2.6,7.42,7.42,0,0,1,1.4-3.7c1.4-1.9,1.5-1.8,2.5,1.1,1.8,5,2.6,5.9,7.4,8.5,3.8,2,5.6,4.1,10.3,11.9l5.7,9.3-2.2,9.4-2.1,9.3,2.2,4.4c2,4.3,2,4.7.6,10.6l-1.6,6.1,3,2.5a17.82,17.82,0,0,0,3.6,2.5,11.35,11.35,0,0,1,3.5,2.5c2.3,2.2,2.7,3.3,2.7,8.3.1,3.1.7,6.8,1.5,8.2s1.5,4.8,1.5,7.6v5.1l-3.7.6c-5.8,1-9.8.8-11-.5-1.8-1.7-8.3,13.1-8.3,18.8,0,2.4-.2,4.4-.5,4.4a18.44,18.44,0,0,1-3.6-1.6c-2.8-1.4-3.1-1.4-6.3,1.1l-3.3,2.5Z"></path>
                            <path id="TyumenOblast" class="cls-1" data-name="Тюменская область" d="M528.2,775.8c-8.5-2.9-9.4-3.4-10.4-6.4-.5-1.8-2.8-4.7-4.9-6.4a21.76,21.76,0,0,1-5.2-5.7c-1.7-3.5-8.3-7.9-13-8.6-3.4-.6-4-1.2-6.8-6.7-3.5-7.2-3.7-8.8-1-12.2,1.4-1.8,2-4.1,2-7.7a21.47,21.47,0,0,1,2.5-10c2.7-5.3,3.5-5.6,15.5-6.3l4.5-.2.3-5.3c.3-4.9.5-5.2,2.9-5.2a20.9,20.9,0,0,0,6.7-1.9,88.61,88.61,0,0,1,13-4.1c10-2.4,18.7-7.6,20.7-12.3.6-1.5,1.6-2.7,2.2-2.7s5.4,2.4,10.7,5.4c9.6,5.5,9.7,5.6,15.3,14.8a147.35,147.35,0,0,1,7.6,13.9c2,4.5,2.3,4.7,11.3,7.8,5.1,1.8,9.7,3.6,10.2,4.1s-1.6,2.4-4.5,4.3c-5.4,3.4-5.4,3.5-12.4,2.5a163.58,163.58,0,0,1-21.7-3.9c-3.3-.9-3.9-1.6-5.9-7-1.5-4-2.7-5.9-3.9-5.9-1,0-3.6,3-6.6,7.7-4.6,7.3-4.9,8.2-4.9,14.6,0,7.1.9,8.6,5.1,8.7,3,0,4.2,1.8,4.9,7.6l.7,5-5.6,1.3-5.7,1.2-5.7,11.5c-3.6,7.3-6.2,11.3-7.2,11.3C538.1,778.9,533.2,777.5,528.2,775.8Z"></path>
                            <path id="KhantiaMansia" class="cls-1" data-name="Ханты-Мансийский автономный округ" d="M604.8,714.8c-8.9-3.3-11.9-5.1-11.9-7.2,0-.6-3.1-6.3-6.9-12.6l-6.8-11.4-11.3-6.5c-10.4-5.9-11.4-6.3-12.4-4.6-4.8,8.1-11.2,12.2-23.5,15.1a90.08,90.08,0,0,0-12.6,3.9c-5.2,2.7-7.2,2.1-9.5-2.9a26,26,0,0,1-2-9.8v-5.4l-5.5-3.7c-6-4-6.2-4.6-4.4-12.3,1-4.3.9-5.3-1-8.7l-2.2-3.9,2.1-9.4,2.2-9.4-6.3-10.6c-5.5-9.4-6.8-10.8-10.7-12.6-3.3-1.4-4.8-2.8-5.9-5.6-2.4-5.7-1.9-9.7,3-22.1,4.7-11.8,5.7-13.2,15.1-20.3,3.1-2.4,3.6-3.4,3.6-6.8s.7-4.8,4.4-8.7c4.2-4.4,4.6-4.6,6.9-3.3s3,1,9.8-3.8c4-2.8,8.3-5.1,9.6-5.1,2.2,0,2.3.4,2.3,6.3,0,5.2-.6,7.4-3.1,12l-3.1,5.7,3.6,4.8,3.5,4.8,10.8,1.3c6.7.8,12.7,2.1,15.9,3.5,5,2.3,5.1,2.4,5,6.6s.1,4.5,4.8,7.2l4.9,2.9,7.3-2.2,7.4-2.2,4.8,4c4.3,3.6,4.8,4.4,5.3,9.4.3,3.4,1.9,8.2,4.4,13.1l3.9,7.8h6.4c6.2,0,6.6.1,13.2,5.4,6.2,4.9,7.5,5.5,15.6,6.9l8.8,1.6,7,7.6,7,7.5h19.3l5.7-4.7,5.7-4.7,5.7,6.2c5.4,5.8,6,6.2,10.2,6.2,3.2,0,5.9.9,10.4,3.5,3.3,2,6.7,4,7.5,4.4s1.4,1.8,1.2,3.4c-.6,4.9,3.3,11.4,8.7,14.8,2.8,1.7,4.8,3.6,4.5,4.1-1.2,1.8-14.3,9.8-16.2,9.8a6.23,6.23,0,0,1-3.7-2,5.93,5.93,0,0,0-3.1-2c-.7,0-4.8,2.1-9,4.7l-7.6,4.7-7.4-3.8c-7.3-3.8-7.6-3.8-14.9-3.2s-7.5.7-8.6-1.9a5.91,5.91,0,0,0-3.3-3c-4.2-.8-20.3-1.4-21.3-.7-.6.4-2.9,5.5-5.1,11.3-5.6,14.9-5.6,14.9-10.1,14.9-3.6,0-4.3.5-10.1,7.4-3.5,4.2-7.1,7.5-7.9,7.5S609.5,716.5,604.8,714.8Z"></path>
                            <path id="YamaloNenetsAutDistrict" class="cls-2" data-name="Ямало-Ненецкий автономный округ" d="M723.6,646.6c-5.7-3.4-8.8-4.5-11.8-4.5-3.6,0-4.6-.6-9.2-5.6-7.5-8.1-7.5-8.1-14.2-2.4l-5.8,5H665.3l-6.7-7.4-6.7-7.4-9.1-1.7c-8.4-1.7-9.7-2.3-15.9-7.2-6.6-5.1-7.1-5.3-13.2-5.4h-6.3l-3.8-8.2c-2.4-5.4-3.7-9.7-3.7-12.4,0-3.8-.5-4.6-5.2-8.8-2.9-2.5-6-4.5-6.9-4.5a43.11,43.11,0,0,0-8,1.9l-6.2,2-4.2-2.5c-3.8-2.2-4.2-2.8-4.2-6.6,0-6.4-5.1-8.9-22.1-10.9-10.2-1.2-10.3-1.2-12.7-4.8-3.1-4.5-3.1-4.9,0-10.3,2-3.6,2.5-5.7,2.5-12v-7.7l3-.6c1.6-.4,5.2-2.7,7.9-5.1,4.6-4.2,5.7-4.6,13.8-6,12-2.1,11.1-1.7,19-9.2,5.2-5,7.5-8,8.4-11.1,1.1-3.7,1.1-4.5-.2-5.2-4.4-2.7-4.4-2.5-.6-8.1,2.1-2.9,3.7-5.9,3.7-6.5a31.42,31.42,0,0,0-2.6-6.3c-2.6-5.2-2.6-8-.1-8,.7,0,5.7,6.7,11.1,15,7,10.6,10.4,15,11.7,15s3.1-1.8,5-4.8c3.9-6.2,4.4-8.5,2.4-11.6-1.3-2-1.5-3.7-.9-8.2.7-5.7.7-5.7-3-8.8l-3.8-3.1,2.4-3a77.27,77.27,0,0,0,6-10.9c3.5-7.7,3.6-8.1,2.1-10.7-2.7-4.6-1.2-7.1,8.1-12.9,7.5-4.7,9.2-6.4,16-15.6,4.9-6.7,8.3-10.4,9.5-10.4,1.9,0,13,3.8,14.3,5,.5.4.5,3,.1,5.9-.6,4.4-1.7,6.4-7.5,13.7-3.8,4.8-6.9,9.5-6.9,10.7a44.63,44.63,0,0,0,1.6,7.9c1.6,5.7,1.6,5.9-1,13.7-1.4,4.4-2.6,8.8-2.6,9.8s-1.6,6.6-3.5,12.3-3.5,11.3-3.5,12.4,1.2,4.8,2.6,8.1l2.5,6.1-4.1,7.7c-2.3,4.2-4.5,7.7-5,7.7s-3.6,3.3-7,7.5c-5.9,7.3-6.1,7.5-10.6,7.5a51.85,51.85,0,0,1-11.3-2.1c-14-4.3-16.5-1.1-6.8,8.8,6.9,7.1,14.3,11.2,20,11.3,6,0,17.6-5.9,22-11.4a52.38,52.38,0,0,1,9.8-8.7l5.9-4V507.6c0-12.8.5-14,6.7-15.1,5.7-1.1,8.4,1,10.1,7.6,3.3,13.4,3.1,13,6,13a15.31,15.31,0,0,0,6.1-2.1l3.3-2-.7-7.2a60.83,60.83,0,0,0-1.5-9.3c-.5-1.2-3.9-4.3-7.6-7-5.7-4.1-7.9-5-13.8-5.9-6.2-.9-7.1-1.3-7.7-3.5-1.7-6.3-1-9.5,4.1-17.5,2.8-4.4,5-8.4,5-9s-1.1-5.5-2.4-11c-2.8-11.2-2.5-12.5,3.6-18.1,5.1-4.8,12.3-9.6,12.6-8.6.2.6-1.3,5.2-3.2,10.5a89.58,89.58,0,0,0-3.6,10.6c0,2.2,19.1,13.1,23.1,13.1,2.3,0,4.8-2.6,4.9-4.9,0-.7-2.9-4.6-6.5-8.6s-6.5-8-6.5-8.8c0-2.7,2-3.1,4.4-.8s4.7,2.6,7.7,1c2.6-1.3,2.4-3.2-.7-8.5-2.1-3.6-2.4-4.7-1.4-6,3-3.5,7.2-.3,4.7,3.7-1,1.6-.9,2.2.3,3.2a53.79,53.79,0,0,1,6,6l4.3,4.8-4.6,4.7c-2.6,2.6-4.7,5.2-4.7,5.8s2,3.4,4.5,6.2c4.8,5.2,5.2,7.1,3.4,13.3-.9,2.9-2.8,5.1-8,9.1-3.7,2.9-7,5.8-7.3,6.5-.5,1.1,4,8.3,9.6,15.3,2.7,3.4,2.8,3.4,7,2.3,2.4-.7,4.6-.9,5-.5s1.9,4,3.3,8l2.5,7.2-5,9.9-5,9.8,1.1,7.9a38.42,38.42,0,0,0,4.2,13.4c2.7,4.8,3.1,6.7,3.5,15,.5,10.3,1.3,13,4,13,3.4,0,4.2,2.1,4.2,11.1,0,9.7.7,10.8,7.5,12.4,5,1.2,5.5,2.2,5.5,9.9,0,6.9-.2,7.5-4.1,13l-4.2,5.8,1.7,5.2a38.44,38.44,0,0,1,1.6,6.7c0,1.8-9.8,12.9-11.3,12.9C731.8,651.1,727.8,649,723.6,646.6Z"></path>
                            <path id="ChelyabinskOblast" class="cls-1" data-name="Челябинская область" d="M386.3,800.6a9.31,9.31,0,0,1,.5-4.7c1.4-4,.3-5.5-5.2-6.4-7.6-1.2-8-1.8-5.4-7.2,1.3-2.6,3.4-7.5,4.7-11,2.9-8,9.7-14.8,13.8-13.8,6.8,1.7,7.5,1.4,10.9-4.9,5.3-9.8,4.1-13.4-3.8-11.6-3.4.7-6.3.5-12.8-.9-4.6-1-8.6-2.2-9-2.7a33.74,33.74,0,0,1-2.6-5.2l-1.9-4.3L378,726c4.3-3.4,6.5-3.4,10.6-.2,3.2,2.6,5,3.1,11.9,3.7,9.4.9,9.2,1,12.4-8.7,1.2-3.7,2.5-6.7,2.8-6.7,2.1,0,23.1,9.2,25.6,11.2s3,3.2,3.4,7.9c.4,5.6.4,5.6-4.6,11.2s-9.2,12.3-9.2,15c0,.9,2.4,2.1,6.5,3.2,3.6,1,6.5,2,6.5,2.2a34.33,34.33,0,0,1-2.1,4.3c-2.6,4.6-3.6,4.6-16.7-.2-9.3-3.4-11.6-3.1-14.7,1.5-1.5,2.4-1.5,3,.9,10.3,2.6,8.3,2.1,9.8-2.3,7.4-2.9-1.6-10.7-1.3-12.5.5-.8.8-1.8,3.5-2.2,6s-1.3,5.2-2.1,6C390.3,802.5,387,802.5,386.3,800.6Z"></path>
                        </g>
                        <g id="Volga">
                            <path id="OrenburgOblast" class="cls-1" data-name="Оренбургская область" d="M378.6,829.3c-4.8-3-6.1-3.4-7.5-2.4-5.2,3.7-6,3.7-10.1-.3-3.2-3-4.1-4.8-4.6-8.8-1.2-8.1-6.6-11.6-13.9-8.8-2.8,1.1-2.6,1.2-9.9-7.4l-2.5-3-8.3,1.7c-4.6,1-8.9,1.8-9.6,1.8s-1.7-1.8-2.3-3.9a18.74,18.74,0,0,0-2.8-6.2c-1.6-1.9-2.1-2-4-1-1.2.6-2.6.9-3.1.6s-1.6-4.7-2.6-9.8a98.61,98.61,0,0,0-2.6-10.9c-.5-1-2.9-2.6-5.4-3.7-4.4-2-4.5-2.1-4.5-6.9,0-6.5-1-7.3-8.5-6.5l-6.2.5-.6-3.2c-1-4.7-1.1-4.6,3.3-5.9a12.76,12.76,0,0,0,6.3-4.3c1.4-1.9,5.2-4.4,10.2-6.8,6.9-3.3,9.1-4.9,16.3-12.8,4.5-5,8.2-9.9,8.2-10.9s1.4.2,3.5,3.4c3.2,4.7,3.5,5.8,3.6,12.5,0,6.3.6,8.8,4.8,19.2,4.4,10.8,4.7,12.2,3.9,16.4-1.2,6.5-.6,7.5,4.2,6.9,2.2-.3,4.2-.2,4.5.3.8,1.2-1.3,6.1-3.2,7.5-1.5,1.1-1.4,1.5.5,4.6s2,3.7.7,6.3c-2.5,4.7-1.9,6.2,2.3,6.9,5.7,1,9,.8,11.2-.6,1.7-1,2.5-.7,5.9,2.7,4.7,4.5,6.2,4.3,9.1-1.4,1.1-2.2,2.8-4,3.7-4,4,0,14.3,2.4,14.3,3.4a28.46,28.46,0,0,1-1.7,5.8l-1.7,4.7,5.6,8.3c8.5,12.9,8.3,12.1,4.7,16.2-1.7,2-3.6,3.6-4.2,3.5S381.8,831.4,378.6,829.3Z"></path>
                            <path id="Bashkortostan" class="cls-1" data-name="Республика Башкортостан" d="M355.6,792.9c-3.3-2.7-4.1-3-6.3-2-2.6,1.2-9.6,1.6-10.6.6-.3-.3-.1-2.1.5-4a8.29,8.29,0,0,0,.1-5.6c-.7-1.6-.5-3.7.8-7.6,2.6-8,2.6-8.2-3.1-8.2h-4.9l.5-5.3c.5-4.7,0-6.5-4.1-16.1-3.7-8.8-4.6-11.9-4.6-16.7,0-5.4.4-6.6,4.7-13,3.3-5,4.9-8.5,5.3-11.7l.5-4.7,7.5-2.3c9-2.8,9.8-3.4,8.1-6.6-2-3.6-1.1-4.6,5.6-7.2l6.2-2.3,2.5,3.3c2,2.7,3.4,3.4,7.5,4,5.3.7,7.5,2.7,11.1,9.9a8.59,8.59,0,0,0,4,3.8,18.89,18.89,0,0,1,4.5,2.8c3.8,3.4,15.5,9.3,17.5,8.8,2.5-.7,2.5.9.1,7.8l-1.8,5-5.7.3c-6,.3-10.1-1.4-14.1-5.8a5.77,5.77,0,0,0-3.2-2c-2.5,0-12.3,7.2-12.3,9,0,3.1,5.2,13.9,6.9,14.4,6.8,2,16.4,3.6,20.3,3.4,2.6-.1,5.1.1,5.4.4s-.5,2.7-2,5.2c-2.5,4.3-2.7,4.4-5.6,3.4a11.12,11.12,0,0,0-5.3-.5c-2.6.7-12.7,10-12.7,11.7,0,.7-2,6.1-4.6,12-3.6,8.6-5,10.9-6.7,11.2-1.3.1-3,1.7-4.2,4-1.1,2.1-2.4,3.8-3,3.7S357.7,794.6,355.6,792.9Z"></path>
                            <path id="SaratovOblast" class="cls-1" data-name="Саратовская область" d="M213.1,760.4a27.63,27.63,0,0,1-1.7-5.3,110.68,110.68,0,0,0-4.3-12.8c-3.1-8.1-3.9-9.4-6.3-9.9-1.7-.3-3.4-1.8-4.8-4.4-1.6-2.9-3-4-5.4-4.5l-3.3-.6.1-8.7c0-5.6-.4-9.4-1.2-10.3s-4.7-2.3-8.9-3.4c-6.9-1.7-7.8-2.2-9.2-5.1-1.2-2.6-1.3-3.8-.4-5.6a19,19,0,0,0,1.4-6.2c.3-3.9.5-4.1,7.8-7.8,4.1-2,8-3.7,8.6-3.7s2.8,1.8,5,4.1,7,6.8,10.7,10.1c6.2,5.5,7.6,6.3,15.6,8.4,6.8,1.8,9.7,3.2,12.7,5.8a25.9,25.9,0,0,0,8.3,5.1c2.6.9,5.2,2,6,2.3,3.9,2,19.5,36.2,17.1,37.7-1.3.8-21.6,4.2-30.2,5.1-7.4.7-9.5,2.2-11.3,7.7C218.2,762.1,214.6,763.2,213.1,760.4Z"></path>
                            <path id="SamaraOblast" class="cls-1" data-name="Самарская область" d="M262,736.9c-2-6.5-9.6-22.1-12.4-25.6-.8-1-.4-1.5,1.3-1.9,2.1-.6,2.2-.9,1.5-7.6-.8-8.5-.6-8.7,9.1-8.7,6.7,0,7.3.2,12.4,4a64.09,64.09,0,0,0,5.8,4,57.06,57.06,0,0,0,5.6-4.5l5.3-4.5,2.2,3c2.5,3.5,4.1,3.7,6.6,1,2.3-2.6,3.7-2.6,6.7.3,1.6,1.5,2.9,4.3,3.8,8.4l1.3,6.2-7.4,8.3c-8.8,9.8-7.8,9-15.9,12.5a34.32,34.32,0,0,0-10.6,7c-2.6,2.6-5.1,4.3-6.5,4.3a20.43,20.43,0,0,0-4.4.5C264.6,744.1,264,743.3,262,736.9Z"></path>
                            <path id="Tatarstan" class="cls-1" data-name="Республика Татарстан" d="M318.9,711c-2.3-3.3-4.5-5.7-5-5.4-.8.5-3-5.4-3-8.2,0-1.3-6.3-6.3-8-6.3a9.25,9.25,0,0,0-3.8,2l-2.7,2.1-2.2-2.8c-1.3-1.6-2.3-3.3-2.3-3.9s-1.1-2.1-2.3-3.3A16.92,16.92,0,0,1,286,679c-1-3.5-1.5-3.9-4.4-3.9-3.7-.1-4.7-.6-7-4.2-1.4-2.3-2.5-2.8-6.9-3-3.7-.2-5.4-.8-5.6-1.8s.6-1.6,2.5-1.6c1.6,0,5-.1,7.6-.2l4.9-.2-.4-4.2-.3-4.2,5.5-1.8c3-1,9.6-3.1,14.7-4.7l9.1-2.9,3.6,2.4c2.4,1.7,4.3,2.2,6,1.8,2.6-.6,2.8-.2,5.2,13,.8,4.4,4,12.2,5.3,13,.5.3,4.8-.8,9.6-2.4s9.2-2.7,9.6-2.5c1.8,1.1.8,4.5-2.1,7.8-3.7,4.2-3.7,5.3-.5,6.1s5.8,5.6,3.5,6.4c-.8.3-4.2,1.5-7.5,2.6l-6,2.1-.5,4.6a25,25,0,0,1-4.3,10.3c-2,3-3.9,5.6-4.2,5.6A39.88,39.88,0,0,1,318.9,711Z"></path>
                            <path id="UlyanovskOblast" class="cls-1" data-name="Ульяновская область" d="M242.6,704.6a38,38,0,0,1-8.9-4.1l-4.1-2.6,5.8-5.2,5.9-5.2-1.3-6a41.17,41.17,0,0,1-.9-9.9l.3-4,5.4-.3c4.9-.3,5.4-.6,6.4-3.3.6-1.6,1.6-2.9,2.2-2.9,2.3,0,5.4,3.1,5.7,5.7.2,1.5,1,2.8,1.8,2.9,11.1,1.5,11,1.5,12.5,4.4,1.3,2.4,2.2,3,5.1,3,3.1,0,3.7.4,5.1,3.7a25.19,25.19,0,0,0,3.6,6.1l2.2,2.3-4.7,4.5-4.8,4.5-5.3-4.1c-5-3.7-5.8-4-11.8-4a48.44,48.44,0,0,0-10.3,1.1l-3.8,1,.6,6.9C250.1,706.9,250.4,706.7,242.6,704.6Z"></path>
                            <path id="PermKrai" class="cls-1" data-name="Пермский край" d="M387.4,698.3c-.6-.4-2.6-3.2-4.4-6.2s-3.4-5.6-3.5-5.8a53,53,0,0,0-5.7-1.2c-4.2-.8-6-1.8-8.2-4.3-2.5-2.9-6.1-9.7-5.5-10.3.2-.1,2-.9,4.1-1.8s3.7-2.1,3.7-2.9,1.8-5.1,4-9.6c2.5-5.2,4-9.7,4-12.1,0-6,1.1-9.8,3.5-12.3a24.44,24.44,0,0,0,3.7-5.2c1.4-2.6,1.4-3.4.1-7-1.3-3.9-1.3-4.1.9-5.9,3.8-3,10.5-9.4,11.3-10.6.3-.6-1.9-3.7-5-6.9-5.5-5.9-5.6-6-5.3-11.3.3-5.1.5-5.3,3.2-5.7a34.44,34.44,0,0,1,6.3.3c2.8.6,3.8,1.5,5.6,5.4,2.2,4.5,2.4,4.7,10.5,7.1l8.2,2.4,10-1.8c11.1-2.1,12.5-1.9,26.3,3.1,4.2,1.5,7.7,3.4,7.7,4.1a17.15,17.15,0,0,1-2,5,17.2,17.2,0,0,0-2,6.4c0,4.6-14.5,20.9-20.5,22.9l-3.7,1.2.5,4.7a29.74,29.74,0,0,0,2.3,8.3c1.6,3.4,1.6,3.8.1,6.2a11.82,11.82,0,0,0-1.7,5.5c0,2.7-.5,3.1-5.7,5-6.4,2.4-8.3,4.2-8.3,7.9,0,2.4-.1,2.4-6,1.8L410,674l-2.5,5-2.6,5-5.7.3-5.8.3-1.5,6.9C390.4,698.3,389.4,699.8,387.4,698.3Z"></path>
                            <path id="PenzaOblast" class="cls-1" data-name="Пензенская область" d="M218.1,692.3c-9.1-2.6-9.7-3-18.7-11.2-5.1-4.7-9.6-9.2-9.9-9.9a2.18,2.18,0,0,1,.9-2.5c1.3-1,1.5-3.2,1.3-13.1l-.3-11.9,2.7-1c3.9-1.4,14.9,5.9,19.4,13,4.1,6.3,4.6,6.7,7,4.9,1.6-1.1,2.6-1,7.4,1.1,8.3,3.7,8.7,4.4,9.3,15.7l.4,9.7-4.6,4a29.18,29.18,0,0,1-5.1,3.9C227.6,695,223.2,693.7,218.1,692.3Z"></path>
                            <path id="Udmurtia" class="cls-1" data-name="Удмуртская Республика" d="M345.7,680.8c1.7-1.8,2.2-3.6,2.2-7.5,0-6.3-.1-6.3-11.8-2.5-8.2,2.7-8.4,2.7-9.8.8-1.9-2.6-1.8-4.5.7-11,1.4-3.9,2.6-5.5,3.9-5.5,2.5,0,3.7-1.8,4.5-7,1-6.1,1.4-6.5,5.9-6.5,3.8,0,4.1-.3,8.6-7.5,5.5-8.6,5-8.5,16-3.2l7.5,3.7-.3,7c-.2,4.4-.9,8.1-2,10a63.5,63.5,0,0,0-4,8.5c-1.9,4.6-2.9,5.7-6.3,7.2-3.6,1.5-4,2-3.4,4,1.9,5.9,1.4,7-5,9.4C344.6,683.8,342.9,683.8,345.7,680.8Z"></path>
                            <path id="Mordovia" class="cls-1" data-name="Республика Мордовия" d="M230.1,659.8c-6.2-3-8.6-3.7-9.4-2.9-1.9,1.8-2.4,1.5-5.3-3.4-1.8-3.1-4.8-6-9.5-9.1l-7-4.6,3.8-4.1c2.1-2.3,5.3-5.9,7.2-8,5.1-5.6,6.3-6,12.1-4.1l4.9,1.6v7c0,5.9.5,7.7,3.1,12.4,1.7,3,3.4,5.7,3.9,5.9s4-1.1,7.9-3,7.4-3.4,7.6-3.4a17.36,17.36,0,0,1,2.4,4l2.1,4-3,6-3,6-4.8-.1C239.7,663.9,236.1,662.8,230.1,659.8Z"></path>
                            <path id="Chuvashia" class="cls-1" data-name="Чувашская Республика" d="M257.8,660.1c-2.9-2.4-3.1-2.9-2.2-5.7.7-1.8.7-3.6.2-4.4-1.5-2.4-1-3.4,2.4-4.9,2.9-1.4,3.2-2,3.5-6.7.3-5.1.4-5.3,3.8-5.9,1.9-.4,5.9,0,9.1.8l5.8,1.4,1.8,5.4c.9,3,2,6.2,2.3,7.2.4,1.3-.8,2.4-5.3,4.5-5.5,2.6-5.8,3-5.5,6,.3,3.7-.1,3.9-7.5,4.5C261.7,662.7,260.6,662.4,257.8,660.1Z"></path>
                            <path id="KirovOblast" class="cls-1" data-name="Кировская область" d="M322.5,659.9c-.3-.7-1.7-8.3-3.2-16.7s-3.4-16-4-16.6c-1.3-1.3-17-5.1-19.3-4.6a13.82,13.82,0,0,0-4.2,2.3c-1.6,1.2-3,1.9-3.2,1.7a21.88,21.88,0,0,1-1-5c-.5-4.1-.3-4.8,3-8.2,2.1-2.3,4.1-3.6,5.2-3.3.9.2,2.7.7,3.9,1.1,1.7.5,3.5-.1,6.3-2.1,2.1-1.5,3.9-3.1,3.9-3.5s-2.4-2.8-5.4-5.1-5.5-4.8-5.5-5.5,2.1-2.5,4.7-4.2c4.3-2.8,5.7-3.1,12-3.1h7.2v-6.4c0-5.4.4-6.6,2.5-8.6,1.4-1.3,2.5-3,2.5-3.7s1-3.3,2.1-5.6c1.7-3.2,1.9-4.5,1-5.9-1-1.6-.3-2.2,5.9-5.3a55.53,55.53,0,0,1,7.9-3.5c.5,0,1.7,1.2,2.6,2.7,1.7,2.5,1.7,3,.1,9.2-1.3,4.8-2.7,7.6-5.4,10.3l-3.6,3.8,1.1,5.2c2,9.7,4.4,16.8,5.7,16.8.7,0,3.6-2.1,6.5-4.5s5.3-4.5,5.4-4.5,3.6.9,7.7,2a61.39,61.39,0,0,0,12.5,2c4.8.1,5.2.3,10,5.7l5,5.6-7,6.4-6.9,6.4,1.6,4.4c1.6,4.3,1.6,4.3-1.4,8.4a25.19,25.19,0,0,1-3.4,4.1,41.37,41.37,0,0,1-5.3-2.5c-8.7-4.4-15.3-6.6-16.7-5.4-.7.5-3.1,4.1-5.3,7.9-4.1,6.8-4.2,6.9-8.8,7.2l-4.8.3-1.3,6.2c-1.1,4.9-1.8,6.3-3.2,6.3-2.2,0-3.6,1.6-4.5,5.2C324.6,660.5,323.1,661.8,322.5,659.9Z"></path>
                            <path id="MariEl" class="cls-1" data-name="Республика Марий Эл" d="M287.6,648.4c-.2-.5-1.5-4.3-2.7-8.6-1.4-4.8-2.9-7.9-3.9-8.1s-4.2-1-7.4-1.6l-5.8-1.2.3-5.6.3-5.5,4.5-1.3c3.8-1.2,4.8-1.1,6.7.1a9.19,9.19,0,0,0,3.6,1.5c1,0,1.7,1.8,2.1,6,.8,7,1.7,7.3,7.6,3.1l4-2.9,8.2,1.9a78.79,78.79,0,0,1,8.5,2.3,65.5,65.5,0,0,1,1.8,8.6c1.3,7.4,1.3,8.6,0,9.9s-1.8,1.2-4.3-.7a19.88,19.88,0,0,0-4.3-2.4c-1.2-.2-12.2,2.8-17.3,4.8A1.76,1.76,0,0,1,287.6,648.4Z"></path>
                            <path id="NizhnyNovgorodOblast" class="cls-1" data-name="Нижегородская область" d="M231.9,642.3a32.53,32.53,0,0,1-3-12.2l-.5-7.4-6.1-1.8c-6.1-1.8-10.2-5.4-9.1-8.2.3-.6,6.9-4,14.7-7.6,11.1-5.1,14.5-7.1,15.6-9.3,1.7-3.1,1.5-3.1,6.5-1.6,3.5,1,4,.9,6.7-1.3,2.5-2.1,4.4-2.6,11.4-3.1,4.7-.3,9.4-1.1,10.6-1.9,2-1.2,2.7-1,6.8,1.2A126.71,126.71,0,0,1,298,598c7.8,6.1,7.9,6.4,6.2,8.3s-5.2,1.9-9.7.2c-.8-.3-3.5,1.7-6.1,4.5l-4.7,5-2.7-2c-2.5-1.9-2.8-1.9-9.1-.2l-6.5,1.8-.3,6.8c-.3,6.5-.4,6.8-3.2,7.8s-3,1.4-3,6.3c0,4.6-.3,5.4-2.6,6.6s-2.7,1.2-3.9-.3c-1.6-2.3-2.3-2.2-9.7,1.3a49.7,49.7,0,0,1-7.3,3C234.8,647.1,233.2,644.9,231.9,642.3Z"></path>
                        </g>
                    </g>
                    <g id="KrymOblast">
                        <path id="Krym" class="cls-1" data-name="Республика Крым" xmlns="http://www.w3.org/2000/svg" d="M0.416942 745.862C0.716942 743.262 6.41694 741.562 8.21694 741.062C8.41694 740.962 10.8169 740.262 13.4169 738.762C14.0169 738.362 15.0169 737.762 14.9169 737.062C14.8169 736.462 14.2169 736.462 13.7169 735.662C13.3169 734.862 13.2169 733.662 13.8169 733.162C14.4169 732.662 15.3169 733.262 18.9169 734.462C21.6169 735.362 21.8169 735.362 22.6169 735.862C24.2169 736.862 24.0169 737.362 25.6169 738.662C27.7169 740.162 28.4169 739.662 30.1169 741.162C30.4169 741.462 32.5169 743.362 32.0169 744.862C31.8169 745.562 31.1169 745.662 31.1169 746.162C31.1169 747.062 32.9169 748.362 34.8169 748.562C37.6169 748.862 38.4169 746.762 43.9169 745.062C44.7169 744.762 46.6169 744.262 48.5169 744.862C48.9169 744.962 50.4169 745.462 50.4169 746.162C50.4169 746.862 49.2169 746.862 48.8169 747.862C48.2169 749.262 50.2169 750.662 49.7169 751.662C49.4169 752.162 48.8169 752.162 46.7169 752.462C42.8169 753.062 41.9169 753.662 40.7169 752.862C39.9169 752.362 40.1169 751.962 39.2169 751.462C38.4169 750.962 37.0169 750.662 35.9169 751.162C33.8169 752.162 34.8169 755.362 32.9169 756.462C31.5169 757.162 30.6169 755.862 28.4169 756.262C26.6169 756.662 26.3169 757.662 23.8169 759.762C21.3169 761.862 19.4169 763.362 17.0169 763.462C14.6169 763.662 11.5169 762.462 11.0169 760.562C10.5169 758.462 13.9169 757.362 14.0169 753.662C14.0169 753.462 14.1169 750.562 12.5169 749.662C11.1169 748.862 9.71694 750.262 7.81694 749.262C6.61694 748.662 6.71694 747.962 5.61694 747.662C4.01694 747.262 3.11694 748.662 1.91694 748.162C1.11694 748.162 0.316942 746.962 0.416942 745.862Z"></path>
                    </g>
                </svg>