<svg width="60" height="60" viewBox="0 0 60 60" fill="none" xmlns="http://www.w3.org/2000/svg">
<rect width="60" height="60" rx="30" fill="white"/>
<g clip-path="url(#clip0_40_23827)">
<path fill-rule="evenodd" clip-rule="evenodd" d="M35.0111 20.957C35.4688 20.9598 35.9225 20.8717 36.3459 20.6979C36.7693 20.524 37.154 20.2679 37.4777 19.9443C37.8014 19.6207 38.0577 19.2361 38.2316 18.8127C38.4056 18.3894 38.4938 17.9357 38.4911 17.478C38.4757 16.5657 38.1024 15.6959 37.4517 15.0562C36.8011 14.4165 35.9251 14.058 35.0126 14.058C34.1002 14.058 33.2242 14.4165 32.5735 15.0562C31.9229 15.6959 31.5496 16.5657 31.5341 17.478C31.5313 17.9355 31.6194 18.389 31.7931 18.8122C31.9668 19.2354 32.2228 19.6199 32.5462 19.9435C32.8696 20.2671 33.254 20.5233 33.6771 20.6973C34.1002 20.8712 34.5537 20.9595 35.0111 20.957ZM41.3111 21.483C39.2751 24.305 36.5841 24.633 33.6951 22.927C33.2941 22.6618 32.8777 22.4207 32.4481 22.205C27.7871 19.448 23.1271 20.498 20.0411 24.896C18.7291 26.734 21.8141 28.506 23.0621 26.669C24.7021 24.369 26.7371 23.714 28.9701 24.437C27.8541 26.472 26.8031 28.437 25.4241 31.198C23.9791 34.021 20.8951 36.253 17.8741 34.546C17.6716 34.411 17.4442 34.3178 17.2051 34.2718C16.9661 34.2258 16.7203 34.228 16.4822 34.2781C16.244 34.3283 16.0182 34.4254 15.8181 34.5639C15.6179 34.7024 15.4474 34.8794 15.3165 35.0846C15.1856 35.2898 15.0969 35.5191 15.0557 35.759C15.0145 35.9989 15.0216 36.2445 15.0765 36.4817C15.1314 36.7188 15.233 36.9426 15.3755 37.1399C15.518 37.3373 15.6984 37.5042 15.9061 37.631C17.7479 38.6811 19.9039 39.0399 21.9865 38.6429C24.0691 38.2459 25.9419 37.1191 27.2681 35.465C27.3341 35.465 27.4681 35.53 27.5301 35.53C29.4876 36.344 31.322 37.4271 32.9801 38.748C33.7671 39.403 35.1451 42.748 35.9331 44.458C36.9841 46.493 40.1331 45.048 39.1501 42.948C38.2301 41.048 36.6551 37.237 35.4741 36.253C34.0502 35.1542 32.559 34.1456 31.0091 33.233C32.1261 31.133 33.2421 29.098 34.4231 27.063C38.1651 28.178 41.7761 26.863 44.3361 23.255C45.6481 21.418 42.6301 19.645 41.3171 21.483H41.3111Z" fill="#DDDAE2"/>
</g>
<defs>
<clipPath id="clip0_40_23827">
<rect width="29.658" height="31.438" fill="white" transform="translate(15 14)"/>
</clipPath>
</defs>
</svg>
