<svg width="37" height="16" viewBox="0 0 37 16" fill="none" xmlns="http://www.w3.org/2000/svg">
<g clip-path="url(#clip0_2_40696)">
<path d="M13.6992 12.8667H12.3096V12.04C11.7852 12.6667 11.3264 12.9734 10.8479 12.9734C10.4153 12.9734 10.1269 12.7734 9.96958 12.3934C9.89092 12.16 9.82538 11.8067 9.82538 11.28V5.26669H11.215V11.44C11.2477 11.64 11.3329 11.72 11.5099 11.72C11.7721 11.72 12.0212 11.4734 12.3161 11.0534V5.26669H13.7057V12.8667H13.6992ZM8.78319 7.74669C8.78319 6.93336 8.63244 6.32669 8.35059 5.94669C7.98353 5.41336 7.40017 5.21336 6.81025 5.21336C6.14168 5.21336 5.63042 5.41336 5.26992 5.94669C4.98151 6.32669 4.83076 6.94669 4.83076 7.74669V10.46C4.83076 11.26 4.96185 11.82 5.25025 12.1934C5.61731 12.7267 6.22034 12.9934 6.8037 12.9934C7.39361 12.9934 7.99664 12.7267 8.37681 12.1934C8.63899 11.82 8.77008 11.26 8.77008 10.46V7.73336L8.78319 7.74669ZM7.40672 10.6134C7.47227 11.3667 7.24286 11.7467 6.81681 11.7467C6.3842 11.7467 6.16134 11.3667 6.22689 10.6134V7.60003C6.16134 6.84669 6.3842 6.49336 6.81681 6.49336C7.24286 6.49336 7.47227 6.84669 7.40672 7.60003V10.6134ZM3.29698 8.73336V12.8667H1.83529V8.73336C1.83529 8.73336 0.308067 3.64003 0 2.69336H1.54034L2.56941 6.66669L3.59193 2.70003H5.12571L3.29042 8.72669" fill="#111111"/>
<path d="M28.0164 6.46667C27.8001 6.46667 27.5575 6.60001 27.3281 6.81334V11.3867C27.5444 11.6133 27.7869 11.72 28.0098 11.72C28.4031 11.72 28.567 11.44 28.567 10.6867V7.44668C28.567 6.69334 28.39 6.47334 28.0033 6.47334L28.0164 6.46667ZM33.4829 7.38001C33.4829 6.68001 33.3059 6.47334 32.8668 6.47334C32.4276 6.47334 32.2375 6.67334 32.2375 7.37334V8.20668H33.4829V7.38667" fill="#E62117"/>
<path d="M36.4911 3.51997C36.4911 3.51997 36.2748 1.98663 35.6194 1.29997C34.787 0.399967 33.8496 0.399967 33.4301 0.353301C30.3691 0.133301 25.7743 0.133301 25.7743 0.133301H25.7612C25.7612 0.133301 21.173 0.133301 18.112 0.353301C17.6859 0.406634 16.7486 0.406634 15.9162 1.29997C15.2607 1.97997 15.051 3.51997 15.051 3.51997C15.051 3.51997 14.8281 5.3333 14.8281 7.14663V8.84663C14.8281 10.66 15.051 12.4666 15.051 12.4666C15.051 12.4666 15.2607 14.0133 15.9162 14.6933C16.7486 15.5866 17.8433 15.56 18.3283 15.6466C20.0784 15.82 25.7678 15.8733 25.7678 15.8733C25.7678 15.8733 30.3757 15.8733 33.4367 15.6466C33.8627 15.5933 34.7935 15.5933 35.6259 14.7C36.2814 14.02 36.4977 12.4733 36.4977 12.4733C36.4977 12.4733 36.7075 10.6666 36.7075 8.84663V7.14663C36.7075 5.3333 36.4911 3.51997 36.4911 3.51997ZM19.6327 12.8666H18.171V4.19997H16.6306V2.78663H21.2451V4.19997H19.6392V12.8666H19.6327ZM24.9091 12.8666H23.5196V12.04C22.9952 12.6666 22.5364 12.9733 22.0579 12.9733C21.6253 12.9733 21.3369 12.7733 21.1796 12.3933C21.1009 12.16 21.0354 11.8066 21.0354 11.28V5.3333H22.4249V11.4466C22.4577 11.6466 22.5429 11.7266 22.7199 11.7266C22.9821 11.7266 23.2312 11.48 23.5261 11.06V5.3333H24.9091V12.8666ZM29.9562 10.6133C29.9562 11.3066 29.9103 11.8 29.8251 12.12C29.6416 12.68 29.2549 12.9666 28.7305 12.9666C28.2585 12.9666 27.7735 12.6733 27.3278 12.1133V12.8733H26.0038V2.78663H27.3147V6.06663C27.7473 5.5333 28.2323 5.21997 28.7239 5.21997C29.2483 5.21997 29.6022 5.5333 29.7727 6.08663C29.871 6.39997 29.9562 6.88663 29.9562 7.59997V10.6133ZM32.8796 11.7266C33.2073 11.7266 33.4039 11.54 33.4695 11.1733C33.4826 11.1066 33.4826 10.7733 33.4826 10.2266H34.8722V10.44C34.8722 10.88 34.8394 11.1933 34.8263 11.3266C34.7804 11.6333 34.6755 11.9066 34.5182 12.1466C34.1512 12.6933 33.6006 12.96 32.9123 12.96C32.2241 12.96 31.6997 12.7066 31.313 12.1866C31.0312 11.8066 30.8542 11.2533 30.8542 10.4533V7.8133C30.8542 7.0133 31.018 6.38663 31.2999 5.99997C31.6801 5.48663 32.2175 5.2133 32.8861 5.2133C33.5547 5.2133 34.0791 5.47997 34.4592 5.99997C34.7214 6.38663 34.8853 6.9733 34.8853 7.77997V9.3333H32.2503V10.68C32.2503 11.38 32.447 11.7266 32.8927 11.7266H32.8796Z" fill="#E62117"/>
</g>
<defs>
<clipPath id="clip0_2_40696">
<rect width="36.7059" height="16" fill="white"/>
</clipPath>
</defs>
</svg>
