<svg width="169" height="59" viewBox="0 0 169 59" fill="none" xmlns="http://www.w3.org/2000/svg">
<g clip-path="url(#clip0_10_5010)">
<path d="M166.224 1H3.77608C2.24289 1 1 2.45827 1 4.25714V54.7429C1 56.5417 2.24289 58 3.77608 58H166.224C167.757 58 169 56.5417 169 54.7429V4.25714C169 2.45827 167.757 1 166.224 1Z" stroke="white" stroke-width="2"/>
<path d="M64.1 47L71.85 29.25H74.4L82.15 47H79.1L77.075 42.35H69.125L67.125 47H64.1ZM73.1 33.2L70.25 39.75H75.95L73.1 33.2ZM84.1117 47V34.5H86.8617V35.825C87.7117 34.775 88.9367 34.25 90.5367 34.25C92.0201 34.25 93.2034 34.7333 94.0867 35.7C94.9867 36.65 95.4367 37.925 95.4367 39.525V47H92.6867V39.975C92.6867 38.9583 92.4451 38.1667 91.9617 37.6C91.4951 37.0333 90.8201 36.75 89.9367 36.75C88.4701 36.75 87.4451 37.4083 86.8617 38.725V47H84.1117ZM104.305 47.25C102.489 47.25 100.997 46.6167 99.8305 45.35C98.6638 44.0833 98.0805 42.55 98.0805 40.75C98.0805 38.95 98.6638 37.4167 99.8305 36.15C100.997 34.8833 102.489 34.25 104.305 34.25C105.839 34.25 107.055 34.7167 107.955 35.65V28.75H110.705V47H107.955V45.825C107.055 46.775 105.839 47.25 104.305 47.25ZM104.63 44.75C106.064 44.75 107.172 44.1667 107.955 43V38.475C107.155 37.325 106.047 36.75 104.63 36.75C103.547 36.75 102.655 37.1417 101.955 37.925C101.255 38.6917 100.905 39.6333 100.905 40.75C100.905 41.8667 101.255 42.8167 101.955 43.6C102.655 44.3667 103.547 44.75 104.63 44.75ZM114.434 47V34.5H117.184V36.175C117.434 35.675 117.851 35.25 118.434 34.9C119.017 34.55 119.651 34.375 120.334 34.375C120.784 34.375 121.209 34.425 121.609 34.525L121.209 37.2C120.959 37.1 120.601 37.05 120.134 37.05C119.551 37.05 118.976 37.2167 118.409 37.55C117.859 37.8833 117.451 38.3583 117.184 38.975V47H114.434ZM133.596 45.375C132.346 46.625 130.796 47.25 128.946 47.25C127.096 47.25 125.538 46.625 124.271 45.375C123.021 44.1083 122.396 42.5667 122.396 40.75C122.396 38.9333 123.021 37.4 124.271 36.15C125.538 34.8833 127.096 34.25 128.946 34.25C130.796 34.25 132.346 34.8833 133.596 36.15C134.863 37.4 135.496 38.9333 135.496 40.75C135.496 42.5667 134.863 44.1083 133.596 45.375ZM128.946 44.7C130.03 44.7 130.921 44.325 131.621 43.575C132.338 42.8083 132.696 41.8667 132.696 40.75C132.696 39.6333 132.338 38.7 131.621 37.95C130.921 37.1833 130.03 36.8 128.946 36.8C127.846 36.8 126.938 37.1833 126.221 37.95C125.521 38.7 125.171 39.6333 125.171 40.75C125.171 41.8667 125.521 42.8083 126.221 43.575C126.938 44.325 127.846 44.7 128.946 44.7ZM139.637 32.275C139.137 32.275 138.704 32.1 138.337 31.75C137.987 31.3833 137.812 30.9417 137.812 30.425C137.812 29.925 137.987 29.5 138.337 29.15C138.704 28.7833 139.137 28.6 139.637 28.6C140.154 28.6 140.587 28.7833 140.937 29.15C141.304 29.5 141.487 29.925 141.487 30.425C141.487 30.9417 141.304 31.3833 140.937 31.75C140.587 32.1 140.154 32.275 139.637 32.275ZM138.262 47V34.5H141.012V47H138.262ZM150.057 47.25C148.241 47.25 146.749 46.6167 145.582 45.35C144.416 44.0833 143.832 42.55 143.832 40.75C143.832 38.95 144.416 37.4167 145.582 36.15C146.749 34.8833 148.241 34.25 150.057 34.25C151.591 34.25 152.807 34.7167 153.707 35.65V28.75H156.457V47H153.707V45.825C152.807 46.775 151.591 47.25 150.057 47.25ZM150.382 44.75C151.816 44.75 152.924 44.1667 153.707 43V38.475C152.907 37.325 151.799 36.75 150.382 36.75C149.299 36.75 148.407 37.1417 147.707 37.925C147.007 38.6917 146.657 39.6333 146.657 40.75C146.657 41.8667 147.007 42.8167 147.707 43.6C148.407 44.3667 149.299 44.75 150.382 44.75Z" fill="white"/>
<path d="M72.415 22V12.67H66.76V22H65.41V11.35H73.78V22H72.415ZM76.3918 24.91V14.5H77.6818V15.325C78.3018 14.675 79.1168 14.35 80.1268 14.35C81.2268 14.35 82.1318 14.73 82.8418 15.49C83.5518 16.24 83.9068 17.16 83.9068 18.25C83.9068 19.34 83.5518 20.265 82.8418 21.025C82.1318 21.775 81.2268 22.15 80.1268 22.15C79.1168 22.15 78.3018 21.825 77.6818 21.175V24.91H76.3918ZM80.0218 20.965C80.7618 20.965 81.3718 20.705 81.8518 20.185C82.3318 19.655 82.5718 19.01 82.5718 18.25C82.5718 17.49 82.3318 16.85 81.8518 16.33C81.3718 15.8 80.7618 15.535 80.0218 15.535C78.9718 15.535 78.1918 15.945 77.6818 16.765V19.72C78.1918 20.55 78.9718 20.965 80.0218 20.965ZM86.9071 22H85.7521V14.5H87.0421V20.005L91.2721 14.5H92.4121V22H91.1371V16.495L86.9071 22ZM94.6234 22.105C94.3334 22.105 94.0734 22.075 93.8434 22.015L94.0234 20.905C94.1334 20.935 94.2734 20.95 94.4434 20.95C94.7434 20.95 94.9684 20.84 95.1184 20.62C95.2684 20.39 95.3434 20.005 95.3434 19.465V14.5H101.133V22H99.8434V15.685H96.6334V19.735C96.6334 20.505 96.4484 21.095 96.0784 21.505C95.7084 21.905 95.2234 22.105 94.6234 22.105ZM106.909 22.15C105.779 22.15 104.839 21.775 104.089 21.025C103.349 20.265 102.979 19.34 102.979 18.25C102.979 17.16 103.349 16.24 104.089 15.49C104.839 14.73 105.779 14.35 106.909 14.35C108.029 14.35 108.959 14.73 109.699 15.49C110.449 16.24 110.824 17.16 110.824 18.25C110.824 19.34 110.449 20.265 109.699 21.025C108.959 21.775 108.029 22.15 106.909 22.15ZM105.019 20.17C105.509 20.69 106.139 20.95 106.909 20.95C107.679 20.95 108.304 20.69 108.784 20.17C109.264 19.65 109.504 19.01 109.504 18.25C109.504 17.49 109.264 16.85 108.784 16.33C108.304 15.81 107.679 15.55 106.909 15.55C106.139 15.55 105.509 15.81 105.019 16.33C104.539 16.85 104.299 17.49 104.299 18.25C104.299 19.01 104.539 19.65 105.019 20.17ZM121.041 22L117.501 18.67V22H116.211V18.67L112.671 22H110.961L114.981 18.175L111.486 14.5H113.091L116.211 17.83V14.5H117.501V17.83L120.636 14.5H122.226L118.731 18.175L122.751 22H121.041ZM126.772 22.15C125.622 22.15 124.687 21.78 123.967 21.04C123.247 20.3 122.887 19.37 122.887 18.25C122.887 17.14 123.252 16.215 123.982 15.475C124.712 14.725 125.647 14.35 126.787 14.35C127.797 14.35 128.642 14.69 129.322 15.37C130.012 16.04 130.357 16.955 130.357 18.115C130.357 18.265 130.352 18.395 130.342 18.505H124.192C124.212 19.205 124.462 19.79 124.942 20.26C125.432 20.73 126.047 20.965 126.787 20.965C127.837 20.965 128.617 20.53 129.127 19.66L130.147 20.365C129.417 21.555 128.292 22.15 126.772 22.15ZM124.282 17.455H129.037C128.937 16.855 128.672 16.38 128.242 16.03C127.822 15.67 127.322 15.49 126.742 15.49C126.152 15.49 125.622 15.67 125.152 16.03C124.692 16.38 124.402 16.855 124.282 17.455ZM132.188 22V14.5H133.478V17.59H137.573V14.5H138.863V22H137.573V18.76H133.478V22H132.188ZM142.454 22H141.299V14.5H142.589V20.005L146.819 14.5H147.959V22H146.684V16.495L142.454 22ZM153.71 22.15C152.56 22.15 151.625 21.78 150.905 21.04C150.185 20.3 149.825 19.37 149.825 18.25C149.825 17.14 150.19 16.215 150.92 15.475C151.65 14.725 152.585 14.35 153.725 14.35C154.735 14.35 155.58 14.69 156.26 15.37C156.95 16.04 157.295 16.955 157.295 18.115C157.295 18.265 157.29 18.395 157.28 18.505H151.13C151.15 19.205 151.4 19.79 151.88 20.26C152.37 20.73 152.985 20.965 153.725 20.965C154.775 20.965 155.555 20.53 156.065 19.66L157.085 20.365C156.355 21.555 155.23 22.15 153.71 22.15ZM151.22 17.455H155.975C155.875 16.855 155.61 16.38 155.18 16.03C154.76 15.67 154.26 15.49 153.68 15.49C153.09 15.49 152.56 15.67 152.09 16.03C151.63 16.38 151.34 16.855 151.22 17.455Z" fill="white"/>
<path d="M16.7373 45C16.2457 44.7578 16 44.1524 16 43.5469C16 43.4258 16 43.1836 16 43.0625C16 34.1016 16 25.1406 16 16.3008C16 15.8164 16.1229 15.4532 16.2457 14.9688C16.3687 14.7265 16.6144 14.4844 16.8602 14.2422C22.144 19.4492 27.305 24.6562 32.466 29.8633C27.1821 34.707 22.0212 39.793 16.7373 45Z" fill="white"/>
<path d="M37.6267 24.5352C36.1521 25.9883 34.5547 27.4414 33.0801 29.0156C28.1649 24.0508 23.1268 19.0859 18.2116 14.1211C18.2116 14.1211 18.2116 14 18.3344 14C24.7243 17.5117 31.114 21.0235 37.6267 24.5352Z" fill="white"/>
<path d="M18.2116 45C23.1268 40.1562 28.1649 35.3125 33.0801 30.4688C34.4318 31.8008 35.9064 33.1328 37.5038 34.5859C31.114 38.0977 24.7243 41.6094 18.3344 45H18.2116Z" fill="white"/>
<path d="M38.3645 34.1015C36.767 32.6485 35.2925 31.1953 33.695 29.7422C35.2925 28.168 36.8899 26.5938 38.4873 25.0195C38.9789 25.2617 39.4704 25.5039 39.9619 25.8672C41.1907 26.5938 42.5424 27.1992 43.7712 27.9258C44.1399 28.0468 44.3856 28.2891 44.6314 28.6523C45.1229 29.2578 45.1229 29.8633 44.6314 30.4688C44.3856 30.7109 44.1399 30.9531 43.7712 31.0742C42.0509 32.1641 40.2077 33.1328 38.3645 34.1015Z" fill="white"/>
</g>
<defs>
<clipPath id="clip0_10_5010">
<rect width="169" height="59" fill="white"/>
</clipPath>
</defs>
</svg>
