<svg width="28" height="28" viewBox="0 0 28 28" fill="none" xmlns="http://www.w3.org/2000/svg">
<path d="M15.6453 14L22.9953 6.66164C23.2149 6.44195 23.3384 6.14399 23.3384 5.83331C23.3384 5.52262 23.2149 5.22466 22.9953 5.00497C22.7756 4.78528 22.4776 4.66187 22.1669 4.66187C21.8562 4.66187 21.5583 4.78528 21.3386 5.00497L14.0003 12.355L6.66192 5.00497C6.44223 4.78528 6.14427 4.66187 5.83359 4.66187C5.5229 4.66187 5.22494 4.78528 5.00525 5.00497C4.78557 5.22466 4.66215 5.52262 4.66215 5.83331C4.66215 6.14399 4.78557 6.44195 5.00525 6.66164L12.3553 14L5.00525 21.3383C4.8959 21.4468 4.80911 21.5758 4.74988 21.718C4.69065 21.8601 4.66016 22.0126 4.66016 22.1666C4.66016 22.3207 4.69065 22.4731 4.74988 22.6153C4.80911 22.7575 4.8959 22.8865 5.00525 22.995C5.11371 23.1043 5.24275 23.1911 5.38491 23.2503C5.52708 23.3096 5.67957 23.3401 5.83359 23.3401C5.9876 23.3401 6.14009 23.3096 6.28226 23.2503C6.42443 23.1911 6.55346 23.1043 6.66192 22.995L14.0003 15.645L21.3386 22.995C21.447 23.1043 21.5761 23.1911 21.7182 23.2503C21.8604 23.3096 22.0129 23.3401 22.1669 23.3401C22.3209 23.3401 22.4734 23.3096 22.6156 23.2503C22.7578 23.1911 22.8868 23.1043 22.9953 22.995C23.1046 22.8865 23.1914 22.7575 23.2506 22.6153C23.3099 22.4731 23.3403 22.3207 23.3403 22.1666C23.3403 22.0126 23.3099 21.8601 23.2506 21.718C23.1914 21.5758 23.1046 21.4468 22.9953 21.3383L15.6453 14Z" fill="#908A9A"/>
</svg>
