<svg width="169" height="59" viewBox="0 0 169 59" fill="none" xmlns="http://www.w3.org/2000/svg">
<g clip-path="url(#clip0_10_5015)">
<path d="M166.224 1H3.77608C2.24289 1 1 2.45827 1 4.25714V54.7429C1 56.5417 2.24289 58 3.77608 58H166.224C167.757 58 169 56.5417 169 54.7429V4.25714C169 2.45827 167.757 1 166.224 1Z" stroke="white" stroke-width="2"/>
<path d="M67.225 32.275C66.725 32.275 66.2917 32.1 65.925 31.75C65.575 31.3833 65.4 30.9417 65.4 30.425C65.4 29.925 65.575 29.5 65.925 29.15C66.2917 28.7833 66.725 28.6 67.225 28.6C67.7417 28.6 68.175 28.7833 68.525 29.15C68.8917 29.5 69.075 29.925 69.075 30.425C69.075 30.9417 68.8917 31.3833 68.525 31.75C68.175 32.1 67.7417 32.275 67.225 32.275ZM65.85 47V34.5H68.6V47H65.85ZM80.6703 44.475C82.4036 44.475 83.8703 43.8583 85.0703 42.625C86.2703 41.3917 86.8703 39.8917 86.8703 38.125C86.8703 36.3583 86.2703 34.8583 85.0703 33.625C83.8703 32.3917 82.4036 31.775 80.6703 31.775C78.9203 31.775 77.4453 32.3917 76.2453 33.625C75.0453 34.8583 74.4453 36.3583 74.4453 38.125C74.4453 39.8917 75.0453 41.3917 76.2453 42.625C77.4453 43.8583 78.9203 44.475 80.6703 44.475ZM87.1703 44.625C85.387 46.4083 83.2203 47.3 80.6703 47.3C78.1203 47.3 75.9536 46.4167 74.1703 44.65C72.387 42.8667 71.4953 40.6917 71.4953 38.125C71.4953 35.5583 72.387 33.3917 74.1703 31.625C75.9536 29.8417 78.1203 28.95 80.6703 28.95C83.2203 28.95 85.387 29.8417 87.1703 31.625C88.9536 33.4083 89.8453 35.575 89.8453 38.125C89.8453 40.675 88.9536 42.8417 87.1703 44.625ZM96.6561 47.25C95.5061 47.25 94.4894 47.0333 93.6061 46.6C92.7227 46.15 92.0644 45.4833 91.6311 44.6L93.6561 43.15C93.9061 43.6833 94.3061 44.1083 94.8561 44.425C95.4061 44.725 96.0061 44.875 96.6561 44.875C97.1727 44.875 97.5977 44.7583 97.9311 44.525C98.2811 44.2917 98.4561 43.9667 98.4561 43.55C98.4561 43.1833 98.3144 42.8833 98.0311 42.65C97.7644 42.4167 97.2644 42.1833 96.5311 41.95L95.4311 41.65C93.2144 41.05 92.1227 39.775 92.1561 37.825C92.1561 36.7417 92.5811 35.875 93.4311 35.225C94.2811 34.575 95.3477 34.25 96.6311 34.25C98.5644 34.25 99.9727 34.9583 100.856 36.375L98.9561 37.825C98.3227 36.975 97.5311 36.55 96.5811 36.55C96.1311 36.55 95.7394 36.6583 95.4061 36.875C95.0727 37.075 94.9061 37.3583 94.9061 37.725C94.9061 38.0583 95.0144 38.3417 95.2311 38.575C95.4477 38.8083 95.8394 39.0167 96.4061 39.2L97.6811 39.575C98.8477 39.925 99.7227 40.4 100.306 41C100.889 41.5833 101.181 42.375 101.181 43.375C101.181 44.5583 100.756 45.5 99.9061 46.2C99.0561 46.9 97.9727 47.25 96.6561 47.25Z" fill="white"/>
<path d="M72.415 22V12.67H66.76V22H65.41V11.35H73.78V22H72.415ZM76.3918 24.91V14.5H77.6818V15.325C78.3018 14.675 79.1168 14.35 80.1268 14.35C81.2268 14.35 82.1318 14.73 82.8418 15.49C83.5518 16.24 83.9068 17.16 83.9068 18.25C83.9068 19.34 83.5518 20.265 82.8418 21.025C82.1318 21.775 81.2268 22.15 80.1268 22.15C79.1168 22.15 78.3018 21.825 77.6818 21.175V24.91H76.3918ZM80.0218 20.965C80.7618 20.965 81.3718 20.705 81.8518 20.185C82.3318 19.655 82.5718 19.01 82.5718 18.25C82.5718 17.49 82.3318 16.85 81.8518 16.33C81.3718 15.8 80.7618 15.535 80.0218 15.535C78.9718 15.535 78.1918 15.945 77.6818 16.765V19.72C78.1918 20.55 78.9718 20.965 80.0218 20.965ZM86.9071 22H85.7521V14.5H87.0421V20.005L91.2721 14.5H92.4121V22H91.1371V16.495L86.9071 22ZM94.6234 22.105C94.3334 22.105 94.0734 22.075 93.8434 22.015L94.0234 20.905C94.1334 20.935 94.2734 20.95 94.4434 20.95C94.7434 20.95 94.9684 20.84 95.1184 20.62C95.2684 20.39 95.3434 20.005 95.3434 19.465V14.5H101.133V22H99.8434V15.685H96.6334V19.735C96.6334 20.505 96.4484 21.095 96.0784 21.505C95.7084 21.905 95.2234 22.105 94.6234 22.105ZM106.909 22.15C105.779 22.15 104.839 21.775 104.089 21.025C103.349 20.265 102.979 19.34 102.979 18.25C102.979 17.16 103.349 16.24 104.089 15.49C104.839 14.73 105.779 14.35 106.909 14.35C108.029 14.35 108.959 14.73 109.699 15.49C110.449 16.24 110.824 17.16 110.824 18.25C110.824 19.34 110.449 20.265 109.699 21.025C108.959 21.775 108.029 22.15 106.909 22.15ZM105.019 20.17C105.509 20.69 106.139 20.95 106.909 20.95C107.679 20.95 108.304 20.69 108.784 20.17C109.264 19.65 109.504 19.01 109.504 18.25C109.504 17.49 109.264 16.85 108.784 16.33C108.304 15.81 107.679 15.55 106.909 15.55C106.139 15.55 105.509 15.81 105.019 16.33C104.539 16.85 104.299 17.49 104.299 18.25C104.299 19.01 104.539 19.65 105.019 20.17ZM121.041 22L117.501 18.67V22H116.211V18.67L112.671 22H110.961L114.981 18.175L111.486 14.5H113.091L116.211 17.83V14.5H117.501V17.83L120.636 14.5H122.226L118.731 18.175L122.751 22H121.041ZM126.772 22.15C125.622 22.15 124.687 21.78 123.967 21.04C123.247 20.3 122.887 19.37 122.887 18.25C122.887 17.14 123.252 16.215 123.982 15.475C124.712 14.725 125.647 14.35 126.787 14.35C127.797 14.35 128.642 14.69 129.322 15.37C130.012 16.04 130.357 16.955 130.357 18.115C130.357 18.265 130.352 18.395 130.342 18.505H124.192C124.212 19.205 124.462 19.79 124.942 20.26C125.432 20.73 126.047 20.965 126.787 20.965C127.837 20.965 128.617 20.53 129.127 19.66L130.147 20.365C129.417 21.555 128.292 22.15 126.772 22.15ZM124.282 17.455H129.037C128.937 16.855 128.672 16.38 128.242 16.03C127.822 15.67 127.322 15.49 126.742 15.49C126.152 15.49 125.622 15.67 125.152 16.03C124.692 16.38 124.402 16.855 124.282 17.455ZM132.188 22V14.5H133.478V17.59H137.573V14.5H138.863V22H137.573V18.76H133.478V22H132.188ZM142.454 22H141.299V14.5H142.589V20.005L146.819 14.5H147.959V22H146.684V16.495L142.454 22ZM153.71 22.15C152.56 22.15 151.625 21.78 150.905 21.04C150.185 20.3 149.825 19.37 149.825 18.25C149.825 17.14 150.19 16.215 150.92 15.475C151.65 14.725 152.585 14.35 153.725 14.35C154.735 14.35 155.58 14.69 156.26 15.37C156.95 16.04 157.295 16.955 157.295 18.115C157.295 18.265 157.29 18.395 157.28 18.505H151.13C151.15 19.205 151.4 19.79 151.88 20.26C152.37 20.73 152.985 20.965 153.725 20.965C154.775 20.965 155.555 20.53 156.065 19.66L157.085 20.365C156.355 21.555 155.23 22.15 153.71 22.15ZM151.22 17.455H155.975C155.875 16.855 155.61 16.38 155.18 16.03C154.76 15.67 154.26 15.49 153.68 15.49C153.09 15.49 152.56 15.67 152.09 16.03C151.63 16.38 151.34 16.855 151.22 17.455Z" fill="white"/>
<path d="M40.4523 30.1211C40.4143 25.5837 44.1732 23.372 44.3482 23.2732C42.2176 20.1723 38.9152 19.7467 37.751 19.7163C34.9737 19.4275 32.2876 21.3732 30.8723 21.3732C29.4341 21.3732 27.2578 19.7467 24.9066 19.7923C21.8857 19.8379 19.0627 21.586 17.518 24.2917C14.3221 29.8171 16.7038 37.9342 19.7703 42.4032C21.2997 44.5921 23.088 47.0319 25.4316 46.9482C27.722 46.857 28.5819 45.4889 31.344 45.4889C34.0833 45.4889 34.8899 46.9482 37.2792 46.895C39.737 46.857 41.2893 44.6985 42.7655 42.4944C44.5385 39.9864 45.2461 37.5162 45.2766 37.3946C45.2157 37.3566 40.498 35.5554 40.4523 30.1211ZM35.94 16.7749C37.1727 15.2321 38.0173 13.142 37.7814 11.0139C36.0009 11.0899 33.7637 12.2451 32.4854 13.75C31.3516 15.0801 30.3319 17.2537 30.5983 19.2983C32.5919 19.4426 34.654 18.2874 35.94 16.7749Z" fill="white"/>
</g>
<defs>
<clipPath id="clip0_10_5015">
<rect width="169" height="59" fill="white"/>
</clipPath>
</defs>
</svg>
