<svg width="317" height="1300" viewBox="0 0 317 1300" fill="none" xmlns="http://www.w3.org/2000/svg">
<path d="M242.991 244.049C282.484 112.478 316.327 3.60772e-07 316.327 3.60772e-07L208.462 246.812L233.252 244.828L143.748 449.521L178.769 446.718L87.4008 655.645L135.506 651.795C134.07 656.738 107.637 747.381 74.5625 858.015L109.584 855.212C90.3492 919.509 68.8967 991.038 48.9089 1057.67L73.6991 1055.69C34.1817 1187.26 0.338766 1299.74 0.338766 1299.74L108.204 1052.93L83.4135 1054.91L172.91 850.12L137.84 852.926L229.117 644.106L181.16 647.944C182.586 642.878 209.028 552.358 242.103 441.724L207.107 444.525C226.243 380.236 247.744 308.703 267.781 242.065L242.991 244.049Z" fill="url(#paint0_linear_12_23824)"/>
<defs>
<linearGradient id="paint0_linear_12_23824" x1="-55.5" y1="1007.5" x2="139.5" y2="342" gradientUnits="userSpaceOnUse">
<stop stop-color="#13191F"/>
<stop offset="1" stop-color="#ED1B26"/>
</linearGradient>
</defs>
</svg>
