<svg width="150" height="193" viewBox="0 0 150 193" fill="none" xmlns="http://www.w3.org/2000/svg">
<g clip-path="url(#clip0_1_5968)">
<path d="M157.334 72.3181C142.173 33.329 129.18 0 129.18 0L167.867 72.3181H160.305L192.398 132.294H181.745L214.476 193.487H199.832C200.387 194.953 210.59 221.833 223.306 254.62H212.623C220.012 273.675 228.249 294.872 235.924 314.619H228.332C243.493 353.608 256.486 386.937 256.486 386.937L217.799 314.619H225.361L193.268 254.613H203.951L171.243 193.45H185.864C185.309 191.946 175.106 165.104 162.39 132.316H173.073C165.684 113.262 157.447 92.0645 149.772 72.3181H157.334Z" fill="#FBFBFC"/>
<path d="M114.283 72.3181C99.1056 33.329 86.1191 0 86.1191 0L124.786 72.3181H117.224L149.334 132.294H138.658L171.39 193.487H156.738C157.294 194.953 167.504 221.833 180.213 254.62H169.53C176.92 273.675 185.157 294.872 192.839 314.619H185.277C200.439 353.608 213.426 386.937 213.426 386.937L174.744 314.619H182.306L150.211 254.613H160.895L128.162 193.427H142.792C142.236 191.924 132.026 165.082 119.317 132.294H130.038C122.648 113.239 114.41 92.0419 106.728 72.2956L114.283 72.3181Z" fill="#FBFBFC"/>
<path d="M70.995 72.3139C55.9434 33.3271 43.0591 0 43.0591 0L81.4514 72.3139H73.9442L105.805 132.286H95.1922L127.686 193.476H113.148C113.699 194.942 123.828 221.82 136.452 254.606H125.846C133.175 273.682 141.367 294.878 148.986 314.623H141.479C156.53 353.61 169.43 386.937 169.43 386.937L131.022 314.623H138.53L106.669 254.621H117.274L84.7656 193.438H99.3256C98.767 191.935 88.6383 165.095 76.0147 132.309H86.62C79.2841 113.255 71.1067 92.0591 63.4878 72.3139H70.995Z" fill="#FBFBFC"/>
<path d="M28.1261 72.3181C12.9865 33.329 -3.05176e-05 0 -3.05176e-05 0L38.6819 72.3181H31.127L63.2144 132.294H52.5386L85.2712 193.487H70.6192C71.1744 194.953 81.385 221.833 94.0939 254.62H83.4106C90.8079 273.675 99.0379 294.872 106.72 314.619H99.158C114.32 353.608 127.307 386.937 127.307 386.937L88.6247 314.619H96.1871L64.0922 254.613H74.7755L42.0429 193.427H56.6874C56.1322 191.924 45.9216 165.082 33.2127 132.294H43.881C36.4912 113.239 28.2536 92.0419 20.5713 72.2956L28.1261 72.3181Z" fill="#FBFBFC"/>
</g>
<defs>
<clipPath id="clip0_1_5968">
<rect width="429" height="193" fill="white" transform="matrix(-1 0 0 1 429 0)"/>
</clipPath>
</defs>
</svg>
