<svg width="150" height="156" viewBox="0 0 150 156" fill="none" xmlns="http://www.w3.org/2000/svg">
<g clip-path="url(#clip0_1_7109)">
<path d="M-7.33416 72.3181C7.82711 33.329 20.8203 0 20.8203 0L-17.8668 72.3181H-10.3049L-42.3979 132.294H-31.7452L-64.4759 193.487H-49.8322C-50.3874 194.953 -60.5899 221.833 -73.3056 254.62H-62.6229C-70.0123 273.675 -78.2493 294.872 -85.9237 314.619H-78.3318C-93.4931 353.608 -106.486 386.937 -106.486 386.937L-67.7992 314.619H-75.3611L-43.2681 254.613H-53.9508L-21.2426 193.45H-35.8638C-35.3086 191.946 -25.1061 165.104 -12.3904 132.316H-23.0731C-15.6837 113.262 -7.4467 92.0645 0.227707 72.3181H-7.33416Z" fill="#4B3273"/>
<path d="M35.7172 72.3181C50.8944 33.329 63.8809 0 63.8809 0L25.214 72.3181H32.7763L0.666443 132.294H11.3422L-21.3903 193.487H-6.73833C-7.2935 194.953 -17.5042 221.833 -30.2131 254.62H-19.5298C-26.9196 273.675 -35.1571 294.872 -42.8394 314.619H-35.2771C-50.4393 353.608 -63.4258 386.937 -63.4258 386.937L-24.7439 314.619H-32.3062L-0.211334 254.613H-10.8946L21.838 193.427H7.20846C7.76363 191.924 17.9743 165.082 30.6832 132.294H19.9624C27.3522 113.239 35.5897 92.0419 43.2721 72.2956L35.7172 72.3181Z" fill="#4B3273"/>
<path d="M79.005 72.3139C94.0566 33.3271 106.941 0 106.941 0L68.5486 72.3139H76.0558L44.195 132.286H54.8078L22.314 193.476H36.8517C36.3006 194.942 26.1719 221.82 13.5482 254.606H24.1536C16.8251 273.682 8.63279 294.878 1.01391 314.623H8.52109C-6.53047 353.61 -19.4297 386.937 -19.4297 386.937L18.9775 314.623H11.4703L43.3311 254.621H32.7257L65.2344 193.438H50.6744C51.233 191.935 61.3617 165.095 73.9853 132.309H63.38C70.7159 113.255 78.8933 92.0591 86.5122 72.3139H79.005Z" fill="#4B3273"/>
<path d="M121.874 72.3181C137.014 33.329 150 0 150 0L111.318 72.3181H118.873L86.7856 132.294H97.4614L64.7288 193.487H79.3808C78.8256 194.953 68.615 221.833 55.9061 254.62H66.5894C59.1921 273.675 50.9621 294.872 43.2797 314.619H50.842C35.6799 353.608 22.6934 386.937 22.6934 386.937L61.3753 314.619H53.8129L85.9078 254.613H75.2245L107.957 193.427H93.3126C93.8678 191.924 104.078 165.082 116.787 132.294H106.119C113.509 113.239 121.746 92.0419 129.429 72.2956L121.874 72.3181Z" fill="#4B3273"/>
</g>
<defs>
<clipPath id="clip0_1_7109">
<rect width="429" height="156" fill="white" transform="translate(-279)"/>
</clipPath>
</defs>
</svg>
