<svg width="24" height="24" viewBox="0 0 24 24" fill="none" xmlns="http://www.w3.org/2000/svg">
<path d="M17.7083 12.293C17.6155 12.2 17.5053 12.1263 17.384 12.076C17.2627 12.0257 17.1326 11.9998 17.0013 11.9998C16.87 11.9998 16.7399 12.0257 16.6186 12.076C16.4973 12.1263 16.3871 12.2 16.2943 12.293L14.7003 13.887C13.9613 13.667 12.5823 13.167 11.7083 12.293C10.8343 11.419 10.3343 10.04 10.1143 9.30096L11.7083 7.70696C11.8013 7.61417 11.875 7.50397 11.9253 7.38265C11.9756 7.26134 12.0015 7.13129 12.0015 6.99996C12.0015 6.86862 11.9756 6.73858 11.9253 6.61726C11.875 6.49595 11.8013 6.38575 11.7083 6.29296L7.70831 2.29296C7.61552 2.20001 7.50532 2.12627 7.384 2.07596C7.26269 2.02565 7.13264 1.99976 7.00131 1.99976C6.86998 1.99976 6.73993 2.02565 6.61862 2.07596C6.4973 2.12627 6.3871 2.20001 6.29431 2.29296L3.58231 5.00496C3.20231 5.38496 2.98831 5.90696 2.99631 6.43996C3.01931 7.86396 3.39631 12.81 7.29431 16.708C11.1923 20.606 16.1383 20.982 17.5633 21.006H17.5913C18.1193 21.006 18.6183 20.798 18.9963 20.42L21.7083 17.708C21.8013 17.6152 21.875 17.505 21.9253 17.3837C21.9756 17.2623 22.0015 17.1323 22.0015 17.001C22.0015 16.8696 21.9756 16.7396 21.9253 16.6183C21.875 16.4969 21.8013 16.3867 21.7083 16.294L17.7083 12.293ZM17.5813 19.005C16.3333 18.984 12.0633 18.649 8.70831 15.293C5.34231 11.927 5.01631 7.64196 4.99631 6.41896L7.00131 4.41396L9.58731 6.99996L8.29431 8.29296C8.17677 8.41041 8.09035 8.55529 8.04286 8.71453C7.99537 8.87376 7.98831 9.04231 8.02231 9.20496C8.04631 9.31996 8.63331 12.047 10.2933 13.707C11.9533 15.367 14.6803 15.954 14.7953 15.978C14.9579 16.0129 15.1266 16.0064 15.286 15.9591C15.4453 15.9117 15.5902 15.825 15.7073 15.707L17.0013 14.414L19.5873 17L17.5813 19.005Z" fill="#1E0E47"/>
</svg>
